<?xml version="1.0" encoding="UTF-8"?>
<svg width="77px" height="52px" viewBox="0 0 77 52" version="1.1" xmlns="http://www.w3.org/2000/svg" xmlns:xlink="http://www.w3.org/1999/xlink">
    <!-- Generator: Sketch 52.4 (67378) - http://www.bohemiancoding.com/sketch -->
    <title>Adidas_Logo</title>
    <desc>Created with Sketch.</desc>
    <g id="Homepage" stroke="none" stroke-width="1" fill="none" fill-rule="evenodd">
        <g transform="translate(-413.000000, -1173.000000)" fill="#FFFFFF" id="Logos-Section">
            <g transform="translate(252.000000, 1037.000000)">
                <g id="Logos" transform="translate(11.000000, 135.000000)">
                    <g id="Adidas_Logo" transform="translate(150.000000, 0.000000)">
                        <g id="Group" transform="translate(70.541558, 45.016490) scale(-1, 1) rotate(-180.000000) translate(-70.541558, -45.016490) translate(64.041558, 37.516490)">
                            <g transform="translate(-0.000000, 0.000000)" id="Path">
                                <g transform="translate(0.203410, 0.103444)">
                                    <path d="M6.02219599,0 C2.48865927,0 0.39286832,1.78930687 0.232504368,4.36656538 L3.61120693,4.36656538 C3.61120693,3.50747921 4.09229878,2.36385494 6.18255994,2.29272042 C7.63136529,2.29272042 8.43318505,3.15180659 8.43318505,3.79748919 C8.27282109,4.79884441 6.98437969,4.86997894 5.70146808,5.08885439 C4.25266273,5.29678608 3.13011507,5.58679606 2.32276553,5.94246868 C1.20021787,6.51701676 0.553232271,7.73724743 0.553232271,9.02314075 C0.553232271,11.3158612 2.48865927,13.105168 5.86183203,13.105168 C9.08017064,13.105168 11.1704318,11.4581302 11.325266,8.95200622 L8.11245714,8.95200622 C8.11245714,9.59221694 7.95209319,10.6701786 6.02219599,10.6701786 C4.73375458,10.6701786 3.93193483,10.456775 3.77157088,9.5265543 C3.77157088,8.2351891 6.50328784,8.30632362 8.593549,7.80838196 C10.5234462,7.3049684 11.8118876,6.09020961 11.8118876,4.36656538 C11.8118876,1.21475879 9.24053459,0 6.02219599,0"></path>
                                </g>
                            </g>
                        </g>
                        <g id="Group" transform="translate(17.698811, 29.494241) scale(-1, 1) rotate(-180.000000) translate(-17.698811, -29.494241) translate(8.698811, 23.994241)">
                            <polyline id="Path" points="0 3.72726312 11.0927616 10.1020108 17.0428172 0.000908450289 2.09026116 0.000908450289"></polyline>
                        </g>
                        <g id="Group" transform="translate(32.014089, 45.532980) scale(-1, 1) rotate(-180.000000) translate(-32.014089, -45.532980) translate(29.014089, 39.032980)" stroke="#FFFFFF" stroke-width="3.24598756">
                            <path d="M3.01109799,0 L3.01109799,12.7494954" id="Path"></path>
                        </g>
                        <g id="Group" transform="translate(7.691421, 45.254507) scale(-1, 1) rotate(-180.000000) translate(-7.691421, -45.254507) translate(0.191421, 37.754507)" fill-rule="nonzero">
                            <g id="Shape">
                                <g transform="translate(0.095843, 0.200893)">
                                    <path d="M3.26296734,6.70683053 C3.26296734,4.70412009 5.03250059,3.05708227 6.956868,3.05708227 C9.05265895,3.05708227 10.6562985,4.70412009 10.6562985,6.70683053 C10.6562985,8.63840644 9.05265895,10.3565788 6.956868,10.3565788 C5.03250059,10.3565788 3.26296734,8.63840644 3.26296734,6.70683053 M6.79650405,0.118679248 C3.26296734,0.118679248 0.210522471,3.05708227 0.210522471,6.70683053 C0.210522471,10.3565788 3.26296734,13.2238473 6.79650405,13.2238473 C8.24530941,13.2238473 9.53375081,12.8627028 10.6562985,12.080223 L10.6562985,13.0815782 L13.8746371,13.0815782 L13.8746371,0.408689229 L10.6562985,0.408689229 L10.6562985,1.19664088 C9.69411476,0.479823753 8.24530941,0.118679248 6.79650405,0.118679248"></path>
                                </g>
                            </g>
                        </g>
                        <g id="Group" transform="translate(49.936836, 17.990503) scale(-1, 1) rotate(-180.000000) translate(-49.936836, -17.990503) translate(34.436836, 0.990503)">
                            <polyline id="Path" points="15.5818969 2.27373675e-13 0.148249036 26.6371432 11.2410106 33.0830254 30.5344529 2.27373675e-13"></polyline>
                        </g>
                        <g id="Group" transform="translate(22.517710, 43.254507) scale(-1, 1) rotate(-180.000000) translate(-22.517710, -43.254507) translate(15.017710, 33.754507)" fill-rule="nonzero">
                            <g transform="translate(-0.000000, 0.000000)" id="Shape">
                                <g transform="translate(0.061746, 0.200893)">
                                    <path d="M3.26296734,6.70683053 C3.26296734,4.70412009 4.87213664,3.05708227 6.9623978,3.05708227 C8.88676521,3.05708227 10.6618283,4.70412009 10.6618283,6.70683053 C10.6618283,8.63840644 8.88676521,10.3565788 6.9623978,10.3565788 C4.87213664,10.3565788 3.26296734,8.63840644 3.26296734,6.70683053 M6.80203384,0.118679248 C3.10260338,0.118679248 0.210522471,3.05708227 0.210522471,6.70683053 C0.210522471,10.3565788 3.10260338,13.2238473 6.80203384,13.2238473 C8.24530941,13.2238473 9.53375081,12.8627028 10.6618283,12.080223 L10.6618283,17.4481436 L13.8746371,17.4481436 L13.8746371,0.408689229 L10.6618283,0.408689229 L10.6618283,1.19664088 C9.53375081,0.479823753 8.24530941,0.118679248 6.80203384,0.118679248"></path>
                                </g>
                            </g>
                        </g>
                        <g id="Group" transform="translate(33.722975, 25.780115) scale(-1, 1) rotate(-180.000000) translate(-33.722975, -25.780115) translate(21.722975, 13.280115)">
                            <polyline id="Path" points="0 18.3982991 11.2531255 24.6964404 23.6343285 3.29042065 11.8945813 3.29042065 11.8945813 0.138614062 8.68177253 0.138614062 8.68177253 3.29042065"></polyline>
                        </g>
                        <g id="Group" transform="translate(57.129516, 41.754507) scale(-1, 1) rotate(-180.000000) translate(-57.129516, -41.754507) translate(34.629516, 30.754507)" fill-rule="nonzero">
                            <g transform="translate(-0.000000, 0.000000)" id="Shape">
                                <g transform="translate(37.590857, 14.513646)">
                                    <path d="M1.75175128,-2.27151631e-13 C0.944401732,-2.27151631e-13 0.142581976,0.716817124 0.142581976,1.5759033 C0.142581976,2.43498947 0.944401732,3.15180659 1.75175128,3.15180659 C2.71393499,3.15180659 3.36092058,2.43498947 3.36092058,1.5759033 C3.36092058,0.716817124 2.71393499,-2.27151631e-13 1.75175128,-2.27151631e-13 M1.75175128,2.93293113 C0.944401732,2.93293113 0.463309878,2.29272042 0.463309878,1.5759033 C0.463309878,0.859086172 0.944401732,0.213403571 1.75175128,0.213403571 C2.55357104,0.213403571 3.03466289,0.859086172 3.03466289,1.5759033 C3.03466289,2.29272042 2.55357104,2.93293113 1.75175128,2.93293113"></path>
                                </g>
                                <g transform="translate(38.678253, 15.224991)">
                                    <path d="M0.996143251,-2.27151631e-13 L0.675415348,0.716817124 L0.354687446,0.716817124 L0.354687446,-2.27151631e-13 L0.111376623,-2.27151631e-13 L0.111376623,1.71817234 L0.835779299,1.71817234 C0.996143251,1.71817234 1.31687115,1.49929689 1.31687115,1.21475879 C1.31687115,0.930220696 1.1565072,0.787951648 0.996143251,0.716817124 L1.31687115,-2.27151631e-13 M0.675415348,1.49929689 L0.354687446,1.49929689 L0.354687446,0.930220696 L0.675415348,0.930220696 C0.996143251,0.930220696 0.996143251,1.00135522 0.996143251,1.21475879 C0.996143251,1.36249972 0.996143251,1.49929689 0.675415348,1.49929689"></path>
                                </g>
                                <g transform="translate(14.845242, 0.200893)">
                                    <path d="M3.26296734,6.70683053 C3.26296734,4.70412009 4.87213664,3.05708227 6.9623978,3.05708227 C8.892295,3.05708227 10.6562985,4.70412009 10.6562985,6.70683053 C10.6562985,8.63840644 8.892295,10.3565788 6.9623978,10.3565788 C4.87213664,10.3565788 3.26296734,8.63840644 3.26296734,6.70683053 M6.79650405,0.118679248 C3.10260338,0.118679248 0.210522471,3.05708227 0.210522471,6.70683053 C0.210522471,10.3565788 3.10260338,13.2238473 6.79650405,13.2238473 C8.24530941,13.2238473 9.53375081,12.8627028 10.6562985,12.080223 L10.6562985,13.0815782 L13.7142731,13.0815782 L13.7142731,0.408689229 L10.6562985,0.408689229 L10.6562985,1.19664088 C9.53375081,0.479823753 8.24530941,0.118679248 6.79650405,0.118679248"></path>
                                </g>
                                <g transform="translate(0.064110, 0.200893)">
                                    <path d="M3.26296734,6.70683053 C3.26296734,4.70412009 5.03250059,3.05708227 6.9623978,3.05708227 C9.05265895,3.05708227 10.6618283,4.70412009 10.6618283,6.70683053 C10.6618283,8.63840644 9.05265895,10.3565788 6.9623978,10.3565788 C5.03250059,10.3565788 3.26296734,8.63840644 3.26296734,6.70683053 Z M10.6618283,17.4481436 L13.8746371,17.4481436 L13.8746371,0.408689229 L10.6618283,0.408689229 L10.6618283,1.19664088 C9.69411476,0.479823753 8.40567336,0.118679248 6.9623978,0.118679248 C3.26296734,0.118679248 0.210522471,3.05708227 0.210522471,6.70683053 C0.210522471,10.3565788 3.26296734,13.2238473 6.9623978,13.2238473 C8.40567336,13.2238473 9.69411476,12.8627028 10.6618283,12.080223 L10.6618283,17.4481436 Z"></path>
                                </g>
                            </g>
                        </g>
                    </g>
                </g>
            </g>
        </g>
    </g>
</svg>