<?xml version="1.0" encoding="UTF-8"?>
<svg width="100px" height="30px" viewBox="0 0 100 30" version="1.1" xmlns="http://www.w3.org/2000/svg" xmlns:xlink="http://www.w3.org/1999/xlink">
    <!-- Generator: Sketch 52.4 (67378) - http://www.bohemiancoding.com/sketch -->
    <title>Amazon.com-Logo</title>
    <desc>Created with Sketch.</desc>
    <g id="Homepage" stroke="none" stroke-width="1" fill="none" fill-rule="evenodd">
        <g transform="translate(-543.000000, -1184.000000)" fill="#FFFFFF" id="Logos-Section">
            <g transform="translate(252.000000, 1037.000000)">
                <g id="Logos" transform="translate(11.000000, 135.000000)">
                    <g id="Amazon.com-Logo" transform="translate(280.000000, 12.000000)">
                        <path d="M61.7161157,23.3827744 C55.9434315,27.6118548 47.5762782,29.868222 40.3723152,29.868222 C30.2711966,29.868222 21.177598,26.1548859 14.2979391,19.9788843 C13.7574264,19.4932252 14.2417238,18.8313597 14.8903424,19.2095679 C22.3148353,23.5031154 31.4949216,26.0861203 40.9776924,26.0861203 C47.3730454,26.0861203 54.4083712,24.7709777 60.8772382,22.0418482 C61.8544873,21.6292531 62.6717433,22.6779285 61.7161157,23.3827744" id="path8"></path>
                        <path d="M64.1159979,20.6536449 C63.3808967,19.7167154 59.2384016,20.2109679 57.3790353,20.430158 C56.8125748,20.4989236 56.7260954,20.0089695 57.2363374,19.6565433 C60.5356337,17.3486023 65.9494198,18.0147679 66.5807398,18.7883793 C67.2120565,19.5662908 66.4164237,24.9600859 63.3160355,27.5344908 C62.840384,27.9298925 62.3863524,27.7193007 62.5982361,27.1949613 C63.2944157,25.4672285 64.8554205,21.5948728 64.1159979,20.6536449" id="path10"></path>
                        <path d="M57.5087593,3.36342033 L57.5087593,1.11994656 C57.5087593,0.780417049 57.7682057,0.552631803 58.0795411,0.552631803 L68.184981,0.552631803 C68.5092919,0.552631803 68.7687383,0.78471541 68.7687383,1.11994656 L68.7687383,3.04108262 C68.764417,3.36342033 68.491995,3.78460885 68.0076926,4.45077443 L62.7711982,11.8817466 C64.7170488,11.8344728 66.7710004,12.1224252 68.5352364,13.1109302 C68.9330544,13.334417 69.041157,13.6610531 69.0714261,13.9833941 L69.0714261,16.3772925 C69.0714261,16.7039285 68.7082001,17.0864334 68.3276789,16.8887351 C65.2186432,15.2684466 61.0891203,15.0922351 57.6514539,16.9059269 C57.3012019,17.0950318 56.9336529,16.716822 56.9336529,16.3901859 L56.9336529,14.1166269 C56.9336529,13.7513105 56.9379742,13.1281203 57.3055232,12.573699 L63.3722491,3.92643836 L58.0925134,3.92643836 C57.7682057,3.92643836 57.5087593,3.69865475 57.5087593,3.36342033" id="path12"></path>
                        <path d="M20.6457296,17.3614957 L17.5712893,17.3614957 C17.2772524,17.3400089 17.0437488,17.1208187 17.0221273,16.8414564 L17.0221273,1.15863016 C17.0221273,0.844887541 17.2858984,0.595610492 17.6145306,0.595610492 L20.4814135,0.595610492 C20.7797799,0.608495738 21.0176032,0.83628918 21.0392263,1.11994656 L21.0392263,3.17002033 L21.0954399,3.17002033 C21.8435101,1.18871213 23.2488431,0.264676066 25.1428048,0.264676066 C27.0670323,0.264676066 28.2691341,1.18871213 29.133956,3.17002033 C29.8777032,1.18871213 31.5684287,0.264676066 33.3802324,0.264676066 C34.6688169,0.264676066 36.0784761,0.793310492 36.9389735,1.97951541 C37.911898,3.29895311 37.7129881,5.21579082 37.7129881,6.89624984 L37.7086651,16.7941826 C37.7086651,17.1079252 37.4448941,17.3614957 37.1162618,17.3614957 L34.0461428,17.3614957 C33.7391337,17.3400089 33.4926595,17.0950318 33.4926595,16.7941826 L33.4926595,8.48215311 C33.4926595,7.8202859 33.5531945,6.16991377 33.4061768,5.54242689 C33.1769995,4.48945803 32.4894659,4.19290393 31.5986979,4.19290393 C30.8549507,4.19290393 30.0766114,4.68715639 29.7609514,5.47796131 C29.4452914,6.26876459 29.4755605,7.59249738 29.4755605,8.48215311 L29.4755605,16.7941826 C29.4755605,17.1079252 29.2117895,17.3614957 28.8831572,17.3614957 L25.8130416,17.3614957 C25.5017062,17.3400089 25.259555,17.0950318 25.259555,16.7941826 L25.255232,8.48215311 C25.255232,6.7329318 25.5449442,4.15852197 23.3612719,4.15852197 C21.1516502,4.15852197 21.2381329,6.66846131 21.2381329,8.48215311 L21.2381329,16.7941826 C21.2381329,17.1079252 20.9743619,17.3614957 20.6457296,17.3614957" id="path14"></path>
                        <path d="M77.4688452,0.264676066 C82.0307799,0.264676066 84.4998447,4.15852197 84.4998447,9.10963836 C84.4998447,13.8931367 81.7713302,17.6881318 77.4688452,17.6881318 C72.9890669,17.6881318 70.5502679,13.7942859 70.5502679,8.94202197 C70.5502679,4.05967115 73.019336,0.264676066 77.4688452,0.264676066 M77.494788,3.46657115 C75.2289577,3.46657115 75.0862598,6.53522852 75.0862598,8.44777115 C75.0862598,10.3646089 75.0559907,14.4561548 77.4688452,14.4561548 C79.8514289,14.4561548 79.9638561,11.1554138 79.9638561,9.14401869 C79.9638561,7.8202859 79.9076425,6.23867934 79.5054982,4.98370721 C79.1595691,3.89205803 78.4720388,3.46657115 77.494788,3.46657115" id="path16"></path>
                        <path d="M90.4152267,17.3614957 L87.3537586,17.3614957 C87.0467446,17.3400089 86.8002704,17.0950318 86.8002704,16.7941826 L86.7959491,1.10705311 C86.8218935,0.819097377 87.077017,0.595610492 87.3883524,0.595610492 L90.2379417,0.595610492 C90.5060341,0.608495738 90.7265638,0.78901377 90.7871036,1.03399082 L90.7871036,3.4321859 L90.8433139,3.4321859 C91.7038145,1.28756295 92.9102377,0.264676066 95.033375,0.264676066 C96.4127652,0.264676066 97.7575649,0.758928525 98.6223869,2.1127482 C99.4266706,3.36771869 99.4266706,5.47796131 99.4266706,6.99509738 L99.4266706,16.8672466 C99.3920785,17.1423056 99.1369551,17.3614957 98.8342706,17.3614957 L95.7511794,17.3614957 C95.4701098,17.3400089 95.2366079,17.1337121 95.2063421,16.8672466 L95.2063421,8.34892033 C95.2063421,6.63408098 95.4052503,4.12413836 93.2821113,4.12413836 C92.5340428,4.12413836 91.8465075,4.62269082 91.504903,5.37910885 C91.0724945,6.33753016 91.0162809,7.29165148 91.0162809,8.34892033 L91.0162809,16.7941826 C91.0119596,17.1079252 90.7438623,17.3614957 90.41523,17.3614957" id="path18"></path>
                        <path d="M49.4529431,9.87035639 C49.4529431,11.060858 49.4832122,12.0536597 48.8778366,13.1109302 C48.3892129,13.9705007 47.6108736,14.4991351 46.7503763,14.4991351 C45.5698943,14.4991351 44.8780378,13.605181 44.8780378,12.2857433 C44.8780378,9.68125148 47.2260278,9.20848918 49.4529431,9.20848918 L49.4529431,9.87035639 M52.5533295,17.318517 C52.3500983,17.4990269 52.0560565,17.5119203 51.8268792,17.3915826 C50.8063888,16.5492056 50.6204528,16.1581023 50.0626432,15.3544056 C48.3762407,17.0649466 47.1784602,17.5763875 44.9947863,17.5763875 C42.404645,17.5763875 40.393935,15.9904843 40.393935,12.814381 C40.393935,10.3345236 41.7430592,8.64547115 43.6716113,7.8202859 C45.340717,7.08964984 47.6714085,6.96071705 49.4529431,6.75871869 L49.4529431,6.36331705 C49.4529431,5.63697934 49.5091566,4.77741049 49.0767465,4.14992852 C48.7048729,3.58690885 47.9870686,3.35482525 47.3514272,3.35482525 C46.1795912,3.35482525 45.1374842,3.95222525 44.8823591,5.19000393 C44.8304701,5.46506787 44.627239,5.7358318 44.3461694,5.74872525 L41.3668595,5.43068262 C41.1160607,5.37481377 40.8349944,5.17281213 40.9085049,4.79030721 C41.5917137,1.19731049 44.8607409,0.114251475 47.7838357,0.114251475 C49.2799793,0.114251475 51.2344759,0.509653115 52.4149579,1.63568754 C53.9110982,3.02389082 53.7684036,4.87626131 53.7684036,6.89195148 L53.7684036,11.6539613 C53.7684036,13.0851449 54.3651299,13.7126269 54.927264,14.4862416 C55.1218509,14.7613007 55.1650923,15.0922351 54.9142836,15.2985318 C54.2872882,15.8185728 53.1716674,16.7855875 52.5576443,17.3271154 L52.5533229,17.3185089" id="path28"></path>
                        <path d="M9.14792734,9.87035639 C9.14792734,11.060858 9.17819315,12.0536597 8.57282075,13.1109302 C8.08419371,13.9705007 7.31017908,14.4991351 6.44535712,14.4991351 C5.26487516,14.4991351 4.57734322,13.605181 4.57734322,12.2857433 C4.57734322,9.68125148 6.92533325,9.20848918 9.14792734,9.20848918 L9.14792734,9.87035639 M12.2483122,17.318517 C12.0450793,17.4990269 11.7510375,17.5119203 11.5218602,17.3915826 C10.501373,16.5492056 10.3197584,16.1581023 9.75762421,15.3544056 C8.07122147,17.0649466 6.87777057,17.5763875 4.68976873,17.5763875 C2.10395048,17.5763875 0.0889189642,15.9904843 0.0889189642,12.814381 C0.0889189642,10.3345236 1.44236466,8.64547115 3.36659215,7.8202859 C5.03569785,7.08964984 7.36639266,6.96071705 9.14792734,6.75871869 L9.14792734,6.36331705 C9.14792734,5.63697934 9.20414093,4.77741049 8.77605375,4.14992852 C8.39985372,3.58690885 7.68205432,3.35482525 7.05073266,3.35482525 C5.8789016,3.35482525 4.83246501,3.95222525 4.57734322,5.19000393 C4.52545261,5.46506787 4.32221977,5.7358318 4.04547813,5.74872525 L1.06184346,5.43068262 C0.811044646,5.37481377 0.534301356,5.17281213 0.603487178,4.79030721 C1.29102077,1.19731049 4.55572172,0.114251475 7.47882148,0.114251475 C8.97496031,0.114251475 10.9294569,0.509653115 12.1099389,1.63568754 C13.6060825,3.02389082 13.4633846,4.87626131 13.4633846,6.89195148 L13.4633846,11.6539613 C13.4633846,13.0851449 14.0601141,13.7126269 14.6222483,14.4862416 C14.8211565,14.7613007 14.8643979,15.0922351 14.6135991,15.2985318 C13.9866037,15.8185728 12.8709846,16.7855875 12.2569581,17.3271154 L12.2483122,17.3185089" id="path30"></path>
                    </g>
                </g>
            </g>
        </g>
    </g>
</svg>