<?xml version="1.0" encoding="UTF-8"?>
<svg width="130px" height="52px" viewBox="0 0 130 52" version="1.1" xmlns="http://www.w3.org/2000/svg" xmlns:xlink="http://www.w3.org/1999/xlink">
    <!-- Generator: Sketch 52.4 (67378) - http://www.bohemiancoding.com/sketch -->
    <title>business-insider-1</title>
    <desc>Created with Sketch.</desc>
    <g id="Homepage" stroke="none" stroke-width="1" fill="none" fill-rule="evenodd" opacity="0.703264509">
        <g transform="translate(-650.000000, -6628.000000)" fill="#FFFFFF" fill-rule="nonzero" id="Banner">
            <g transform="translate(-24.000000, 5637.000000)">
                <g id="Logos" transform="translate(284.000000, 991.000000)">
                    <g id="business-insider-1" transform="translate(390.000000, 0.000000)">
                        <path d="M10.0473316,10.9390284 C9.44969504,10.5149905 8.7949047,10.3169968 7.68486658,10.2604038 C7.17246506,10.2321893 6.88801779,10.2321893 6.46101652,10.2321893 C6.34720457,10.2321893 6.29038119,10.2887823 6.29038119,10.4300189 L6.29038119,17.1288328 C6.29038119,18.9944353 6.37578145,19.4750662 7.28644219,19.842347 C8.05487929,20.1533628 8.70950445,20.1815773 9.36412961,20.1815773 C10.6451334,20.1815773 12.8082211,19.5029527 12.8082211,16.5633943 C12.8082211,14.8109779 12.2105845,12.436858 10.0473316,10.9390284 Z M6.29038119,8.67776656 C6.29038119,8.90397476 6.37578145,8.96040379 6.48959339,8.9886183 C6.74579416,9.04537539 7.17263024,9.07342587 7.82742058,9.07342587 C8.7666582,9.07342587 9.39287166,8.96056782 9.87653113,8.53652997 C10.6165565,7.94287697 11.0435578,6.9255142 11.0435578,5.54054259 C11.0435578,3.64656151 9.9335197,1.15925552 7.48565438,1.15925552 C7.08722999,1.15925552 6.83102922,1.15925552 6.54641677,1.21584858 C6.34703939,1.27244164 6.29021601,1.38546372 6.29021601,1.69631546 L6.29021601,8.67776656 L6.29038119,8.67776656 Z M2.8747014,8.19713565 C2.8747014,3.90082019 2.8747014,3.10933754 2.81771283,2.20483281 C2.76072427,1.24406309 2.53310038,0.791646688 1.59386277,0.593817035 C1.36623888,0.537388013 0.882249047,0.509009464 0.483824651,0.509009464 C0.170800508,0.509009464 0,0.452416404 0,0.254586751 C0,0.0567570978 0.199212198,0.00032807571 0.626213469,0 C2.13467598,0 3.92791614,0.0849716088 4.49714104,0.0849716088 C5.89179161,0.0849716088 7.00199492,2.84560318e-19 7.96964422,0.00032807571 C13.1214104,0.00032807571 14.0322363,2.74189274 14.0322363,4.24005047 C14.0322363,6.55774132 12.6944091,7.9425489 11.1289581,9.18644795 C13.4630114,9.97760252 16.309136,11.9847697 16.309136,15.2917729 C16.309136,18.3163028 13.9466709,21.4535268 8.70950445,21.4535268 C8.36806861,21.4535268 7.54264295,21.3969338 6.7170521,21.3685552 C5.86321474,21.3121262 5.00937738,21.2837476 4.58237611,21.2837476 C4.26918679,21.2837476 3.64297332,21.2837476 2.95993647,21.3121262 C2.30531131,21.3121262 1.56545108,21.3685552 0.996060991,21.3685552 C0.626048285,21.3685552 0.426670902,21.2837476 0.426670902,21.085918 C0.426670902,20.9446814 0.54064803,20.8597098 0.882249047,20.8597098 C1.30908513,20.8597098 1.65068615,20.8032808 1.90688691,20.7468517 C2.47611182,20.6336656 2.61850064,20.0119621 2.73231258,19.1921009 C2.87453621,18.005123 2.87453621,15.7719117 2.87453621,13.1715836 L2.87453621,8.19713565 L2.8747014,8.19713565 Z M20.1504956,10.1475457 C20.1504956,6.5013123 20.1790724,5.82285174 20.1220839,5.0595836 C20.0650953,4.21167192 19.8374714,3.98562776 19.0404574,3.75941956 C18.8412452,3.70266246 18.414244,3.67461199 18.0728081,3.67461199 C17.7880305,3.67461199 17.645972,3.58964038 17.645972,3.42018927 C17.645972,3.25057413 17.8166074,3.19398107 18.1866201,3.19398107 C19.5244473,3.19398107 21.2037103,3.25057413 21.9435705,3.25057413 C22.5699492,3.25057413 24.2492122,3.19398107 25.1600381,3.19398107 C25.5300508,3.19398107 25.7006861,3.25057413 25.7006861,3.42018927 C25.7006861,3.58964038 25.5584625,3.67461199 25.3024269,3.67461199 C25.0176493,3.67461199 24.8754257,3.7028265 24.5625667,3.75941956 C23.9077764,3.87244164 23.7085642,4.21167192 23.6514104,5.0595836 C23.594587,5.8226877 23.594587,6.5013123 23.594587,10.1475457 L23.594587,13.511142 C23.594587,17.0159748 24.2776239,18.3727319 25.501474,19.3336656 C26.6115121,20.2101199 27.8071156,20.2945994 28.6611182,20.2945994 C29.7424142,20.2945994 31.023418,19.9837476 32.019479,19.0226498 C33.4141296,17.7224858 33.4711182,15.6308391 33.4711182,13.1717476 L33.4711182,10.1475457 C33.4711182,6.5013123 33.4427065,5.82285174 33.4141296,5.0595836 C33.357141,4.24005047 33.1579288,3.98562776 32.3610801,3.75941956 C32.1618679,3.70266246 31.7348666,3.67461199 31.4500889,3.67461199 C31.1654765,3.67461199 31.0232529,3.58964038 31.0232529,3.42018927 C31.0232529,3.25057413 31.1940534,3.19398107 31.5356544,3.19398107 C32.816493,3.19398107 34.495756,3.25057413 34.5241677,3.25057413 C34.8091105,3.25057413 36.4883736,3.19398107 37.4558577,3.19398107 C37.7974587,3.19398107 37.9684244,3.25057413 37.9684244,3.42018927 C37.9684244,3.58964038 37.8260356,3.67461199 37.5414231,3.67461199 C37.2568107,3.67461199 37.1144219,3.7028265 36.8013977,3.75941956 C36.1181957,3.87244164 35.9477255,4.21167192 35.8905718,5.0595836 C35.8621601,5.8226877 35.8335832,6.5013123 35.8335832,10.1475457 L35.8335832,12.7196593 C35.8335832,15.404795 35.5489708,18.2314953 33.4427065,19.9555331 C31.677878,21.4253123 29.7709911,21.679571 28.1485515,21.679571 C26.839136,21.679571 24.2492122,21.623142 22.4275604,20.0403407 C21.1467217,18.9378423 20.1503304,17.1573754 20.1503304,13.6807571 L20.1503304,10.1475457 L20.1504956,10.1475457 Z M40.3014867,21.0577035 C39.9028971,20.8882524 39.817662,20.7749022 39.817662,20.2380063 C39.817662,18.9376782 39.9313088,17.4398486 39.9597205,17.0441893 C39.9597205,16.6767445 40.0735324,16.4221577 40.2729098,16.4221577 C40.5006989,16.4221577 40.5291105,16.6483659 40.5291105,16.8179811 C40.5291105,17.1288328 40.6145108,17.6375142 40.7568996,18.0615521 C41.2977128,19.842183 43.1761881,20.436 44.7418043,20.436 C46.904892,20.436 48.2141423,19.0792429 48.2141423,17.3834196 C48.2141423,16.3375142 47.9577764,15.2917729 45.7378653,13.9914448 L44.2862262,13.1433691 C41.3261245,11.4193312 40.3584752,9.80798738 40.3584752,7.68829022 C40.3584752,4.74873186 43.2047649,2.85491483 46.6771029,2.85491483 C48.2993774,2.85491483 49.5805464,3.08112303 50.2350064,3.25057413 C50.4627954,3.30700315 50.5764422,3.39181073 50.5764422,3.56158991 C50.5764422,3.87260568 50.4912071,4.55090221 50.4912071,6.44471924 C50.4912071,6.95340063 50.37723,7.20765931 50.1780178,7.20765931 C50.0072173,7.20765931 49.9219822,7.06642271 49.9219822,6.78378549 C49.9219822,6.55757729 49.8080051,5.8226877 49.2671919,5.20082019 C48.8971792,4.74873186 48.1004956,4.07043533 46.4777255,4.07043533 C44.6848158,4.07043533 43.0622109,5.00299054 43.0622109,6.64238486 C43.0622109,7.71666877 43.4606353,8.5644164 45.7091233,9.80815142 L46.7339263,10.3732618 C50.0354638,12.1824353 51.0602668,14.0196593 51.0602668,16.1961136 C51.0602668,17.9765804 50.3768996,19.4184732 48.555413,20.6902587 C47.3599746,21.5383344 45.7091233,21.6792429 44.3714612,21.6792429 C42.9201525,21.6794069 41.3829479,21.5384984 40.3014867,21.0577035 Z M55.2724651,10.1475457 C55.2724651,6.5013123 55.2724651,5.82285174 55.2442186,5.0595836 C55.18723,4.24005047 54.9310292,3.95724921 54.390216,3.78763407 C54.1056036,3.70266246 53.7924142,3.67477603 53.4793901,3.67477603 C53.2233545,3.67477603 53.0808005,3.61818297 53.0808005,3.39197476 C53.0808005,3.25073817 53.2800127,3.19414511 53.6786023,3.19414511 C54.6180051,3.19414511 56.3255146,3.25073817 57.0371283,3.25073817 C57.663507,3.25073817 59.2857814,3.19414511 60.2535959,3.19414511 C60.5666201,3.19414511 60.7659975,3.25073817 60.7659975,3.39197476 C60.7659975,3.61818297 60.6237738,3.67477603 60.3674079,3.67477603 C60.1113723,3.67477603 59.9121601,3.7028265 59.6275476,3.7595836 C58.9443456,3.87260568 58.7451334,4.21183596 58.6881449,5.05974763 C58.6313215,5.82285174 58.6313215,6.50147634 58.6313215,10.1477098 L58.6313215,14.3874322 C58.6313215,16.705123 58.6313215,18.6273186 58.7449682,19.6450095 C58.8303685,20.2949274 59.0013342,20.6623722 59.7411944,20.7753943 C60.0826302,20.8321514 60.6520203,20.8603659 61.022033,20.8603659 C61.3066455,20.8603659 61.4204574,21.0016025 61.4204574,21.1149527 C61.4204574,21.2844038 61.2212452,21.3692114 60.9364676,21.3692114 C59.2857814,21.3692114 57.5779416,21.2844038 56.8947395,21.2844038 C56.3255146,21.2844038 54.6178399,21.3692114 53.6216137,21.3692114 C53.3084244,21.3692114 53.1377891,21.2844038 53.1377891,21.1149527 C53.1377891,21.0017666 53.2231893,20.8603659 53.5362135,20.8603659 C53.9062262,20.8603659 54.1908386,20.8321514 54.4184625,20.7753943 C54.930864,20.6625363 55.0732529,20.323306 55.1584879,19.616795 C55.2721347,18.6274826 55.2721347,16.7052871 55.2721347,14.3875962 L55.2721347,10.1475457 L55.2724651,10.1475457 Z M67.2266836,18.0899306 C67.283507,19.9553691 67.5966963,20.5206435 68.080521,20.6904227 C68.5075222,20.8316593 68.9913469,20.8598738 69.3897713,20.8598738 C69.6743837,20.8598738 69.8167726,20.9730599 69.8167726,21.1144606 C69.8167726,21.3122902 69.5889835,21.3687192 69.2475476,21.3687192 C67.6252732,21.3687192 66.4579161,21.2839117 66.0026684,21.2839117 C65.7750445,21.2839117 64.5796061,21.3687192 63.2987675,21.3687192 C62.9571665,21.3687192 62.7295426,21.3406688 62.7295426,21.1144606 C62.7295426,20.973224 62.9003431,20.8598738 63.127967,20.8598738 C63.469568,20.8598738 63.9248158,20.8316593 64.2667471,20.7470158 C64.9212071,20.5774006 65.0066074,19.9271546 65.0350191,17.8355079 L65.2628081,3.58980442 C65.2628081,3.10933754 65.4334435,2.77010726 65.6898094,2.77010726 C66.0028335,2.77010726 66.3444346,3.13755205 66.7712706,3.56158991 C67.08446,3.87260568 70.8415756,7.68829022 74.4845489,11.2215016 C76.192554,12.8891104 79.5226684,16.2810852 79.8926811,16.6201514 L80.006493,16.6201514 L79.7499619,5.93570978 C79.7218806,4.4659306 79.4940915,4.04189274 78.8966201,3.81584858 C78.5266074,3.67461199 77.9284752,3.67461199 77.5870394,3.67461199 C77.2740152,3.67461199 77.1884498,3.56158991 77.1884498,3.42018927 C77.1884498,3.22235962 77.4446506,3.19398107 77.8146633,3.19398107 C79.1240788,3.19398107 80.4617408,3.25057413 81.0027192,3.25057413 C81.2873316,3.25057413 82.2264041,3.19398107 83.4504193,3.19398107 C83.7920203,3.19398107 84.019479,3.22219558 84.019479,3.42018927 C84.019479,3.56142587 83.8772554,3.67461199 83.5926429,3.67461199 C83.336277,3.67461199 83.13723,3.67461199 82.8240407,3.75941956 C82.1408386,3.95724921 81.9417916,4.38128707 81.9132147,5.73804416 L81.6286023,20.8882524 C81.6286023,21.4251483 81.4293901,21.6513565 81.2300127,21.6513565 C80.8031766,21.6513565 80.4617408,21.3969338 80.2053748,21.142347 C78.6397586,19.7009464 75.5088564,16.7331735 72.8906861,14.217489 C70.1582084,11.6169968 67.5111309,8.70548896 67.0269759,8.28161514 L66.9417408,8.28161514 L67.2266836,18.0899306 Z M88.4021474,10.1475457 C88.4021474,6.5013123 88.4021474,5.82285174 88.3734053,5.0595836 C88.316582,4.24005047 88.0889581,3.98562776 87.2917789,3.75941956 C87.0927319,3.70266246 86.6658958,3.67461199 86.2958831,3.67461199 C86.0395172,3.67461199 85.8688818,3.58964038 85.8688818,3.42018927 C85.8688818,3.25057413 86.068094,3.19398107 86.4381067,3.19398107 C87.7473571,3.19398107 89.341385,3.25057413 90.0528335,3.25057413 C90.8496823,3.25057413 96.3998729,3.27862461 96.8838628,3.25057413 C97.3392757,3.22219558 97.7378653,3.13755205 97.9369123,3.10933754 C98.0793011,3.08112303 98.2215248,2.99631546 98.3353367,2.99631546 C98.4777255,2.99631546 98.5061372,3.10933754 98.5061372,3.22235962 C98.5061372,3.39197476 98.3639136,3.67477603 98.3067598,4.77711041 C98.2785133,5.03153312 98.2213596,6.07743849 98.1647014,6.35991167 C98.1361245,6.47276972 98.0793011,6.75557098 97.8800889,6.75557098 C97.7092884,6.75557098 97.6805464,6.6425489 97.6805464,6.44471924 C97.6805464,6.2751041 97.6522999,5.85106625 97.5100762,5.56826498 C97.3105337,5.14439117 97.1114867,4.80532492 95.8590597,4.6921388 C95.4322236,4.6353817 92.4437103,4.57911672 91.9313088,4.57911672 C91.817662,4.57911672 91.7605083,4.66392429 91.7605083,4.80532492 L91.7605083,10.7408707 C91.7605083,10.8822713 91.7890851,10.9954574 91.9313088,10.9954574 C92.5005337,10.9954574 95.745413,10.9954574 96.3146379,10.9390284 C96.9124396,10.8822713 97.2822872,10.8258423 97.5100762,10.5715836 C97.7092884,10.4018044 97.7946887,10.2605678 97.9086658,10.2605678 C98.0223126,10.2605678 98.107878,10.3735899 98.107878,10.5151546 C98.107878,10.6563912 98.0505591,11.0520505 97.9086658,12.267571 C97.8513469,12.7482019 97.7946887,13.7091356 97.7946887,13.8785868 C97.7946887,14.0764164 97.7661118,14.4156467 97.5386531,14.4156467 C97.3678526,14.4156467 97.3105337,14.3306751 97.3105337,14.217817 C97.2822872,13.9632303 97.2822872,13.6525426 97.2252986,13.3413628 C97.083075,12.8608959 96.7697205,12.4934511 95.830648,12.4088076 C95.3752351,12.3520505 92.5289454,12.2956215 91.9030623,12.2956215 C91.7890851,12.2956215 91.7605083,12.4088076 91.7605083,12.5502082 L91.7605083,14.4722397 C91.7605083,15.2919369 91.7322618,17.3269905 91.7605083,18.0335016 C91.817662,19.6728959 92.5857687,20.0403407 95.1477764,20.0403407 C95.8024015,20.0403407 96.8554511,20.0121262 97.5102414,19.7293249 C98.1362897,19.4466877 98.4209022,18.9380063 98.5915375,17.948858 C98.6488564,17.6942713 98.7055146,17.5814132 98.8764803,17.5814132 C99.0756925,17.5814132 99.1042694,17.892429 99.1042694,18.1465237 C99.1042694,18.6835836 98.904892,20.323142 98.7625032,20.8036088 C98.5917027,21.4253123 98.364244,21.4253123 97.4248412,21.4253123 C95.5463659,21.4253123 94.0377382,21.3970978 92.8140534,21.3406688 C91.5900381,21.3122902 90.6506353,21.2839117 89.9107751,21.2839117 C89.6258323,21.2839117 89.0851842,21.3122902 88.4877128,21.3122902 C87.8899111,21.3406688 87.2636976,21.3687192 86.7512961,21.3687192 C86.4382719,21.3687192 86.2674714,21.2839117 86.2674714,21.1144606 C86.2674714,21.0012744 86.3528717,20.8598738 86.666061,20.8598738 C87.0359085,20.8598738 87.320521,20.8316593 87.54831,20.7749022 C88.0607116,20.6620442 88.20277,20.2099558 88.2881703,19.5029527 C88.4021474,18.4855899 88.4021474,16.5917729 88.4021474,14.3869401 L88.4021474,10.1475457 Z M102.234015,21.0577035 C101.835591,20.8882524 101.750025,20.7749022 101.750025,20.2380063 C101.750025,18.9376782 101.863837,17.4398486 101.892414,17.0441893 C101.892414,16.6767445 102.006061,16.4221577 102.205438,16.4221577 C102.433227,16.4221577 102.461639,16.6483659 102.461639,16.8179811 C102.461639,17.1288328 102.54737,17.6375142 102.689593,18.0615521 C103.230076,19.842183 105.108882,20.436 106.674168,20.436 C108.837421,20.436 110.146506,19.0792429 110.146506,17.3834196 C110.146506,16.3375142 109.89047,15.2917729 107.670394,13.9914448 L106.21892,13.1433691 C103.258818,11.4193312 102.290839,9.80798738 102.290839,7.68829022 C102.290839,4.74873186 105.137294,2.85491483 108.609797,2.85491483 C110.232071,2.85491483 111.51291,3.08112303 112.167535,3.25057413 C112.395324,3.30700315 112.509136,3.39181073 112.509136,3.56158991 C112.509136,3.87260568 112.423736,4.55090221 112.423736,6.44471924 C112.423736,6.95340063 112.309759,7.20765931 112.110546,7.20765931 C111.939911,7.20765931 111.854511,7.06642271 111.854511,6.78378549 C111.854511,6.55757729 111.740699,5.8226877 111.19972,5.20082019 C110.829873,4.74873186 110.032859,4.07043533 108.410419,4.07043533 C106.617179,4.07043533 104.99474,5.00299054 104.99474,6.64238486 C104.99474,7.71666877 105.393164,8.5644164 107.641817,9.80815142 L108.66629,10.3732618 C111.968158,12.1824353 112.99263,14.0196593 112.99263,16.1961136 C112.99263,17.9765804 112.309428,19.4184732 110.487942,20.6902587 C109.292503,21.5383344 107.641817,21.6792429 106.303825,21.6792429 C104.852516,21.6794069 103.315642,21.5384984 102.234015,21.0577035 Z M116.40798,21.0577035 C116.00972,20.8882524 115.924155,20.7749022 115.924155,20.2380063 C115.924155,18.9376782 116.037802,17.4398486 116.066379,17.0441893 C116.066379,16.6767445 116.180191,16.4221577 116.379568,16.4221577 C116.607192,16.4221577 116.635604,16.6483659 116.635604,16.8179811 C116.635604,17.1288328 116.721169,17.6375142 116.863393,18.0615521 C117.404041,19.842183 119.282681,20.436 120.848132,20.436 C123.011385,20.436 124.320635,19.0792429 124.320635,17.3834196 C124.320635,16.3375142 124.0646,15.2917729 121.844524,13.9914448 L120.392884,13.1433691 C117.432618,11.4193312 116.464968,9.80798738 116.464968,7.68829022 C116.464968,4.74873186 119.311258,2.85491483 122.783596,2.85491483 C124.406201,2.85491483 125.686874,3.08112303 126.34183,3.25057413 C126.569288,3.30700315 126.682935,3.39181073 126.682935,3.56158991 C126.682935,3.87260568 126.597535,4.55090221 126.597535,6.44471924 C126.597535,6.95340063 126.483723,7.20765931 126.284346,7.20765931 C126.113545,7.20765931 126.02831,7.06642271 126.02831,6.78378549 C126.02831,6.55757729 125.914333,5.8226877 125.37352,5.20082019 C125.003507,4.74873186 124.206823,4.07043533 122.584219,4.07043533 C120.791144,4.07043533 119.168704,5.00299054 119.168704,6.64238486 C119.168704,7.71666877 119.566963,8.5644164 121.815616,9.80815142 L122.840254,10.3732618 C126.141792,12.1824353 127.166595,14.0196593 127.166595,16.1961136 C127.166595,17.9765804 126.483227,19.4184732 124.661741,20.6902587 C123.466468,21.5383344 121.815616,21.6792429 120.477624,21.6792429 C119.02648,21.6794069 117.489441,21.5384984 116.40798,21.0577035 Z M4.04123253,38.3899432 C4.04123253,34.0934637 4.04123253,33.3021451 3.98424396,32.3978044 C3.9272554,31.4365426 3.64264295,30.9562397 3.01659466,30.8148391 C2.70340534,30.7298675 2.33339263,30.701653 1.9919568,30.701653 C1.70717916,30.701653 1.53654384,30.645224 1.53654384,30.4193438 C1.53654384,30.2495647 1.76416773,30.1929716 2.21958069,30.1929716 C3.30120712,30.1929716 5.09428208,30.2779432 5.91970775,30.2779432 C6.63132147,30.2779432 8.3105845,30.1929716 9.39204574,30.1929716 C9.76205845,30.1929716 9.98984752,30.2495647 9.98984752,30.4193438 C9.98984752,30.645224 9.81904701,30.701653 9.53443456,30.701653 C9.24965693,30.701653 9.02203304,30.7300315 8.68043202,30.7869527 C7.91199492,30.9278612 7.68420584,31.4086562 7.62738247,32.3979685 C7.5703939,33.3024732 7.5703939,34.0936278 7.5703939,38.3901073 L7.5703939,43.3645552 C7.5703939,46.1062839 7.5703939,48.3394953 7.68404066,49.5546877 C7.7696061,50.3177918 7.9688183,50.8264732 8.82282084,50.9396593 C9.22124524,50.9960883 9.8474587,51.0525174 10.2742948,51.0525174 C10.5874841,51.0525174 10.7297078,51.137489 10.7297078,51.2787256 C10.7297078,51.4765552 10.5020839,51.5613628 10.1890597,51.5613628 C8.31041931,51.5613628 6.51734435,51.4765552 5.74874206,51.4765552 C5.0941169,51.4765552 3.30104193,51.5613628 2.16242694,51.5613628 C1.79257942,51.5613628 1.59320203,51.4765552 1.59320203,51.2787256 C1.59320203,51.137489 1.70701398,51.0525174 2.04861499,51.0525174 C2.47561626,51.0525174 2.81721728,50.9959243 3.07341804,50.9396593 C3.64247776,50.8264732 3.81327827,50.3460063 3.89884371,49.5263091 C4.04106734,48.3394953 4.04106734,46.1061199 4.04106734,43.3645552 L4.04106734,38.3899432 L4.04123253,38.3899432 Z M18.5283863,48.2827382 C18.5853748,50.1481767 18.898399,50.7134511 19.3823888,50.8832303 C19.8092249,51.0244669 20.2932147,51.0526814 20.6916391,51.0526814 C20.9762516,51.0526814 21.1186404,51.1657035 21.1186404,51.3072681 C21.1186404,51.5050978 20.8910165,51.5615268 20.5494155,51.5615268 C18.927141,51.5615268 17.7601144,51.4767192 17.3045362,51.4767192 C17.0769123,51.4767192 15.881474,51.5615268 14.6006353,51.5615268 C14.2590343,51.5615268 14.0314104,51.5331483 14.0314104,51.3072681 C14.0314104,51.1658675 14.2022109,51.0526814 14.4298348,51.0526814 C14.7714358,51.0526814 15.2268488,51.0244669 15.5684498,50.9398233 C16.223075,50.7702082 16.3084752,50.1202902 16.3368869,48.0284795 L16.564676,33.782776 C16.564676,33.3023091 16.7353113,32.9632429 16.9915121,32.9632429 C17.3047014,32.9632429 17.6461372,33.3305237 18.0731385,33.7543975 C18.3863278,34.0654132 22.1434435,37.8810978 25.786582,41.4143091 C27.4944219,43.081918 30.8245362,46.4737287 31.1945489,46.812959 L31.3081957,46.812959 L31.0521601,36.1285174 C31.0235832,34.6587382 30.7959593,34.2348644 30.1981576,34.0084921 C29.8281449,33.8675836 29.2305083,33.8675836 28.8887421,33.8675836 C28.5757179,33.8675836 28.4903177,33.7543975 28.4903177,33.6129968 C28.4903177,33.4151672 28.7466836,33.3867886 29.1165311,33.3867886 C30.4259466,33.3867886 31.7636086,33.4435457 32.3044219,33.4435457 C32.5891995,33.4435457 33.5282719,33.3867886 34.7524524,33.3867886 C35.0938882,33.3867886 35.3215121,33.4151672 35.3215121,33.6129968 C35.3215121,33.7542334 35.1791233,33.8675836 34.8945108,33.8675836 C34.6381449,33.8675836 34.4390978,33.8675836 34.1259085,33.9522271 C33.4428717,34.1502208 33.2436595,34.5742587 33.2150826,35.9308517 L32.930305,51.0810599 C32.930305,51.6179558 32.7312579,51.844164 32.5320457,51.844164 C32.1050445,51.844164 31.7636086,51.5899054 31.5072427,51.3351546 C29.9419568,49.8937539 26.8108895,46.9259811 24.1923888,44.4102965 C21.4600762,41.8099685 18.8129987,38.8984606 18.3290089,38.4745868 L18.2436086,38.4745868 L18.5283863,48.2827382 Z M40.7281576,51.2506751 C40.3298983,51.0810599 40.2443329,50.9677098 40.2443329,50.4308139 C40.2443329,49.1306498 40.3581449,47.6328202 40.3865565,47.2369968 C40.3865565,46.8697161 40.5003685,46.6151293 40.6997459,46.6151293 C40.9273698,46.6151293 40.9559466,46.8411735 40.9559466,47.0107886 C40.9559466,47.3218044 41.0413469,47.8306498 41.1835705,48.2545237 C41.7242186,50.0351546 43.602859,50.6286435 45.1684752,50.6286435 C47.3315629,50.6286435 48.6408132,49.2720505 48.6408132,47.5760631 C48.6408132,46.5304858 48.3846125,45.4845804 46.1647014,44.1844164 L44.7128971,43.3365047 C41.7527954,41.6119748 40.7851461,40.001123 40.7851461,37.8810978 C40.7851461,34.9415394 43.6312706,33.0477224 47.1037738,33.0477224 C48.7262135,33.0477224 50.0070521,33.2737666 50.6616773,33.4435457 C50.8894663,33.5001388 51.0032783,33.5847823 51.0032783,33.7543975 C51.0032783,34.0654132 50.9177128,34.7435457 50.9177128,36.6375268 C50.9177128,37.1463722 50.8040661,37.4004669 50.6045235,37.4004669 C50.4338882,37.4004669 50.3483227,37.2592303 50.3483227,36.9765931 C50.3483227,36.7505489 50.234676,36.0158233 49.6936976,35.3937918 C49.3236849,34.9415394 48.5268361,34.2632429 46.9043964,34.2632429 C45.1113215,34.2632429 43.4888818,35.1959621 43.4888818,36.8353565 C43.4888818,37.9094763 43.8873062,38.7575521 46.135629,40.001123 L47.160432,40.5663975 C50.4621347,42.3752429 51.4866074,44.2126309 51.4866074,46.3889211 C51.4866074,48.1697161 50.8035705,49.6112808 48.9820839,50.8830662 C47.7866455,51.7309779 46.135629,51.8723785 44.797967,51.8723785 C43.3471537,51.8725426 41.8099492,51.731142 40.7281576,51.2506751 Z M58.0901779,40.3400252 C58.0901779,36.6937918 58.0901779,36.0158233 58.0619314,35.2523912 C58.0049428,34.432858 57.7487421,34.1500568 57.2079288,33.9804416 C56.9233164,33.8956341 56.6101271,33.8675836 56.2971029,33.8675836 C56.040737,33.8675836 55.8985133,33.8108265 55.8985133,33.5847823 C55.8985133,33.4435457 56.0977255,33.3867886 56.4963151,33.3867886 C57.4357179,33.3867886 59.1432274,33.4435457 59.8548412,33.4435457 C60.4812198,33.4435457 62.1033291,33.3867886 63.0713088,33.3867886 C63.3843329,33.3867886 63.5837103,33.4435457 63.5837103,33.5847823 C63.5837103,33.8108265 63.4414867,33.8675836 63.1851207,33.8675836 C62.9290851,33.8675836 62.7298729,33.8957981 62.4452605,33.9522271 C61.7620584,34.0654132 61.5628463,34.4046435 61.5058577,35.2525552 C61.4490343,36.0158233 61.4490343,36.6939558 61.4490343,40.3401893 L61.4490343,44.5802397 C61.4490343,46.8980946 61.4490343,48.8201262 61.5626811,49.837653 C61.6480813,50.4878991 61.819047,50.8551798 62.5589072,50.9680379 C62.9003431,51.024795 63.4697332,51.0530095 63.8397459,51.0530095 C64.1243583,51.0530095 64.2380051,51.1942461 64.2380051,51.3075962 C64.2380051,51.4770473 64.0389581,51.5618549 63.7541804,51.5618549 C62.1033291,51.5618549 60.3956544,51.4770473 59.7124524,51.4770473 C59.1432274,51.4770473 57.4355527,51.5618549 56.4393266,51.5618549 C56.1261372,51.5618549 55.9553367,51.4770473 55.9553367,51.3075962 C55.9553367,51.1944101 56.040737,51.0530095 56.3539263,51.0530095 C56.723939,51.0530095 57.0083863,51.024795 57.2361753,50.9680379 C57.7485769,50.8551798 57.8909657,50.5159495 57.9762008,49.8094385 C58.0898475,48.8202902 58.0898475,46.8982587 58.0898475,44.5804038 L58.0898475,40.3400252 L58.0901779,40.3400252 Z M74.2283482,42.9969464 C74.2283482,45.5410095 74.2567598,47.3782334 74.2853367,47.8587003 C74.3135832,48.4523533 74.3710673,49.300265 74.5699492,49.5546877 C74.8831385,50.0069401 75.8791995,50.5156215 77.843075,50.5156215 C80.1199746,50.5156215 81.7994028,50.1201262 83.3080305,48.8762271 C84.930305,47.5478486 85.4428717,45.3996088 85.4428717,42.9124669 C85.4428717,39.8598864 84.2188564,37.8810978 83.1088183,36.9203281 C80.8031766,34.8851104 78.070864,34.6308517 76.1069886,34.6308517 C75.5942567,34.6308517 74.7689962,34.6872808 74.569784,34.8003028 C74.3421601,34.8851104 74.2565947,34.9982965 74.2565947,35.2807697 C74.228183,36.1006309 74.228183,38.0792555 74.228183,39.9727445 L74.228183,42.9969464 L74.2283482,42.9969464 Z M70.8698221,40.3400252 C70.8698221,36.6937918 70.8698221,36.0158233 70.8410801,35.2523912 C70.7840915,34.432858 70.5564676,34.1782713 69.7596188,33.9520631 C69.5602414,33.8956341 69.1332402,33.8674196 68.7633926,33.8674196 C68.5071919,33.8674196 68.3365565,33.7824479 68.3365565,33.6128328 C68.3365565,33.4433817 68.5357687,33.3866246 68.9057814,33.3866246 C70.215197,33.3866246 71.8088945,33.4433817 72.5206734,33.4433817 C73.2889454,33.4433817 75.0823507,33.3866246 76.5909784,33.3866246 C79.7217154,33.3866246 83.9340788,33.3866246 86.6665565,36.1283533 C87.9189835,37.3722524 89.0290216,39.3789274 89.0290216,42.2340063 C89.0290216,45.2585363 87.7197713,47.5478486 86.2965438,48.9328202 C85.158094,50.063205 82.5108513,51.7591924 77.8998983,51.7591924 C76.9890724,51.7591924 75.9076112,51.6743849 74.9115502,51.6177918 C73.915324,51.5328202 73.0043329,51.4765552 72.3782846,51.4765552 C72.093507,51.4765552 71.5526938,51.5049338 70.9552224,51.5049338 C70.3575858,51.5329842 69.7312071,51.5613628 69.2186404,51.5613628 C68.9057814,51.5613628 68.7349809,51.4765552 68.7349809,51.3071041 C68.7349809,51.193918 68.8203812,51.0525174 69.1332402,51.0525174 C69.5032529,51.0525174 69.7880305,51.0243028 70.0158196,50.9675457 C70.5282211,50.8546877 70.6704447,50.4025994 70.755845,49.6957603 C70.8696569,48.6783975 70.8696569,46.7845804 70.8696569,44.5797476 L70.8696569,40.3400252 L70.8698221,40.3400252 Z M95.4320584,40.3400252 C95.4320584,36.6937918 95.4320584,36.0158233 95.4036468,35.2523912 C95.3466582,34.432858 95.1191995,34.1782713 94.3220203,33.9520631 C94.1229733,33.8956341 93.6958069,33.8674196 93.3257942,33.8674196 C93.0699238,33.8674196 92.8989581,33.7824479 92.8989581,33.6128328 C92.8989581,33.4433817 93.0983355,33.3866246 93.468183,33.3866246 C94.7775985,33.3866246 96.3712961,33.4433817 97.083075,33.4433817 C97.8799238,33.4433817 103.430114,33.4714322 103.914104,33.4433817 C104.369682,33.4150032 104.767942,33.3303596 104.967154,33.3021451 C105.109708,33.2736025 105.251766,33.188959 105.365743,33.188959 C105.507967,33.188959 105.536544,33.3021451 105.536544,33.4151672 C105.536544,33.5847823 105.39432,33.8675836 105.337166,34.969918 C105.30892,35.2241767 105.251601,36.270082 105.194943,36.5525552 C105.166531,36.6655773 105.109708,36.9483785 104.91033,36.9483785 C104.739695,36.9483785 104.710953,36.8353565 104.710953,36.6373628 C104.710953,36.4679117 104.682376,36.0438738 104.540318,35.7610726 C104.34094,35.3371987 104.141728,34.9981325 102.889466,34.8847823 C102.462465,34.8281893 99.4739517,34.7719243 98.9615502,34.7719243 C98.8479034,34.7719243 98.7909149,34.8565678 98.7909149,34.9981325 L98.7909149,40.9338423 C98.7909149,41.0750789 98.8193266,41.1881009 98.9615502,41.1881009 C99.5307751,41.1881009 102.775654,41.1881009 103.345044,41.1316719 C103.942516,41.0750789 104.312529,41.0186498 104.540318,40.7643912 C104.739695,40.594776 104.82493,40.4533754 104.939072,40.4533754 C105.052719,40.4533754 105.138119,40.5663975 105.138119,40.7076341 C105.138119,40.8490347 105.080966,41.24453 104.939072,42.4602145 C104.881588,42.9408454 104.82493,43.9017792 104.82493,44.0713943 C104.82493,44.2690599 104.796518,44.6084543 104.56906,44.6084543 C104.398094,44.6084543 104.34094,44.5236467 104.34094,44.4104606 C104.312529,44.1562019 104.312529,43.8453502 104.255705,43.5343344 C104.113482,43.0537035 103.800127,42.6862587 102.861055,42.6014511 C102.405807,42.544858 99.559352,42.488429 98.9334689,42.488429 C98.8193266,42.488429 98.7909149,42.6014511 98.7909149,42.7428517 L98.7909149,44.6648833 C98.7909149,45.4845804 98.7625032,47.5196341 98.7909149,48.2263091 C98.8480686,49.8655394 99.6161753,50.2329842 102.178183,50.2329842 C102.832478,50.2329842 103.885858,50.2047697 104.540483,49.9219685 C105.166696,49.6396593 105.451639,49.1306498 105.621944,48.1415016 C105.679098,47.8870789 105.735756,47.7742208 105.906887,47.7742208 C106.105934,47.7742208 106.134676,48.0850726 106.134676,48.3394953 C106.134676,48.8760631 105.935299,50.5156215 105.792745,50.9959243 C105.622109,51.6177918 105.394651,51.6177918 104.455413,51.6177918 C102.576773,51.6177918 101.068145,51.5897413 99.84446,51.5328202 C98.6204447,51.5047697 97.6808767,51.4763912 96.9411817,51.4763912 C96.6562389,51.4763912 96.1155909,51.5047697 95.5181194,51.5047697 C94.9204828,51.5328202 94.2942694,51.5611987 93.7813723,51.5611987 C93.4686785,51.5611987 93.2980432,51.4763912 93.2980432,51.3069401 C93.2980432,51.1937539 93.3832783,51.0523533 93.6961372,51.0523533 C94.0661499,51.0523533 94.3510928,51.0241388 94.5785515,50.9673817 C95.090953,50.8545237 95.2331766,50.4024353 95.3185769,49.6955962 C95.4323888,48.6783975 95.4323888,46.7845804 95.4323888,44.5797476 L95.4320584,40.3400252 Z M115.640368,42.2057918 C115.640368,42.4600505 115.697192,42.544858 115.867992,42.6296656 C116.40864,42.7994448 117.148666,42.8558738 117.77521,42.8558738 C118.771271,42.8558738 119.112706,42.7710662 119.539543,42.4600505 C120.30831,41.9231546 121.162147,40.8772492 121.162147,38.8986246 C121.162147,35.5068139 118.828094,34.6306877 117.347878,34.6306877 C116.721995,34.6306877 116.124193,34.6587382 115.867992,34.7154953 C115.697192,34.7720883 115.640368,34.8565678 115.640368,35.0545615 L115.640368,42.2057918 Z M112.452478,40.3400252 C112.452478,36.6937918 112.452478,36.0158233 112.423901,35.2523912 C112.366912,34.432858 112.139288,34.1782713 111.342109,33.9520631 C111.142897,33.8956341 110.716226,33.8674196 110.346213,33.8674196 C110.090013,33.8674196 109.919377,33.7824479 109.919377,33.6128328 C109.919377,33.4433817 110.11859,33.3866246 110.488437,33.3866246 C111.797687,33.3866246 113.391715,33.4433817 113.903952,33.4433817 C114.757789,33.4433817 117.035019,33.3866246 117.803291,33.3866246 C119.397319,33.3866246 121.218971,33.5281893 122.556633,34.4043155 C123.268247,34.8847823 124.321461,36.1003028 124.321461,37.7113186 C124.321461,39.4921136 123.296658,41.0749148 120.848958,43.0251609 C123.069034,45.738511 124.833698,47.9152934 126.342325,49.413123 C127.736976,50.7979306 128.619225,50.9111167 129.017814,50.9957603 C129.274015,51.0523533 129.416239,51.0523533 129.615451,51.0523533 C129.814663,51.0523533 129.92864,51.1935899 129.92864,51.3069401 C129.92864,51.5047697 129.75784,51.5611987 129.444651,51.5611987 L127.053939,51.5611987 C125.659123,51.5611987 124.976086,51.4199621 124.321461,51.0807319 C123.23967,50.543836 122.300762,49.413123 120.905947,47.5476845 C119.90939,46.2473565 118.856671,44.6361767 118.543316,44.2687319 C118.401093,44.1274953 118.258374,44.0992808 118.087738,44.0992808 L115.839416,44.0428517 C115.725604,44.0428517 115.640203,44.0992808 115.640203,44.2406814 L115.640203,44.5797476 C115.640203,46.8126309 115.66845,48.6782334 115.782427,49.6957603 C115.867827,50.4025994 115.981639,50.8546877 116.750076,50.9675457 C117.120089,51.0243028 117.660902,51.0525174 117.973926,51.0525174 C118.173139,51.0525174 118.287116,51.1937539 118.287116,51.3071041 C118.287116,51.4765552 118.087738,51.5613628 117.774879,51.5613628 C116.323075,51.5613628 114.245222,51.4765552 113.875375,51.4765552 C113.39155,51.4765552 111.797522,51.5613628 110.801296,51.5613628 C110.488272,51.5613628 110.317471,51.4765552 110.317471,51.3071041 C110.317471,51.193918 110.402872,51.0525174 110.716061,51.0525174 C111.085909,51.0525174 111.370686,51.0243028 111.59831,50.9675457 C112.110877,50.8546877 112.25277,50.4025994 112.33817,49.6957603 C112.452147,48.6783975 112.452147,46.7845804 112.452147,44.5797476 L112.452147,40.3400252 L112.452478,40.3400252 Z" id="Shape"></path>
                    </g>
                </g>
            </g>
        </g>
    </g>
</svg>