<?xml version="1.0" encoding="UTF-8"?>
<svg width="110px" height="42px" viewBox="0 0 110 42" version="1.1" xmlns="http://www.w3.org/2000/svg" xmlns:xlink="http://www.w3.org/1999/xlink">
    <!-- Generator: Sketch 52.4 (67378) - http://www.bohemiancoding.com/sketch -->
    <title>Marriott_Logo</title>
    <desc>Created with Sketch.</desc>
    <g id="Homepage" stroke="none" stroke-width="1" fill="none" fill-rule="evenodd">
        <g transform="translate(-1073.000000, -1178.000000)" fill="#FFFFFF" id="Logos-Section">
            <g transform="translate(252.000000, 1037.000000)">
                <g id="Logos" transform="translate(11.000000, 135.000000)">
                    <g id="Marriott_Logo" transform="translate(810.000000, 6.000000)">
                        <path d="M101.584808,37.3066062 C100.208546,36.5939323 99.9944683,34.5802292 100.025043,29.6824523 L100.055632,22.1765662 L97.4254501,22.1735323 L98.037123,20.7845692 L100.055632,20.7845692 L100.055632,17.2302723 L104.887811,15.4531154 L104.887811,20.6662892 L107.120411,20.6693215 L106.539312,22.2099308 L104.887811,22.2068969 L104.887811,35.1958554 C104.979563,36.2421369 105.346569,36.8577631 105.835901,37.3066062 L101.584808,37.3066062" id="path13762"></path>
                        <path d="M53.9663863,5.21175385 C54.3333938,6.21557077 55.1897182,7.25275538 54.5780592,8.41730462 C54.3028048,9.60005231 53.1712104,10.5583723 51.9784676,10.7494354 C50.7245467,10.8616354 49.5623633,10.6523877 48.6142874,9.90331538 C47.9720255,6.48851692 49.3788743,3.32846462 52.1007925,1.44517538 L53.9663863,5.21175385" id="path13766"></path>
                        <path d="M64.2730062,12.25668 C67.0866774,8.02607846 64.7317496,1.08428154 58.6456513,0.110795385 L64.2730062,12.25668" id="path13784"></path>
                        <path d="M63.6613333,21.3638108 C64.5482606,20.6238385 66.108011,20.6086723 67.1172649,21.0817662 C67.5454348,21.2940615 67.9430158,21.5760923 68.2182718,21.9460846 L66.2609265,24.9545062 C66.0162595,24.7604092 65.8327566,24.6724615 65.5269271,24.5147631 C64.5482606,24.0992862 63.5390068,24.3419 62.9579228,24.8665585 L62.9579228,33.64616 C62.9273339,35.1655369 63.2025898,36.5514677 63.9977518,37.2702215 L59.5631537,37.2702215 C58.6150623,36.5666323 58.4009843,35.4415154 58.3092329,34.4558815 L58.2786439,22.7800723 C58.3092329,21.8338708 58.0645659,21.4183938 57.6975599,20.8876831 L62.2850859,20.9058692 C62.6520794,21.1697138 62.6826684,21.6276569 62.8661714,21.9794508 L63.6613333,21.3638108" id="path13790"></path>
                        <path d="M69.2580992,24.2509185 C69.2275257,23.1409662 69.4721911,21.8126523 68.7381932,20.8543185 L72.9892867,20.8543185 C73.2951162,21.0666138 73.4480317,21.4183938 73.5397832,21.7519892 C73.7844487,22.0492 73.7538752,22.4737769 73.8456267,22.8255569 L73.9067891,35.2656185 C74.0597047,36.0055908 74.3655341,36.7516292 74.916043,37.3339046 L70.3591061,37.3430031 C68.8605182,35.9115754 69.3498522,33.5582123 69.2275257,31.1290323 L69.2580992,24.2509185" id="path13792"></path>
                        <path d="M76.0170499,24.3722323 C76.4757934,23.1076015 77.9132172,22.4737769 78.9530601,21.7853538 C80.5433994,21.2061123 82.3172402,19.7625523 84.0910685,20.9422677 C85.5896549,21.9096862 86.9047537,23.0014538 87.8528296,24.4965646 C88.0669216,25.0758062 88.1892481,25.7278292 88.3421776,26.3434692 C88.3421776,27.1713908 88.5256666,27.7870308 88.4950915,28.6149508 C88.5562556,29.5126215 88.5562556,30.3223431 88.4950915,31.2018292 C88.4339291,32.69694 87.7305047,34.0343385 86.5377463,35.0715215 C84.7639039,36.6394154 82.5313182,38.4165708 80.1152295,37.2004569 C77.9438062,36.19664 75.405377,34.2102354 75.558291,31.4808262 C75.4665395,29.5459723 75.374788,27.8749785 75.6500425,25.9916754 C75.7417939,25.4457985 75.7112065,24.8483585 76.0170499,24.3722323 Z M80.451648,33.1700338 C80.6657244,33.9464046 81.0633209,34.8956246 82.0113968,35.0017723 C82.5619072,35.0199723 82.9594882,34.5620292 83.2959066,34.1738523 C84.2745715,32.2389985 84.1216575,30.1282477 84.1216575,27.9265292 C83.8158281,26.29192 84.213409,24.0568354 82.4395667,23.0530185 C81.7973188,22.8255569 81.3385614,23.2471 80.9409804,23.6352923 C80.237556,24.6724615 80.176392,25.8612769 80.1152295,27.1804908 C79.9011375,29.2912415 80.145803,31.0410831 80.451648,33.1700338 Z" id="path13794" fill-rule="nonzero"></path>
                        <path d="M91.6451797,37.3066062 C90.2689339,36.5939323 90.0548419,34.5802292 90.0854309,29.6824523 L90.1160044,22.1765662 L87.5164267,22.1735323 L88.0975106,20.7845692 L90.1160044,20.7845692 L90.1160044,17.2302723 L94.9787724,15.4531154 L94.9787724,20.6662892 L97.1807846,20.6693215 L96.5996992,22.2099308 L94.9787724,22.2068969 L94.9787724,35.1958554 C95.0705238,36.2421369 95.4375313,36.8577631 95.9268638,37.3066062 L91.6451797,37.3066062" id="path13796"></path>
                        <path d="M47.3603666,22.7800723 C47.3297776,21.8338708 47.1462746,21.4183938 46.7792811,20.8876831 L51.3667946,20.9058692 C51.7337866,21.1697138 51.7643756,21.6276569 51.9478786,21.9794508 L52.7430405,21.3638108 C53.6299694,20.6238385 55.1897182,20.6086723 56.1989736,21.0817662 C56.627142,21.2940615 57.024723,21.5760923 57.299979,21.9460846 L55.3426337,24.9545062 C55.0979667,24.7604092 54.9144777,24.6724615 54.6086343,24.5147631 C53.6299694,24.0992862 52.620714,24.3419 52.03963,24.8665585 L52.03963,33.64616 C52.009041,35.1655369 52.284297,36.5514677 53.079459,37.2702215 L48.6448609,37.2702215 C47.7273585,36.5666323 47.4521181,35.5203646 47.3909401,34.4558815 L47.3603666,22.7800723" id="path13798"></path>
                        <path d="M12.5869944,27.3988385 L10.9354786,30.8075692 C9.77330917,32.81824 8.18297137,35.2838031 5.73629365,35.8964092 C4.78821622,36.2239385 3.9318763,35.9267415 3.01437391,35.8630446 L0.0477747532,40.6698538 C0.292441749,40.9064 0.59828519,41.1035154 0.904114669,41.2187631 C6.10329958,43.1900015 8.21356037,41.0701646 13.3209938,29.5732708 L18.1837618,39.8146338 L24.6368676,39.8146338 L21.5785169,32.9031554 L23.3217842,29.3306585 L28.0927992,39.6569369 L34.2706505,39.6963538 L23.4441092,16.1385046 L18.4590162,18.5919369 L22.3736928,27.3836723 L20.661013,30.8379015 L13.5044968,15.5289323 L8.27472285,18.1794923 L12.5869944,27.3988385" id="path13800"></path>
                        <path d="M32.4356457,31.5536092 C32.5579722,29.8462169 33.5060636,28.2449585 35.0964014,27.3836723 C36.6867408,26.4132185 38.5217456,26.0280738 40.1732458,25.1819538 C40.4485018,24.9545062 40.7849203,24.6724615 40.8155078,24.3024815 C40.8460828,23.84454 40.6014158,23.4927462 40.2038348,23.3350477 C37.6959946,22.8073708 35.6468979,24.3540323 33.8424805,25.8855415 C34.0565585,24.7604092 34.2400615,23.5291446 34.7905719,22.4737769 C35.0352389,22.1917323 35.2187419,21.8035538 35.5551604,21.5942908 C37.3289872,20.7299862 39.5309994,20.48434 41.4883447,20.6238385 C43.1092575,20.7299862 44.6078594,21.8733031 45.1583543,23.3350477 C45.4336087,24.0204369 45.4030213,24.7968077 45.4641838,25.5003831 L45.4947728,35.0381569 C45.4947728,35.8630446 45.8923537,36.6394154 46.3816862,37.3066062 L41.7941742,37.3066062 C41.2436777,36.8153123 40.9684233,36.19664 40.8155078,35.4233154 C39.5309994,36.5514677 36.8396547,38.2224754 35.2493154,37.1125092 C33.5978151,36.3755692 32.0686382,33.8918062 32.4356457,31.5536092 Z M40.5708423,28.2358585 C40.5402533,27.5747354 40.0815099,27.5049862 39.7450914,27.5049862 C38.644086,27.6626831 37.6959946,28.57552 37.1454982,29.5126215 C36.6867408,30.3466092 36.5644142,31.0501831 36.5338252,31.7810708 C36.5338252,32.56956 36.4726628,33.1548677 36.8090797,33.7523077 C36.9925687,34.1404862 37.3595762,34.3163831 37.7571571,34.4194985 C38.4605815,34.5620292 39.1028295,34.3679338 39.6533399,33.9979538 C40.9684233,33.2761815 40.7237563,31.83262 40.7543453,30.5497908 L40.5708423,28.2358585 Z" id="path13802" fill-rule="nonzero"></path>
                        <path d="M106.416987,35.8782108 C106.416987,34.9016908 107.21215,34.1829508 108.160245,34.1829508 C109.108324,34.1829508 109.903489,34.9016908 109.903489,35.8782108 C109.903489,36.8607969 109.108324,37.5795508 108.160245,37.5795508 C107.21215,37.5795508 106.416987,36.8607969 106.416987,35.8782108 Z M108.160245,37.2975062 C108.95541,37.2975062 109.567081,36.6970323 109.567081,35.8782108 C109.567081,35.0745554 108.95541,34.4649815 108.160245,34.4649815 C107.395659,34.4649815 106.753408,35.0745554 106.753408,35.8782108 C106.753408,36.6970323 107.395659,37.2975062 108.160245,37.2975062 Z M107.793242,36.8607969 L107.517994,36.8607969 L107.517994,34.9016908 L108.251984,34.9016908 C108.710757,34.9016908 108.95541,35.0745554 108.95541,35.4597 C108.95541,35.8114938 108.741321,35.9631262 108.435493,35.9995246 L109.016584,36.8607969 L108.680161,36.8607969 L108.160245,36.0116569 L107.793242,36.0116569 L107.793242,36.8607969 Z M108.160245,35.7599446 C108.404913,35.7599446 108.649566,35.7417446 108.649566,35.4415154 C108.649566,35.1988877 108.435493,35.1534046 108.221404,35.1534046 L107.793242,35.1534046 L107.793242,35.7599446 L108.160245,35.7599446 Z" id="path13842" fill-rule="nonzero"></path>
                    </g>
                </g>
            </g>
        </g>
    </g>
</svg>