<?xml version="1.0" encoding="UTF-8"?>
<svg width="50px" height="50px" viewBox="0 0 50 50" version="1.1" xmlns="http://www.w3.org/2000/svg" xmlns:xlink="http://www.w3.org/1999/xlink">
    <!-- Generator: Sketch 52.4 (67378) - http://www.bohemiancoding.com/sketch -->
    <title>Mercedes-Benz_free_logo</title>
    <desc>Created with Sketch.</desc>
    <g id="Homepage" stroke="none" stroke-width="1" fill="none" fill-rule="evenodd">
        <g transform="translate(-973.000000, -1174.000000)" fill="#FFFFFF" id="Logos-Section">
            <g transform="translate(252.000000, 1037.000000)">
                <g id="Logos" transform="translate(11.000000, 135.000000)">
                    <g id="Mercedes-Benz_free_logo" transform="translate(710.000000, 2.000000)">
                        <path d="M36.6026118,2.83486842 C44.5624803,7.02105263 49.9999803,15.3671053 49.9999803,24.9875 C49.9999803,34.6078947 44.5624803,42.9802632 36.6026118,47.1407895 L36.6026118,44.2802632 C39.6466908,42.4592105 42.2216908,39.9111842 44.095375,36.8953947 L36.6026118,33.8539474 L36.6026118,29.2256579 L44.8230066,35.6480263 C46.5401118,32.4756579 47.5026118,28.8611842 47.5026118,24.9868421 C47.5026118,16.8223684 43.1315592,9.64671053 36.6026118,5.69407895 L36.6026118,2.83486842 Z M25.0263158,0.000657894737 C29.1888158,0.000657894737 33.1164276,1.01513158 36.6026118,2.83486842 L36.6026118,5.69539474 C33.4026118,3.77039474 29.6565789,2.62697368 25.7026316,2.49671053 L28.5638158,22.9598684 L36.6026118,29.2263158 L36.6026118,33.8546053 L24.9736842,29.1480263 L13.4230263,33.8802632 L13.4230263,29.2776316 L21.5138158,22.9592105 L24.3493421,2.49605263 C20.3427632,2.62631579 16.6230263,3.77039474 13.4230263,5.69407895 L13.4230263,2.83486842 C16.8835526,1.01513158 20.8375,0.000657894737 25.0263158,0.000657894737 Z M36.6026118,47.1407895 C33.1164276,48.9605263 29.1881579,50 25.0263158,50 C20.8381579,50 16.8842105,48.9605263 13.4236842,47.1664474 L13.4236842,44.2802632 C16.8059211,46.3335526 20.7855263,47.5039474 25.0263158,47.5039474 C29.2407895,47.5039474 33.195375,46.3335526 36.6026118,44.2802632 L36.6026118,47.1407895 Z M13.4236842,47.1664474 C5.43684211,42.9802632 0,34.6078947 0,24.9875 C0,15.3671053 5.43684211,7.02105263 13.4236842,2.83486842 L13.4236842,5.69539474 C6.86776316,9.64736842 2.49736842,16.7973684 2.49736842,24.9875 C2.49736842,28.8611842 3.48618421,32.5282895 5.20328947,35.7 L13.4236842,29.2776316 L13.4236842,33.8802632 L5.95723684,36.9473684 C7.83026316,39.9388158 10.3796053,42.4598684 13.4236842,44.2802632 L13.4236842,47.1664474 Z" id="path3524"></path>
                    </g>
                </g>
            </g>
        </g>
    </g>
</svg>