<?xml version="1.0" encoding="UTF-8"?>
<svg width="90px" height="41px" viewBox="0 0 90 41" version="1.1" xmlns="http://www.w3.org/2000/svg" xmlns:xlink="http://www.w3.org/1999/xlink">
    <!-- Generator: Sketch 52.4 (67378) - http://www.bohemiancoding.com/sketch -->
    <title>TheNorthFace_logo</title>
    <desc>Created with Sketch.</desc>
    <g id="Homepage" stroke="none" stroke-width="1" fill="none" fill-rule="evenodd">
        <g transform="translate(-693.000000, -1178.000000)" id="Logos-Section">
            <g transform="translate(252.000000, 1037.000000)">
                <g id="Logos" transform="translate(11.000000, 135.000000)">
                    <g id="TheNorthFace_logo" transform="translate(430.000000, 6.000000)">
                        <path d="M59.8813636,40.4999344 L89.3310682,40.502018 L89.3310682,29.6175934 C89.3310682,13.5470049 76.1926364,0.516263934 59.8951364,0.516263934 L59.8813636,0.515995082 L59.8813636,40.4999344 Z" id="_54807896" fill="#FFFFFF"></path>
                        <polygon id="_54807176" fill="#FFFFFF" points="32.7905455 13.0437803 30.1423636 13.0437803 30.1423636 2.75708197 26.3087045 2.75708197 26.3087045 0.54724918 36.6242045 0.54724918 36.6242045 2.75708197 32.7905455 2.75708197"></polygon>
                        <polygon id="_54806200" fill="#FFFFFF" points="39.9601364 7.43813934 39.9601364 13.0437803 37.3118864 13.0437803 37.3118864 0.54724918 39.9601364 0.54724918 39.9601364 5.28342131 44.9006591 5.28342131 44.9006591 0.54724918 47.5510227 0.54724918 47.5510227 13.0437803 44.9006591 13.0437803 44.9006591 7.43813934"></polygon>
                        <polygon id="_54805224" fill="#FFFFFF" points="58.1481818 2.75708197 51.4860682 2.75708197 51.4860682 5.38612295 57.3525 5.38612295 57.3525 7.59595574 51.4860682 7.59595574 51.4860682 10.8338803 58.1631818 10.8338803 58.1631818 13.0437803 49.0190455 13.0437803 49.0190455 0.54724918 58.1481818 0.54724918"></polygon>
                        <polygon id="_54804504" fill="#FFFFFF" points="8.37184091 14.2784852 10.8477273 14.2784852 10.8477273 26.7740754 8.19736364 26.7740754 3.02502273 17.8639689 2.98738636 17.8639689 2.98738636 26.7740754 0.516068182 26.7740754 0.516068182 14.2784852 3.30334091 14.2784852 8.33638636 22.9798951 8.37184091 22.9798951"></polygon>
                        <path d="M18.2382273,24.8948639 C19.6673864,24.8948639 21.6773864,24.0245885 21.6773864,20.5261459 C21.6773864,17.0297869 19.6671136,16.1561508 18.2382273,16.1561508 C16.809,16.1561508 14.79225,17.0297869 14.79225,20.5261459 C14.7925909,24.0245885 16.809,24.8952 18.2382273,24.8948639 Z M18.2382273,13.9465869 C19.9142727,13.9465869 24.3252955,14.6611967 24.3252955,20.5261459 C24.3256364,26.3900869 19.9139318,27.1050328 18.2382273,27.1050328 C16.5578864,27.1050328 12.1440682,26.3900869 12.1440682,20.5261459 C12.1443409,14.6611967 16.5578864,13.9465869 18.2382273,13.9465869 Z" id="_54803152" fill="#FFFFFF"></path>
                        <polygon id="_54865864" fill="#FFFFFF" points="43.1246591 26.7740754 40.4742955 26.7740754 40.4742955 16.4871082 36.6428182 16.4871082 36.6428182 14.2784852 46.9515682 14.2784852 46.9515682 16.4871082 43.1246591 16.4871082"></polygon>
                        <polygon id="_54865008" fill="#FFFFFF" points="50.5505455 21.1724 50.5505455 26.7740754 47.9044773 26.7740754 47.9044773 14.2784852 50.5505455 14.2784852 50.5505455 19.010423 55.4931818 19.010423 55.4931818 14.2784852 58.1481818 14.2784852 58.1481818 26.7740754 55.4931818 26.7740754 55.4931818 21.1724"></polygon>
                        <polygon id="_54864288" fill="#FFFFFF" points="20.3475 40.5039672 17.69925 40.5039672 17.69925 28.0075705 26.7193636 28.0075705 26.7193636 30.2195541 20.3475 30.2195541 20.3475 33.0386066 25.9283864 33.0386066 25.9283864 35.2505902 20.3475 35.2505902"></polygon>
                        <path d="M29.5151591,35.7708197 L32.742,35.7708197 L31.1719773,30.8274967 L31.1383636,30.8274967 L29.5151591,35.7708197 Z M27.9231136,40.5040344 L25.1337273,40.5040344 L29.6562955,28.0075033 L32.7108409,28.0075033 L37.1750455,40.5040344 L34.29525,40.5040344 L33.4834773,37.9279574 L28.8081818,37.9279574 L27.9231136,40.5040344 Z" id="_54863304" fill="#FFFFFF"></path>
                        <path d="M45.3091364,32.0982951 C45.1013864,31.3502803 44.6904545,29.9402836 42.4992955,29.9402836 C41.2295455,29.9402836 39.3564545,30.7754066 39.3564545,34.3072541 C39.3564545,36.5541213 40.2574091,38.5742787 42.4992955,38.5742787 C43.9685455,38.5742787 44.9910682,37.7545475 45.3091364,36.2243738 L47.9552045,36.2243738 C47.427,38.9383721 45.6289773,40.8349918 42.4485682,40.8349918 C39.0762955,40.8349918 36.6553636,38.5928967 36.6553636,34.2738492 C36.6553636,29.9059377 39.2153182,27.6774197 42.4861364,27.6774197 C46.2812727,27.6774197 47.8137273,30.2547066 47.9549318,32.0982951 L45.3091364,32.0982951 Z" id="_54862224" fill="#FFFFFF"></path>
                        <polygon id="_55197680" fill="#FFFFFF" points="58.1481818 30.2195541 51.4860682 30.2195541 51.4860682 32.8450328 57.3525 32.8450328 57.3525 35.0563443 51.4860682 35.0563443 51.4860682 38.294 58.1631818 38.294 58.1631818 40.5039672 49.0190455 40.5039672 49.0190455 28.0075705 58.1481818 28.0075705"></polygon>
                        <path d="M31.3173409,19.7605885 C32.6916136,19.7605885 33.3606818,19.2905 33.3606818,18.0570049 C33.3606818,17.3992574 33.0600682,16.4271541 31.5101591,16.4271541 L28.2163636,16.4271541 L28.2163636,19.7605885 L31.3173409,19.7605885 Z M25.6243636,14.2721672 L32.0222045,14.2721672 C35.3859545,14.2721672 36,16.7195984 36,17.7997803 C36.0003409,19.1691131 35.2952045,20.3508541 34.0450227,20.7679115 C35.0853409,21.219382 35.6508409,21.6000098 35.6508409,23.9269951 C35.6511136,25.7510918 35.6508409,26.202159 36.2136136,26.4117967 L36.2138864,26.7397295 L33.2852045,26.7397295 C33.1107273,26.1504049 33.0071591,25.5062344 33.0071591,24.2227328 C33.0071591,22.5212328 32.9035909,21.8605279 30.9443182,21.8605279 L28.2163636,21.8605279 L28.2163636,26.7397295 L25.6243636,26.7397295 L25.6243636,14.2721672 Z" id="_55197592" fill="#FFFFFF"></path>
                        <path d="M59.8813636,13.3686885 L59.8813636,13.8975213 L59.6131364,13.8975213 L59.6131364,13.3686885 L59.8813636,13.3686885 Z M61.2069545,13.9006803 L61.2069545,13.8996049 L59.8813636,13.8975213 L59.8813636,13.3686885 L61.2069545,13.3707721 L61.2069545,13.9006803 Z M77.2658864,29.2067869 L76.7294318,29.2067869 L76.7089091,28.4179066 L76.6489091,27.6406541 L76.5495682,26.8748279 L76.4138864,26.1215705 L76.2407045,25.3806131 L76.0311136,24.6541738 L75.7870909,23.943059 L75.5095909,23.2484115 L75.1986818,22.5711049 L74.8562727,21.9110721 L74.4823636,21.2693885 L74.0779773,20.6489443 L73.6451591,20.0487984 L73.1847955,19.4698918 L72.6969545,18.9153164 L72.1824545,18.3827869 L71.6435455,17.8765377 L71.0811136,17.395359 L70.4940682,16.9403262 L69.8855455,16.5145311 L69.2564318,16.1156213 L68.6057045,15.7469574 L67.9363636,15.4092115 L67.2495,15.1026525 L66.5440227,14.8289607 L65.8228636,14.5882705 L65.08725,14.3815902 L64.3358864,14.2108016 L63.5719091,14.0769803 L62.79525,13.9789836 L62.007,13.9198361 L61.2069545,13.9006803 L61.2069545,13.3696967 L62.0322273,13.3910033 L62.8478864,13.4521672 L63.6518182,13.5523148 L64.4432045,13.6923197 L65.2197955,13.8692918 L65.9828182,14.0822902 L66.7292045,14.3311803 L67.4578636,14.615223 L68.1699545,14.9322672 L68.8623409,15.2823803 L69.5342045,15.6635459 L70.1863636,16.074823 L70.8160227,16.5172869 L71.4220227,16.9868377 L72.0054545,17.4845508 L72.5633182,18.0094852 L73.0945909,18.5585492 L73.5993409,19.1339607 L74.0764773,19.7315525 L74.5240227,20.3524 L74.9410909,20.9955623 L75.3275455,21.658082 L75.6826364,22.3408328 L76.0040455,23.0431426 L76.2920455,23.762659 L76.5445227,24.4986426 L76.7603864,25.2499508 L76.9398409,26.015777 L77.0819318,26.7960541 L77.1833182,27.5887656 L77.2453636,28.3930377 L77.2658864,29.2067869 Z M76.7297045,40.502018 L76.7294318,29.2067869 L77.2658864,29.2067869 L77.2661591,40.502018 L76.7297045,40.502018 Z M76.7297045,40.502018 L77.2661591,40.502018 L77.2661591,40.7664344 L76.7297045,40.7664344 L76.7297045,40.502018 Z" id="_55196904" fill="#2B3A45" fill-rule="nonzero"></path>
                        <path d="M66.3272727,40.4999344 L66.8637273,40.4999344 L66.8637273,40.7643508 L66.3272727,40.7643508 L66.3272727,40.4999344 Z M66.324,31.7530213 L66.8615455,31.7530213 L66.8637273,40.4999344 L66.3272727,40.4999344 L66.3250909,31.7530213 L66.324,31.7530213 Z M62.1331364,27.6224393 L62.1331364,27.0936066 L62.3753864,27.0993197 L62.6157273,27.1173328 L62.8527273,27.1463689 L63.0861136,27.1881082 L63.3145909,27.2403328 L63.5389773,27.3027738 L63.7599545,27.3759689 L63.9741136,27.459918 L64.1843182,27.5532098 L64.3881818,27.6565164 L64.5855,27.7686279 L64.7779773,27.8892082 L64.9634318,28.0189967 L65.1413864,28.157859 L65.3136818,28.3043164 L65.478,28.4582344 L65.634,28.6201508 L65.7826364,28.7900656 L65.9233636,28.9654918 L66.0550227,29.148177 L66.1773409,29.3378525 L66.2909318,29.5323 L66.3957273,29.7331328 L66.4902955,29.9403508 L66.5753182,30.1511984 L66.6496364,30.3678262 L66.7128409,30.5898311 L66.76575,30.8148607 L66.8081591,31.0446623 L66.8375455,31.277959 L66.85575,31.5145492 L66.8626364,31.7530213 L66.324,31.7530213 L66.3192955,31.539418 L66.3031364,31.3298475 L66.2757955,31.1234361 L66.2397955,30.9206541 L66.1931591,30.7204934 L66.1362273,30.5255082 L66.0703636,30.3337492 L65.9958409,30.1456197 L65.9117727,29.9634049 L65.8196591,29.7852902 L65.7186136,29.6116787 L65.6089773,29.4447213 L65.4920455,29.2827377 L65.3680909,29.1259967 L65.2363636,28.976918 L65.0971364,28.8335525 L64.9517727,28.6963033 L64.8004773,28.5663803 L64.6414773,28.4441869 L64.4771591,28.3289164 L64.3077273,28.2207033 L64.1315455,28.1210934 L63.9507273,28.0301541 L63.76575,27.9473475 L63.5747727,27.8737492 L63.3812045,27.8087541 L63.1820455,27.7526311 L62.9787955,27.7065902 L62.7728182,27.6710344 L62.5630909,27.6441492 L62.3501591,27.6281525 L62.1331364,27.6224393 Z M59.8808864,27.1008656 L62.1331364,27.0936066 L62.1331364,27.6224393 L59.8808864,27.6296984 L59.8808864,27.1008656 Z M59.8808864,27.1008656 L59.8808864,27.6296984 L59.6126591,27.6296984 L59.6126591,27.1008656 L59.8808864,27.1008656 Z" id="Shape" fill="#2B3A45" fill-rule="nonzero"></path>
                        <path d="M13.2921818,37.8544262 L13.4267727,37.9871049 L13.4267727,39.5952459 L13.1575909,39.5952459 L13.1575909,37.9871049 L13.2921818,37.8544262 Z M13.1575909,37.9871049 L13.1575909,37.8544262 L13.2921818,37.8544262 L13.1575909,37.9871049 Z M14.0056364,38.1197836 L13.2921818,38.1197836 L13.2921818,37.8544262 L14.0056364,37.8544262 L14.0056364,38.1197836 Z M14.71575,38.4126311 L14.4465682,38.4126311 L14.4467045,38.3928705 L14.4454091,38.3742525 L14.4437045,38.356777 L14.4415909,38.3394361 L14.4385227,38.3237754 L14.4351136,38.3086525 L14.4310909,38.2948738 L14.4265909,38.2821705 L14.4216136,38.270677 L14.4154773,38.2588475 L14.4093409,38.2482951 L14.4031364,38.2389525 L14.3957045,38.2292738 L14.3871818,38.2197967 L14.3794773,38.2122016 L14.3689773,38.2031951 L14.3588182,38.1949951 L14.3463409,38.1865262 L14.3330455,38.1788639 L14.3178409,38.171 L14.3019545,38.1638754 L14.2839545,38.1570869 L14.2641136,38.1506344 L14.2429091,38.144518 L14.2201364,38.1392754 L14.1942955,38.1338311 L14.1675,38.1298656 L14.1391364,38.1261689 L14.1087273,38.1234803 L14.0766136,38.1211279 L14.0419773,38.1197164 L14.0056364,38.1197836 L14.0056364,37.8544262 L14.04825,37.8554344 L14.0892955,37.8568459 L14.1297273,37.8591984 L14.1685909,37.8629623 L14.2063636,37.8676 L14.2427045,37.8737164 L14.2768636,37.8802361 L14.3112273,37.8885705 L14.3440227,37.8977787 L14.3754545,37.9083984 L14.406,37.9202951 L14.4356591,37.9336033 L14.4634091,37.9477852 L14.4903409,37.9636475 L14.5155,37.9804508 L14.5403864,37.9990016 L14.5624773,38.018359 L14.5849091,38.0404721 L14.6039318,38.0624508 L14.6218636,38.0855721 L14.6385682,38.1105082 L14.6531591,38.1355787 L14.6655682,38.1608508 L14.6768182,38.1878033 L14.6866364,38.2150246 L14.69475,38.2423803 L14.7014318,38.2698705 L14.7065455,38.2980328 L14.7107045,38.3257246 L14.7135,38.3546262 L14.7147955,38.3835951 L14.71575,38.4126311 Z M14.0712955,38.9850852 L14.0712955,38.7197279 L14.0686364,38.7202656 L14.0922955,38.7193918 L14.1144545,38.7177787 L14.1372273,38.7160311 L14.1585,38.7135443 L14.1786818,38.7103852 L14.1988636,38.7069574 L14.2180227,38.7027902 L14.2360909,38.6978164 L14.2534773,38.692641 L14.27025,38.6871295 L14.2864091,38.680341 L14.3007273,38.6742918 L14.3148409,38.6673016 L14.3282727,38.6595049 L14.3408864,38.6513721 L14.3515227,38.643441 L14.3630455,38.6345016 L14.3725909,38.6256967 L14.3823409,38.616018 L14.3905909,38.6058689 L14.3983636,38.5952492 L14.4062727,38.5842262 L14.4130909,38.5717246 L14.4194318,38.5591557 L14.4252273,38.545041 L14.4305455,38.5294475 L14.4351136,38.5138541 L14.4391364,38.4960426 L14.4424091,38.477223 L14.4450682,38.4573951 L14.4465,38.4363574 L14.4465682,38.4126311 L14.71575,38.4126311 L14.7145909,38.4467082 L14.7120682,38.4811885 L14.7084545,38.5145934 L14.703,38.5468557 L14.6958409,38.5781098 L14.6870455,38.6092967 L14.6765455,38.6383328 L14.6644773,38.6669656 L14.6507727,38.6949934 L14.6355,38.7210721 L14.6191364,38.7466131 L14.6008636,38.7706754 L14.5810227,38.7931918 L14.5607727,38.8142967 L14.5386818,38.8345279 L14.5166591,38.8527426 L14.49225,38.8700836 L14.4680455,38.8854754 L14.4431591,38.8994557 L14.4174545,38.9126295 L14.3904545,38.9248623 L14.3637955,38.934877 L14.3365227,38.9444213 L14.3086364,38.952823 L14.2800682,38.9598131 L14.2515,38.9659967 L14.2228636,38.9715754 L14.1931364,38.9758098 L14.1635455,38.9792377 L14.1343636,38.9820607 L14.1038864,38.9836738 L14.0739545,38.9845475 L14.0712955,38.9850852 Z M13.2921818,38.7197279 L14.0712955,38.7197279 L14.0712955,38.9850852 L13.2921818,38.9850852 L13.2921818,38.7197279 Z M14.4405,39.6495541 L13.9643182,38.9299033 L14.1893182,38.7857984 L14.6655,39.5054492 L14.4405,39.6495541 Z" id="Shape" fill="#FFFFFF" fill-rule="nonzero"></path>
                        <path d="M12.2291591,38.7920492 L11.9599773,38.7920492 L11.9627727,38.6977492 L11.9700682,38.6040541 L11.9815909,38.5117033 L11.9984318,38.4206967 L12.0194318,38.3316393 L12.0444545,38.2441951 L12.0739091,38.1584311 L12.1075909,38.074482 L12.1450227,37.9929525 L12.1865455,37.9129016 L12.2315455,37.8360098 L12.2798182,37.7609328 L12.3319773,37.6885443 L12.38775,37.6192475 L12.4465909,37.5519672 L12.5082955,37.4878459 L12.5733409,37.427018 L12.6411136,37.3690131 L12.7119545,37.3141 L12.7853182,37.2627492 L12.8615455,37.2150279 L12.9395455,37.1701967 L13.02075,37.1298016 L13.1034545,37.0929016 L13.1885455,37.0596984 L13.2756136,37.0306623 L13.36425,37.0060623 L13.4545909,36.9854279 L13.5468409,36.968759 L13.6405227,36.9574 L13.7355,36.9502082 L13.8311591,36.9479902 L13.8311591,37.2122721 L13.7481818,37.2144902 L13.6668409,37.2206066 L13.5867955,37.2310246 L13.5081818,37.2444672 L13.4305227,37.2620098 L13.3544318,37.283518 L13.2800455,37.3083869 L13.2075,37.336482 L13.1363864,37.3681393 L13.0678636,37.4034262 L13.0003636,37.4409984 L12.9357273,37.4824016 L12.8728636,37.5264934 L12.8125227,37.5732066 L12.7541591,37.622877 L12.6986591,37.6753705 L12.6452727,37.7302164 L12.5948864,37.7871459 L12.5475682,37.8471672 L12.5027727,37.9090705 L12.4607727,37.9728557 L12.4220455,38.0393967 L12.3867955,38.1069459 L12.3546818,38.1770492 L12.3261818,38.2486311 L12.3009545,38.3218934 L12.2790682,38.3969705 L12.2613409,38.4735262 L12.2476364,38.5510902 L12.2370682,38.6299984 L12.2308636,38.7102508 L12.2291591,38.7920492 Z M13.83075,40.3710869 L13.83075,40.6364443 L13.83075,40.6359066 L13.7351591,40.6336885 L13.6401818,40.6265639 L13.5465682,40.6152049 L13.4543182,40.5986033 L13.3639773,40.5779689 L13.2747955,40.5533689 L13.1884091,40.5244672 L13.10325,40.4913311 L13.0206136,40.4544311 L12.9394091,40.4141705 L12.8614091,40.3694066 L12.7851818,40.3217525 L12.7118864,40.2699984 L12.6415909,40.215623 L12.5732727,40.1576852 L12.5087727,40.0968574 L12.4465227,40.0328705 L12.38775,39.9655902 L12.3324545,39.8962934 L12.2798182,39.8239721 L12.2314773,39.7488951 L12.186,39.6720033 L12.1450227,39.5919525 L12.1075909,39.510423 L12.0739091,39.4264738 L12.0444545,39.3405754 L12.0194318,39.2531311 L11.9984318,39.1634689 L11.9815909,39.0728656 L11.9700682,38.9803131 L11.9627727,38.8865508 L11.9599773,38.7920492 L12.2291591,38.7920492 L12.2308636,38.8740492 L12.2370682,38.9543689 L12.2476364,39.0334787 L12.2613409,39.1117148 L12.2790682,39.1878 L12.3009545,39.262877 L12.3261818,39.3362738 L12.3546818,39.4078557 L12.3867955,39.477959 L12.4225909,39.5455082 L12.4607045,39.6120492 L12.5027727,39.6758344 L12.5469545,39.7376705 L12.5948864,39.7976918 L12.6452045,39.8546213 L12.6980455,39.9093328 L12.7540909,39.9618262 L12.8119091,40.0114295 L12.8727955,40.0585459 L12.9355909,40.1021 L13.0002273,40.1434361 L13.0677273,40.180941 L13.13625,40.2160934 L13.2072955,40.2477508 L13.2799091,40.2757787 L13.3547045,40.3005131 L13.43025,40.3220213 L13.5079091,40.3395639 L13.5865227,40.3529393 L13.6665,40.3633574 L13.7478409,40.3694066 L13.83075,40.3716246 L13.83075,40.3710869 Z M15.43275,38.7920492 L15.7019318,38.7920492 L15.6991364,38.8865508 L15.6919091,38.9803131 L15.6804545,39.0728656 L15.6636818,39.1634689 L15.6433636,39.2531311 L15.6179318,39.3405754 L15.5886136,39.4264738 L15.5556136,39.510423 L15.5178409,39.5919525 L15.477,39.6720033 L15.4316591,39.7488951 L15.3835227,39.8235016 L15.3315682,39.8962934 L15.2759318,39.9655902 L15.2172273,40.0328705 L15.1557273,40.0968574 L15.09075,40.1576852 L15.0231136,40.215623 L14.9523409,40.2699984 L14.8790455,40.3217525 L14.8028182,40.3694066 L14.7248182,40.4141705 L14.6435455,40.4544311 L14.5607727,40.4913311 L14.4755455,40.5244672 L14.3883409,40.5533689 L14.2995,40.5779689 L14.2084773,40.5986033 L14.1162955,40.6152049 L14.0222727,40.6265639 L13.9268864,40.6336885 L13.83075,40.6364443 L13.83075,40.3710869 L13.9142045,40.3694066 L13.9959545,40.3633574 L14.0763409,40.3529393 L14.1558409,40.3395639 L14.2332273,40.3220213 L14.3095227,40.3005131 L14.3840455,40.2757787 L14.4567273,40.2477508 L14.5279091,40.2160934 L14.5965,40.180941 L14.664,40.1434361 L14.7286364,40.1021 L14.7914318,40.0585459 L14.8517045,40.0114295 L14.9099318,39.9618262 L14.9653636,39.9093328 L15.0185455,39.8546213 L15.0687955,39.7976918 L15.1159773,39.7376705 L15.1605682,39.6763049 L15.2024318,39.6120492 L15.2404091,39.5455082 L15.2760682,39.477959 L15.3074318,39.4078557 L15.3363409,39.3362738 L15.3614318,39.262877 L15.3826364,39.1878 L15.4007727,39.1117148 L15.4144091,39.0334787 L15.4249091,38.9543689 L15.4310455,38.8740492 L15.43275,38.7920492 Z M13.8311591,37.2122721 L13.8311591,36.9479902 L13.8311591,36.9474525 L13.9272273,36.9502082 L14.0225455,36.9574 L14.1165682,36.968759 L14.2086136,36.9854279 L14.2996364,37.0060623 L14.3884773,37.0306623 L14.4756136,37.0596984 L14.5608409,37.0929016 L14.6436136,37.1298016 L14.7248182,37.1701967 L14.8028182,37.2150279 L14.8790455,37.2627492 L14.9522727,37.3145705 L15.0230455,37.3690131 L15.0906818,37.427018 L15.1556591,37.4883164 L15.2172273,37.5525049 L15.2758636,37.6192475 L15.3315,37.689082 L15.3834545,37.7609328 L15.4316591,37.8360098 L15.477,37.9134393 L15.5177727,37.9929525 L15.5550682,38.074482 L15.5886136,38.1584311 L15.6179318,38.2441951 L15.6432955,38.3316393 L15.6636818,38.4206967 L15.6804545,38.5117033 L15.6919091,38.6040541 L15.6991364,38.6977492 L15.7019318,38.7920492 L15.43275,38.7920492 L15.4310455,38.7102508 L15.4249091,38.6299984 L15.4144091,38.5510902 L15.4007727,38.4735262 L15.3825682,38.3969705 L15.3614318,38.3218934 L15.3363409,38.2486311 L15.3079773,38.1770492 L15.276,38.1069459 L15.2404091,38.038859 L15.2024318,37.9728557 L15.1605,37.9090705 L15.1159091,37.8466295 L15.0687273,37.7871459 L15.0185455,37.7296787 L14.9652955,37.6749 L14.9098636,37.622877 L14.8516364,37.5732066 L14.7913636,37.526023 L14.7286364,37.4824016 L14.664,37.4409984 L14.5965,37.4034262 L14.5279773,37.3681393 L14.4567955,37.336482 L14.3841136,37.3083869 L14.3096591,37.283518 L14.2333636,37.2620098 L14.1559773,37.2444672 L14.0766136,37.2310246 L13.9962273,37.2206066 L13.9145455,37.2144902 L13.8311591,37.2128098 L13.8311591,37.2122721 Z" id="Shape" fill="#FFFFFF" fill-rule="nonzero"></path>
                    </g>
                </g>
            </g>
        </g>
    </g>
</svg>