<?xml version="1.0" encoding="utf-8"?><svg width="520" height="629" xmlns="http://www.w3.org/2000/svg" xmlns:xlink="http://www.w3.org/1999/xlink"><defs><path id="b" d="M0 0h344v453H0z"/><filter x="-39.1%" y="-29.2%" width="178.2%" height="159.4%" filterUnits="objectBoundingBox" id="a"><feOffset dy="2" in="SourceAlpha" result="shadowOffsetOuter1"/><feGaussianBlur stdDeviation="44.5" in="shadowOffsetOuter1" result="shadowBlurOuter1"/><feColorMatrix values="0 0 0 0 0 0 0 0 0 0 0 0 0 0 0 0 0 0 0.08 0" in="shadowBlurOuter1"/></filter><linearGradient x1="0%" y1="0%" x2="100%" y2="87.501%" id="c"><stop stop-color="#76D3A8" offset="0%"/><stop stop-color="#49E08F" offset="100%"/></linearGradient><linearGradient x1="2.447%" y1="2.141%" x2="98.692%" y2="86.357%" id="f"><stop stop-color="#EE5C56" offset="0%"/><stop stop-color="#FDA58B" offset="100%"/></linearGradient><rect id="e" x="0" y="0" width="390" height="84" rx="4"/><filter x="-5.8%" y="-22%" width="113.6%" height="163.1%" filterUnits="objectBoundingBox" id="d"><feOffset dx="4" dy="8" in="SourceAlpha" result="shadowOffsetOuter1"/><feGaussianBlur stdDeviation="7.5" in="shadowOffsetOuter1" result="shadowBlurOuter1"/><feColorMatrix values="0 0 0 0 0 0 0 0 0 0 0 0 0 0 0 0 0 0 0.14 0" in="shadowBlurOuter1"/></filter></defs><g fill="none" fill-rule="evenodd"><g fill-rule="nonzero" transform="translate(88 86)"><use fill="#000" filter="url(#a)" xlink:href="#b"/><use fill="#FFF" xlink:href="#b"/></g><g transform="translate(118 302)"><rect stroke="#DDD" fill="#FFF" x=".5" y=".5" width="283" height="47" rx="4"/><path d="M269.006 17.32V19h-11.82v-1.68h2.945l.873-.82h4.204l.874.82h2.924zm-10.987 12.5v-10h10.155v10c0 .453-.17.847-.508 1.18-.339.333-.738.5-1.198.5h-6.743c-.46 0-.86-.167-1.199-.5a1.602 1.602 0 0 1-.507-1.18zM12 20h15v2.048H12zm0 5.119h15v2.048H12z" fill="#EEE"/><path d="M47.824 30h-1.2a.516.516 0 0 1-.336-.104.64.64 0 0 1-.192-.264l-1.072-2.768H39.88l-1.072 2.768a.625.625 0 0 1-.192.256.511.511 0 0 1-.336.112h-1.2l4.584-11.464h1.576L47.824 30zm-7.512-4.256h4.28l-1.8-4.664a8.717 8.717 0 0 1-.344-1.08c-.059.219-.116.42-.172.604-.056.184-.11.345-.164.484l-1.8 4.656zM55.181 30c-.203 0-.331-.099-.384-.296l-.128-.984a4.266 4.266 0 0 1-1.188 1.012c-.446.253-.956.38-1.532.38-.464 0-.886-.09-1.264-.268a2.621 2.621 0 0 1-.968-.788c-.267-.347-.472-.779-.616-1.296-.144-.517-.216-1.112-.216-1.784 0-.597.08-1.153.24-1.668.16-.515.39-.961.692-1.34a3.243 3.243 0 0 1 1.1-.892 3.247 3.247 0 0 1 1.472-.324c.496 0 .92.084 1.272.252.352.168.666.404.944.708v-4.496h1.424V30h-.848zm-2.76-1.04c.464 0 .87-.107 1.22-.32a3.53 3.53 0 0 0 .964-.904v-3.92c-.262-.352-.548-.599-.86-.74a2.482 2.482 0 0 0-1.036-.212c-.758 0-1.34.27-1.744.808-.406.539-.608 1.307-.608 2.304 0 .528.045.98.136 1.356a2.6 2.6 0 0 0 .4.928c.176.243.392.42.648.532.256.112.549.168.88.168zM64.8 30h-.632a.754.754 0 0 1-.336-.064c-.085-.043-.141-.133-.168-.272l-.16-.752a9.09 9.09 0 0 1-.624.516c-.203.152-.416.28-.64.384a3.316 3.316 0 0 1-.716.236 4.13 4.13 0 0 1-.844.08c-.315 0-.61-.044-.884-.132a2.015 2.015 0 0 1-.716-.396 1.885 1.885 0 0 1-.484-.668c-.12-.27-.18-.588-.18-.956 0-.32.088-.628.264-.924.176-.296.46-.559.852-.788.392-.23.905-.417 1.54-.564.635-.147 1.41-.23 2.328-.252v-.632c0-.63-.135-1.105-.404-1.428-.27-.323-.668-.484-1.196-.484-.347 0-.639.044-.876.132a3.316 3.316 0 0 0-.616.296c-.173.11-.323.208-.448.296a.646.646 0 0 1-.372.132.427.427 0 0 1-.252-.076.579.579 0 0 1-.172-.188l-.256-.456c.448-.432.93-.755 1.448-.968a4.47 4.47 0 0 1 1.72-.32c.453 0 .856.075 1.208.224.352.15.648.357.888.624s.421.59.544.968c.123.379.184.795.184 1.248V30zm-3.696-.872a2.715 2.715 0 0 0 1.276-.292c.184-.093.36-.207.528-.34.168-.133.332-.285.492-.456v-1.688c-.656.021-1.213.073-1.672.156-.459.083-.832.19-1.12.324-.288.133-.497.29-.628.472a1.02 1.02 0 0 0-.196.608c0 .213.035.397.104.552.07.155.163.281.28.38.117.099.256.17.416.216.16.045.333.068.52.068zm6.285 3.616V21.896h.848c.202 0 .33.099.384.296l.12.96c.346-.421.742-.76 1.188-1.016.445-.256.958-.384 1.54-.384.464 0 .885.09 1.264.268.378.179.701.443.968.792.266.35.472.783.616 1.3.144.517.216 1.112.216 1.784 0 .597-.08 1.153-.24 1.668-.16.515-.39.96-.688 1.336a3.213 3.213 0 0 1-1.1.888 3.254 3.254 0 0 1-1.468.324c-.502 0-.93-.083-1.284-.248a2.893 2.893 0 0 1-.94-.704v3.584H67.39zm3.608-9.84c-.464 0-.871.107-1.22.32-.35.213-.671.515-.964.904v3.92c.261.352.548.6.86.744.312.144.66.216 1.044.216.752 0 1.33-.27 1.736-.808.405-.539.608-1.307.608-2.304 0-.528-.047-.981-.14-1.36-.094-.379-.228-.69-.404-.932a1.572 1.572 0 0 0-.648-.532 2.155 2.155 0 0 0-.872-.168zm8.108 7.224c-.64 0-1.132-.179-1.476-.536-.344-.357-.516-.872-.516-1.544v-4.96h-.976a.319.319 0 0 1-.216-.076c-.058-.05-.088-.13-.088-.236v-.568l1.328-.168.328-2.504a.303.303 0 0 1 .104-.196.33.33 0 0 1 .224-.076h.72v2.792h2.32v1.032h-2.32v4.864c0 .341.083.595.248.76a.866.866 0 0 0 .64.248c.15 0 .279-.02.388-.06.11-.04.204-.084.284-.132.08-.048.148-.092.204-.132a.267.267 0 0 1 .148-.06c.075 0 .142.045.2.136l.416.68c-.245.23-.541.41-.888.54-.346.13-.704.196-1.072.196zM89 30h-.632a.754.754 0 0 1-.336-.064c-.085-.043-.141-.133-.168-.272l-.16-.752a9.09 9.09 0 0 1-.624.516c-.203.152-.416.28-.64.384a3.316 3.316 0 0 1-.716.236 4.13 4.13 0 0 1-.844.08c-.315 0-.61-.044-.884-.132a2.015 2.015 0 0 1-.716-.396 1.885 1.885 0 0 1-.484-.668c-.12-.27-.18-.588-.18-.956 0-.32.088-.628.264-.924.176-.296.46-.559.852-.788.392-.23.905-.417 1.54-.564.635-.147 1.41-.23 2.328-.252v-.632c0-.63-.135-1.105-.404-1.428-.27-.323-.668-.484-1.196-.484-.347 0-.639.044-.876.132a3.316 3.316 0 0 0-.616.296c-.173.11-.323.208-.448.296a.646.646 0 0 1-.372.132.427.427 0 0 1-.252-.076.579.579 0 0 1-.172-.188l-.256-.456c.448-.432.93-.755 1.448-.968a4.47 4.47 0 0 1 1.72-.32c.453 0 .856.075 1.208.224.352.15.648.357.888.624s.421.59.544.968c.123.379.184.795.184 1.248V30zm-3.696-.872a2.715 2.715 0 0 0 1.276-.292c.184-.093.36-.207.528-.34.168-.133.332-.285.492-.456v-1.688c-.656.021-1.213.073-1.672.156-.459.083-.832.19-1.12.324-.288.133-.497.29-.628.472a1.02 1.02 0 0 0-.196.608c0 .213.035.397.104.552.07.155.163.281.28.38.117.099.256.17.416.216.16.045.333.068.52.068zm6.332.872V18.216h1.432v4.848a4.14 4.14 0 0 1 1.156-.94c.435-.237.932-.356 1.492-.356.47 0 .894.088 1.272.264.38.176.702.439.968.788.267.35.472.781.616 1.296.144.515.216 1.108.216 1.78 0 .597-.08 1.153-.24 1.668-.16.515-.39.96-.692 1.336-.3.376-.669.672-1.104.888a3.254 3.254 0 0 1-1.468.324c-.522 0-.966-.101-1.332-.304a3.03 3.03 0 0 1-.956-.848l-.072.736c-.042.203-.165.304-.368.304h-.92zm3.616-7.096c-.464 0-.87.107-1.22.32a3.53 3.53 0 0 0-.964.904v3.92c.256.352.54.6.852.744.312.144.66.216 1.044.216.758 0 1.34-.27 1.744-.808.406-.539.608-1.307.608-2.304 0-.528-.046-.981-.14-1.36-.093-.379-.228-.69-.404-.932a1.572 1.572 0 0 0-.648-.532 2.155 2.155 0 0 0-.872-.168zm7.293-1.008V30h-1.424v-8.104h1.424zm.32-2.544a.906.906 0 0 1-.084.388 1.1 1.1 0 0 1-.224.32 1.04 1.04 0 0 1-.324.22.972.972 0 0 1-.392.08.944.944 0 0 1-.388-.08 1.055 1.055 0 0 1-.54-.54 1 1 0 0 1 0-.784 1.028 1.028 0 0 1 .54-.548c.12-.053.25-.08.388-.08.139 0 .27.027.392.08a1.04 1.04 0 0 1 .548.548.96.96 0 0 1 .084.396zm4.205-1.136V30h-1.424V18.216h1.424zm4.524 3.68V30h-1.424v-8.104h1.424zm.32-2.544a.906.906 0 0 1-.084.388 1.1 1.1 0 0 1-.224.32 1.04 1.04 0 0 1-.324.22.972.972 0 0 1-.392.08.944.944 0 0 1-.388-.08 1.055 1.055 0 0 1-.54-.54 1 1 0 0 1 0-.784 1.028 1.028 0 0 1 .54-.548c.12-.053.25-.08.388-.08.139 0 .27.027.392.08a1.04 1.04 0 0 1 .548.548.96.96 0 0 1 .084.396zm5.077 10.776c-.64 0-1.132-.179-1.476-.536-.344-.357-.516-.872-.516-1.544v-4.96h-.976a.319.319 0 0 1-.216-.076c-.059-.05-.088-.13-.088-.236v-.568l1.328-.168.328-2.504a.303.303 0 0 1 .104-.196.33.33 0 0 1 .224-.076h.72v2.792h2.32v1.032h-2.32v4.864c0 .341.082.595.248.76a.866.866 0 0 0 .64.248c.149 0 .278-.02.388-.06.109-.04.204-.084.284-.132.08-.048.148-.092.204-.132a.267.267 0 0 1 .148-.06c.074 0 .141.045.2.136l.416.68c-.246.23-.542.41-.888.54-.347.13-.704.196-1.072.196zm6.316 2.264a.745.745 0 0 1-.18.256c-.072.064-.182.096-.332.096h-1.056l1.48-3.216-3.344-7.632h1.232a.42.42 0 0 1 .288.092c.07.061.12.13.152.204l2.168 5.104a4.511 4.511 0 0 1 .216.712l.112-.36c.038-.117.08-.237.128-.36l2.104-5.096a.455.455 0 0 1 .164-.212.42.42 0 0 1 .252-.084h1.136l-4.52 10.496z" fill="#606060"/></g><g transform="translate(118 355)"><rect stroke="#DDD" fill="#FFF" x=".5" y=".5" width="283" height="47" rx="4"/><path d="M269.622 17.32V19h-11.775v-1.68h2.933l.87-.82h4.188l.87.82h2.914zm-10.946 12.5v-10h10.116v10c0 .453-.168.847-.506 1.18-.337.333-.735.5-1.193.5h-6.717c-.459 0-.857-.167-1.194-.5a1.605 1.605 0 0 1-.506-1.18zM12 20h15v2.048H12zm0 5.119h15v2.048H12z" fill="#EEE"/><path d="M46.472 27.632c.085 0 .163.035.232.104l.608.664a4.905 4.905 0 0 1-1.708 1.272c-.67.304-1.476.456-2.42.456-.827 0-1.576-.143-2.248-.428a4.927 4.927 0 0 1-1.72-1.2 5.424 5.424 0 0 1-1.104-1.852c-.261-.72-.392-1.512-.392-2.376 0-.864.14-1.656.42-2.376a5.42 5.42 0 0 1 1.18-1.856 5.28 5.28 0 0 1 1.82-1.204c.707-.285 1.487-.428 2.34-.428.843 0 1.57.13 2.18.392a5.51 5.51 0 0 1 1.628 1.064l-.504.712a.55.55 0 0 1-.128.132.352.352 0 0 1-.208.052.405.405 0 0 1-.22-.076 11.11 11.11 0 0 1-.276-.188 5.956 5.956 0 0 0-.376-.24 3.295 3.295 0 0 0-.512-.24 4.23 4.23 0 0 0-.688-.188 4.789 4.789 0 0 0-.904-.076c-.613 0-1.175.105-1.684.316-.51.21-.948.51-1.316.9-.368.39-.655.864-.86 1.424-.205.56-.308 1.187-.308 1.88 0 .715.103 1.352.308 1.912.205.56.485 1.033.84 1.42s.775.681 1.26.884a4.028 4.028 0 0 0 1.568.304c.341 0 .648-.02.92-.06.272-.04.524-.103.756-.188a3.2 3.2 0 0 0 .648-.324c.2-.13.401-.287.604-.468.09-.08.179-.12.264-.12zm6.365-5.864c.592 0 1.126.099 1.604.296.477.197.882.477 1.216.84.333.363.589.801.768 1.316.178.515.268 1.09.268 1.724 0 .64-.09 1.216-.268 1.728-.18.512-.435.95-.768 1.312a3.34 3.34 0 0 1-1.216.836 4.213 4.213 0 0 1-1.604.292 4.213 4.213 0 0 1-1.604-.292 3.378 3.378 0 0 1-1.22-.836 3.74 3.74 0 0 1-.776-1.312 5.153 5.153 0 0 1-.272-1.728c0-.635.09-1.21.272-1.724.18-.515.44-.953.776-1.316a3.42 3.42 0 0 1 1.22-.84 4.162 4.162 0 0 1 1.604-.296zm0 7.232c.8 0 1.397-.268 1.792-.804.394-.536.592-1.284.592-2.244 0-.965-.198-1.717-.592-2.256-.395-.539-.992-.808-1.792-.808-.406 0-.758.07-1.056.208a1.976 1.976 0 0 0-.748.6c-.2.261-.35.583-.448.964a5.167 5.167 0 0 0-.148 1.292c0 .48.049.91.148 1.288.098.379.248.697.448.956s.449.457.748.596c.298.139.65.208 1.056.208zm6.044 1v-8.104h.848c.203 0 .33.099.384.296l.104.832c.299-.368.633-.67 1.004-.904.37-.235.801-.352 1.292-.352.55 0 .993.152 1.332.456.339.304.583.715.732 1.232a2.536 2.536 0 0 1 1.064-1.288c.23-.139.473-.24.732-.304s.521-.096.788-.096c.427 0 .807.068 1.14.204.333.136.616.335.848.596.232.261.41.583.532.964.123.381.184.817.184 1.308V30h-1.424v-5.16c0-.635-.139-1.116-.416-1.444-.277-.328-.68-.492-1.208-.492-.235 0-.457.041-.668.124a1.61 1.61 0 0 0-.936.968c-.093.243-.14.524-.14.844V30H63.65v-5.16c0-.65-.13-1.136-.392-1.456-.261-.32-.643-.48-1.144-.48a1.81 1.81 0 0 0-.98.284c-.301.19-.577.447-.828.772V30h-1.424zm13.565 0v-8.104h.848c.202 0 .33.099.384.296l.104.832c.298-.368.633-.67 1.004-.904.37-.235.801-.352 1.292-.352.549 0 .993.152 1.332.456.338.304.582.715.732 1.232a2.536 2.536 0 0 1 1.064-1.288c.229-.139.473-.24.732-.304.258-.064.521-.096.788-.096.426 0 .806.068 1.14.204.333.136.616.335.848.596.232.261.409.583.532.964.122.381.184.817.184 1.308V30h-1.424v-5.16c0-.635-.139-1.116-.416-1.444-.278-.328-.68-.492-1.208-.492-.235 0-.458.041-.668.124a1.61 1.61 0 0 0-.936.968 2.33 2.33 0 0 0-.14.844V30h-1.424v-5.16c0-.65-.131-1.136-.392-1.456-.262-.32-.643-.48-1.144-.48a1.81 1.81 0 0 0-.98.284c-.302.19-.578.447-.828.772V30h-1.424zm14.796-8.104v5.168c0 .613.142 1.088.424 1.424.283.336.71.504 1.28.504.416 0 .808-.099 1.176-.296a3.658 3.658 0 0 0 1.016-.824v-5.976h1.424V30h-.848c-.202 0-.33-.099-.384-.296l-.112-.872c-.352.39-.746.703-1.184.94-.437.237-.938.356-1.504.356-.442 0-.833-.073-1.172-.22a2.324 2.324 0 0 1-.852-.62 2.633 2.633 0 0 1-.516-.968 4.321 4.321 0 0 1-.172-1.256v-5.168h1.424zM95.335 30v-8.104h.848c.203 0 .33.099.384.296l.112.88c.352-.39.745-.704 1.18-.944.435-.24.937-.36 1.508-.36.443 0 .833.073 1.172.22.339.147.621.355.848.624.227.27.399.593.516.972.117.379.176.797.176 1.256V30h-1.424v-5.16c0-.613-.14-1.09-.42-1.428-.28-.339-.708-.508-1.284-.508a2.39 2.39 0 0 0-1.18.304 3.886 3.886 0 0 0-1.012.824V30h-1.424zm10.908-8.104V30h-1.424v-8.104h1.424zm.32-2.544a.906.906 0 0 1-.084.388 1.1 1.1 0 0 1-.224.32 1.04 1.04 0 0 1-.324.22.972.972 0 0 1-.392.08.944.944 0 0 1-.388-.08 1.055 1.055 0 0 1-.54-.54 1 1 0 0 1 0-.784 1.028 1.028 0 0 1 .54-.548c.12-.053.25-.08.388-.08.14 0 .27.027.392.08a1.04 1.04 0 0 1 .548.548.96.96 0 0 1 .084.396zm8.149 3.984a.636.636 0 0 1-.128.136.303.303 0 0 1-.184.048.457.457 0 0 1-.26-.1 3.79 3.79 0 0 0-.356-.22 2.473 2.473 0 0 0-1.28-.32c-.395 0-.744.07-1.048.212a2.032 2.032 0 0 0-.764.612 2.77 2.77 0 0 0-.464.968 4.803 4.803 0 0 0-.156 1.272c0 .49.056.927.168 1.308.112.381.27.701.472.96.203.259.45.456.74.592.29.136.617.204.98.204.347 0 .632-.041.856-.124.224-.083.41-.175.56-.276.15-.101.272-.193.368-.276a.443.443 0 0 1 .288-.124c.123 0 .213.045.272.136l.4.52a3.079 3.079 0 0 1-1.32.948c-.528.2-1.085.3-1.672.3a3.54 3.54 0 0 1-1.412-.28 3.22 3.22 0 0 1-1.132-.812 3.853 3.853 0 0 1-.756-1.308c-.184-.517-.276-1.107-.276-1.768 0-.603.084-1.16.252-1.672.168-.512.413-.953.736-1.324.323-.37.721-.66 1.196-.868.475-.208 1.019-.312 1.632-.312.565 0 1.067.092 1.504.276a3.6 3.6 0 0 1 1.16.78l-.376.512zM123.037 30h-.632a.754.754 0 0 1-.336-.064c-.086-.043-.142-.133-.168-.272l-.16-.752a9.09 9.09 0 0 1-.624.516c-.203.152-.416.28-.64.384a3.316 3.316 0 0 1-.716.236c-.254.053-.535.08-.844.08-.315 0-.61-.044-.884-.132a2.015 2.015 0 0 1-.716-.396 1.885 1.885 0 0 1-.484-.668c-.12-.27-.18-.588-.18-.956 0-.32.088-.628.264-.924.176-.296.46-.559.852-.788.392-.23.905-.417 1.54-.564.634-.147 1.41-.23 2.328-.252v-.632c0-.63-.135-1.105-.404-1.428-.27-.323-.668-.484-1.196-.484-.347 0-.64.044-.876.132a3.316 3.316 0 0 0-.616.296c-.174.11-.323.208-.448.296a.646.646 0 0 1-.372.132.427.427 0 0 1-.252-.076.579.579 0 0 1-.172-.188l-.256-.456c.448-.432.93-.755 1.448-.968a4.47 4.47 0 0 1 1.72-.32c.453 0 .856.075 1.208.224.352.15.648.357.888.624s.42.59.544.968c.122.379.184.795.184 1.248V30zm-3.696-.872a2.715 2.715 0 0 0 1.276-.292c.184-.093.36-.207.528-.34.168-.133.332-.285.492-.456v-1.688a11.66 11.66 0 0 0-1.672.156c-.46.083-.832.19-1.12.324-.288.133-.498.29-.628.472a1.012 1.012 0 0 0-.196.608c0 .213.034.397.104.552a1.035 1.035 0 0 0 .696.596c.16.045.333.068.52.068zm8.74 1c-.64 0-1.132-.179-1.476-.536-.344-.357-.516-.872-.516-1.544v-4.96h-.976a.319.319 0 0 1-.216-.076c-.059-.05-.088-.13-.088-.236v-.568l1.328-.168.328-2.504a.303.303 0 0 1 .104-.196.33.33 0 0 1 .224-.076h.72v2.792h2.32v1.032h-2.32v4.864c0 .341.083.595.248.76a.866.866 0 0 0 .64.248c.15 0 .279-.02.388-.06.11-.04.204-.084.284-.132.08-.048.148-.092.204-.132a.267.267 0 0 1 .148-.06c.075 0 .141.045.2.136l.416.68c-.245.23-.541.41-.888.54-.347.13-.704.196-1.072.196zm5.525-8.232V30h-1.424v-8.104h1.424zm.32-2.544a.906.906 0 0 1-.084.388 1.12 1.12 0 0 1-.224.32 1.04 1.04 0 0 1-.324.22.972.972 0 0 1-.392.08.944.944 0 0 1-.388-.08 1.055 1.055 0 0 1-.54-.54 1 1 0 0 1 0-.784 1.028 1.028 0 0 1 .54-.548.982.982 0 0 1 .78 0 1.04 1.04 0 0 1 .548.548.96.96 0 0 1 .084.396zm5.9 2.416c.592 0 1.127.099 1.604.296.478.197.883.477 1.216.84.334.363.59.801.768 1.316.179.515.268 1.09.268 1.724 0 .64-.089 1.216-.268 1.728-.178.512-.434.95-.768 1.312a3.34 3.34 0 0 1-1.216.836 4.213 4.213 0 0 1-1.604.292 4.213 4.213 0 0 1-1.604-.292 3.378 3.378 0 0 1-1.22-.836 3.74 3.74 0 0 1-.776-1.312 5.153 5.153 0 0 1-.272-1.728c0-.635.091-1.21.272-1.724.182-.515.44-.953.776-1.316a3.42 3.42 0 0 1 1.22-.84 4.162 4.162 0 0 1 1.604-.296zm0 7.232c.8 0 1.398-.268 1.792-.804.395-.536.592-1.284.592-2.244 0-.965-.197-1.717-.592-2.256-.394-.539-.992-.808-1.792-.808a2.5 2.5 0 0 0-1.056.208 1.976 1.976 0 0 0-.748.6 2.67 2.67 0 0 0-.448.964 5.167 5.167 0 0 0-.148 1.292c0 .48.05.91.148 1.288.099.379.248.697.448.956s.45.457.748.596c.299.139.65.208 1.056.208zm6.045 1v-8.104h.848c.203 0 .33.099.384.296l.112.88c.352-.39.745-.704 1.18-.944.435-.24.937-.36 1.508-.36.443 0 .833.073 1.172.22.339.147.621.355.848.624.227.27.399.593.516.972.117.379.176.797.176 1.256V30h-1.424v-5.16c0-.613-.14-1.09-.42-1.428-.28-.339-.708-.508-1.284-.508a2.39 2.39 0 0 0-1.18.304 3.886 3.886 0 0 0-1.012.824V30h-1.424z" fill="#606060"/></g><g transform="translate(118 408)"><rect stroke="#DDD" fill="#FFF" x=".5" y=".5" width="283" height="47" rx="4"/><path d="M269.622 17.32V19h-11.775v-1.68h2.933l.87-.82h4.188l.87.82h2.914zm-10.946 12.5v-10h10.116v10c0 .453-.168.847-.506 1.18-.337.333-.735.5-1.193.5h-6.717c-.459 0-.857-.167-1.194-.5a1.605 1.605 0 0 1-.506-1.18zM12 20h15v2.048H12zm0 5.119h15v2.048H12z" fill="#EEE"/><path d="M46.2 18.536v1.304h-3.704V30h-1.552V19.84h-3.72v-1.304H46.2zm3.365 3.232c.485 0 .933.081 1.344.244.41.163.765.397 1.064.704.298.307.532.685.7 1.136.168.45.252.964.252 1.54 0 .224-.024.373-.072.448-.048.075-.14.112-.272.112h-5.392c.01.512.08.957.208 1.336.128.379.304.695.528.948.224.253.49.443.8.568.309.125.656.188 1.04.188.357 0 .665-.041.924-.124a4.518 4.518 0 0 0 1.136-.536c.125-.083.233-.124.324-.124.117 0 .208.045.272.136l.4.52a2.705 2.705 0 0 1-.632.556 3.935 3.935 0 0 1-.788.388 5.302 5.302 0 0 1-1.756.304 4.12 4.12 0 0 1-1.548-.284 3.397 3.397 0 0 1-1.224-.832 3.817 3.817 0 0 1-.804-1.356c-.192-.539-.288-1.157-.288-1.856 0-.565.086-1.093.26-1.584.173-.49.422-.916.748-1.276a3.43 3.43 0 0 1 1.192-.848 3.916 3.916 0 0 1 1.584-.308zm.032 1.048c-.688 0-1.23.199-1.624.596-.395.397-.64.948-.736 1.652h4.408c0-.33-.046-.633-.136-.908a2.023 2.023 0 0 0-.4-.712 1.79 1.79 0 0 0-.644-.464 2.172 2.172 0 0 0-.868-.164zM61.12 30h-.632a.754.754 0 0 1-.336-.064c-.085-.043-.141-.133-.168-.272l-.16-.752a9.09 9.09 0 0 1-.624.516c-.203.152-.416.28-.64.384a3.316 3.316 0 0 1-.716.236 4.13 4.13 0 0 1-.844.08c-.315 0-.61-.044-.884-.132a2.015 2.015 0 0 1-.716-.396 1.885 1.885 0 0 1-.484-.668c-.12-.27-.18-.588-.18-.956 0-.32.088-.628.264-.924.176-.296.46-.559.852-.788.392-.23.905-.417 1.54-.564.635-.147 1.41-.23 2.328-.252v-.632c0-.63-.135-1.105-.404-1.428-.27-.323-.668-.484-1.196-.484-.347 0-.639.044-.876.132a3.316 3.316 0 0 0-.616.296c-.173.11-.323.208-.448.296a.646.646 0 0 1-.372.132.427.427 0 0 1-.252-.076.579.579 0 0 1-.172-.188l-.256-.456c.448-.432.93-.755 1.448-.968a4.47 4.47 0 0 1 1.72-.32c.453 0 .856.075 1.208.224.352.15.648.357.888.624s.421.59.544.968c.123.379.184.795.184 1.248V30zm-3.696-.872a2.715 2.715 0 0 0 1.276-.292c.184-.093.36-.207.528-.34.168-.133.332-.285.492-.456v-1.688c-.656.021-1.213.073-1.672.156-.459.083-.832.19-1.12.324-.288.133-.497.29-.628.472a1.02 1.02 0 0 0-.196.608c0 .213.035.397.104.552.07.155.163.281.28.38.117.099.256.17.416.216.16.045.333.068.52.068zM63.71 30v-8.104h.848c.202 0 .33.099.384.296l.104.832c.298-.368.633-.67 1.004-.904.37-.235.801-.352 1.292-.352.55 0 .993.152 1.332.456.338.304.582.715.732 1.232a2.536 2.536 0 0 1 1.064-1.288c.229-.139.473-.24.732-.304.258-.064.521-.096.788-.096.426 0 .806.068 1.14.204.333.136.616.335.848.596.232.261.409.583.532.964.122.381.184.817.184 1.308V30H73.27v-5.16c0-.635-.139-1.116-.416-1.444-.278-.328-.68-.492-1.208-.492-.235 0-.458.041-.668.124a1.61 1.61 0 0 0-.936.968 2.33 2.33 0 0 0-.14.844V30h-1.424v-5.16c0-.65-.131-1.136-.392-1.456-.262-.32-.643-.48-1.144-.48a1.81 1.81 0 0 0-.98.284c-.302.19-.578.447-.828.772V30H63.71zm12.38-8.104h1.12a.44.44 0 0 1 .44.296l1.552 5.216c.043.192.083.377.12.556.038.179.07.359.096.54.043-.181.091-.361.144-.54l.168-.556 1.712-5.248a.422.422 0 0 1 .14-.2.39.39 0 0 1 .252-.08h.616a.42.42 0 0 1 .264.08c.07.053.118.12.144.2l1.672 5.248c.059.187.111.37.156.552.046.181.09.36.132.536a8.684 8.684 0 0 1 .24-1.088l1.584-5.216a.428.428 0 0 1 .416-.296h1.072L85.506 30h-1.128c-.138 0-.234-.09-.288-.272l-1.792-5.496a3.087 3.087 0 0 1-.104-.372l-.08-.372-.08.376a3.015 3.015 0 0 1-.104.376l-1.816 5.488c-.058.181-.168.272-.328.272h-1.072l-2.624-8.104zm17.02-.128a4.17 4.17 0 0 1 1.605.296c.477.197.883.477 1.216.84.333.363.59.801.768 1.316.179.515.268 1.09.268 1.724 0 .64-.09 1.216-.268 1.728-.179.512-.435.95-.768 1.312a3.34 3.34 0 0 1-1.216.836 4.213 4.213 0 0 1-1.604.292 4.213 4.213 0 0 1-1.604-.292 3.378 3.378 0 0 1-1.22-.836 3.74 3.74 0 0 1-.776-1.312 5.153 5.153 0 0 1-.272-1.728c0-.635.09-1.21.272-1.724a3.73 3.73 0 0 1 .776-1.316 3.42 3.42 0 0 1 1.22-.84 4.162 4.162 0 0 1 1.604-.296zm0 7.232c.8 0 1.398-.268 1.793-.804s.592-1.284.592-2.244c0-.965-.197-1.717-.592-2.256-.395-.539-.992-.808-1.792-.808a2.5 2.5 0 0 0-1.056.208 1.976 1.976 0 0 0-.748.6c-.2.261-.35.583-.448.964a5.167 5.167 0 0 0-.148 1.292c0 .48.05.91.148 1.288.099.379.248.697.448.956s.45.457.748.596c.299.139.65.208 1.056.208zm6.045 1v-8.104h.816c.155 0 .262.03.32.088.06.059.1.16.12.304l.096 1.264c.278-.565.62-1.007 1.028-1.324a2.271 2.271 0 0 1 1.436-.476 2.12 2.12 0 0 1 1.112.288l-.184 1.064c-.037.133-.12.2-.248.2a1.24 1.24 0 0 1-.344-.076 2.186 2.186 0 0 0-.648-.076c-.496 0-.91.144-1.244.432-.333.288-.612.707-.836 1.256V30h-1.424zm8.357-11.784v6.936h.368a.682.682 0 0 0 .264-.044c.07-.03.147-.09.232-.18l2.56-2.744c.08-.085.16-.155.24-.208a.569.569 0 0 1 .32-.08h1.296l-2.984 3.176c-.075.09-.148.17-.22.24a1.3 1.3 0 0 1-.244.184c.096.064.183.137.26.22.077.083.15.177.22.284l3.168 4h-1.28a.616.616 0 0 1-.3-.068.784.784 0 0 1-.236-.212l-2.664-3.32a.622.622 0 0 0-.24-.22.95.95 0 0 0-.36-.052h-.4V30h-1.432V18.216h1.432z" fill="#606060"/></g><g fill="url(#c)" fill-rule="nonzero" transform="translate(118 488)"><path d="M10 20C4.486 20 0 15.514 0 10S4.486 0 10 0s10 4.486 10 10-4.486 10-10 10zm0-18.858c-4.884 0-8.858 3.974-8.858 8.858 0 4.883 3.974 8.856 8.858 8.856s8.857-3.973 8.857-8.856c0-4.884-3.973-8.858-8.857-8.858z"/><path d="M14.157 10.554H5.902c-.33 0-.598-.234-.598-.524 0-.29.267-.526.598-.526h8.255c.33 0 .598.236.598.526 0 .29-.267.524-.598.524z"/><path d="M10.03 14.755c-.29 0-.526-.268-.526-.598V5.902c0-.33.236-.598.526-.598.29 0 .524.268.524.598v8.255c0 .33-.234.598-.524.598z"/></g><path d="M155.484 501.36h-4.968l-.945 2.531H148l4.183-10.742h1.65l4.168 10.742h-1.571l-.946-2.53zm-.416-1.101L153 494.732l-2.067 5.527h4.135zm8.442-4.999c.855 0 1.579.207 2.172.621a3.244 3.244 0 0 1 1.242 1.661v-5.138h1.458v11.487h-1.458v-2.173a3.244 3.244 0 0 1-1.242 1.661c-.593.414-1.317.621-2.172.621-.78 0-1.474-.176-2.083-.528a3.698 3.698 0 0 1-1.435-1.513c-.347-.658-.52-1.431-.52-2.321 0-.89.173-1.666.52-2.329a3.687 3.687 0 0 1 1.435-1.521c.609-.352 1.303-.528 2.083-.528zm.417 1.257c-.898 0-1.616.277-2.156.831-.54.554-.809 1.317-.809 2.29 0 .973.27 1.736.81 2.29.539.553 1.257.83 2.155.83a3.08 3.08 0 0 0 1.547-.388 2.74 2.74 0 0 0 1.065-1.094c.257-.471.385-1.017.385-1.638s-.128-1.17-.385-1.646a2.676 2.676 0 0 0-1.065-1.094 3.118 3.118 0 0 0-1.547-.38zm10.814-1.257c.855 0 1.58.207 2.172.621a3.244 3.244 0 0 1 1.242 1.661v-5.138h1.459v11.487h-1.459v-2.173a3.244 3.244 0 0 1-1.242 1.661c-.593.414-1.317.621-2.172.621-.78 0-1.474-.176-2.083-.528a3.698 3.698 0 0 1-1.434-1.513c-.348-.658-.521-1.431-.521-2.321 0-.89.173-1.666.52-2.329a3.687 3.687 0 0 1 1.435-1.521c.609-.352 1.304-.528 2.083-.528zm.417 1.257c-.897 0-1.616.277-2.155.831-.54.554-.81 1.317-.81 2.29 0 .973.27 1.736.81 2.29.54.553 1.258.83 2.155.83.577 0 1.093-.13 1.547-.388a2.74 2.74 0 0 0 1.065-1.094c.257-.471.385-1.017.385-1.638s-.128-1.17-.385-1.646a2.676 2.676 0 0 0-1.065-1.094 3.118 3.118 0 0 0-1.547-.38zm14.353-1.257c.994 0 1.792.251 2.396.753.604.502.97 1.177 1.098 2.026h-1.394a1.935 1.935 0 0 0-.65-1.25c-.368-.326-.862-.489-1.482-.489-.523 0-.932.122-1.226.365-.294.243-.44.572-.44.986 0 .31.098.561.296.753.197.191.443.336.737.434.294.099.697.205 1.21.319a12.07 12.07 0 0 1 1.579.442c.4.15.742.39 1.025.722.283.331.425.776.425 1.335 0 .693-.27 1.257-.81 1.692-.539.435-1.257.652-2.155.652-1.047 0-1.902-.243-2.564-.73-.663-.486-1.053-1.164-1.17-2.033h1.41c.054.517.286.936.697 1.257.412.321.954.481 1.627.481.502 0 .895-.124 1.178-.372.283-.249.425-.575.425-.978 0-.331-.102-.595-.305-.792a2.008 2.008 0 0 0-.753-.45c-.3-.104-.71-.212-1.234-.326a12.343 12.343 0 0 1-1.563-.435 2.394 2.394 0 0 1-.993-.69c-.273-.316-.409-.743-.409-1.281 0-.714.272-1.291.817-1.731.545-.44 1.288-.66 2.228-.66zm9.95 0c.843 0 1.6.176 2.267.528a3.84 3.84 0 0 1 1.57 1.521c.38.663.57 1.439.57 2.329 0 .89-.19 1.663-.57 2.32a3.855 3.855 0 0 1-1.57 1.514c-.668.352-1.424.528-2.268.528-.844 0-1.6-.176-2.268-.528a3.908 3.908 0 0 1-1.578-1.513c-.385-.658-.577-1.431-.577-2.321 0-.89.192-1.666.577-2.329.384-.662.91-1.17 1.578-1.521.668-.352 1.424-.528 2.268-.528zm0 1.242c-.524 0-1.008.114-1.451.341a2.61 2.61 0 0 0-1.074 1.048c-.272.471-.409 1.053-.409 1.747 0 .683.137 1.26.409 1.73.272.472.63.82 1.074 1.049.443.227.927.341 1.45.341.524 0 1.007-.114 1.45-.341a2.61 2.61 0 0 0 1.074-1.048c.273-.471.409-1.048.409-1.731 0-.694-.136-1.276-.409-1.747a2.61 2.61 0 0 0-1.073-1.048 3.128 3.128 0 0 0-1.45-.341zm10.637-3.151c-.78-.01-1.322.119-1.626.388-.305.269-.457.734-.457 1.397v.233h2.083v1.242h-2.083v7.28h-1.459v-7.28h-1.266v-1.242h1.266v-.342c0-2.039 1.181-3.011 3.542-2.918v1.242zm6.215 9.298v1.242h-1.09c-.897 0-1.567-.207-2.01-.62-.444-.415-.666-1.108-.666-2.08v-4.596h-1.314v-1.226h1.314v-2.127h1.474v2.127h2.276v1.226h-2.276v4.626c0 .549.105.924.313 1.126.208.202.569.302 1.082.302h.897zm9.353-7.389c.994 0 1.792.251 2.396.753.604.502.97 1.177 1.098 2.026h-1.395a1.935 1.935 0 0 0-.649-1.25c-.368-.326-.862-.489-1.482-.489-.524 0-.932.122-1.226.365-.294.243-.44.572-.44.986 0 .31.098.561.296.753.197.191.443.336.737.434.294.099.697.205 1.21.319.652.144 1.178.292 1.578.442.401.15.743.39 1.026.722.283.331.425.776.425 1.335 0 .693-.27 1.257-.81 1.692-.54.435-1.258.652-2.155.652-1.047 0-1.902-.243-2.564-.73-.663-.486-1.053-1.164-1.17-2.033h1.41c.053.517.286.936.697 1.257.412.321.954.481 1.627.481.502 0 .895-.124 1.178-.372.283-.249.425-.575.425-.978 0-.331-.102-.595-.305-.792a2.008 2.008 0 0 0-.753-.45c-.3-.104-.71-.212-1.234-.326a12.343 12.343 0 0 1-1.563-.435 2.394 2.394 0 0 1-.993-.69c-.273-.316-.41-.743-.41-1.281 0-.714.273-1.291.818-1.731.545-.44 1.288-.66 2.228-.66zm10.782 8.631l-3.365-3.834v3.834h-1.459v-11.487h1.459v6.675l3.317-3.71h1.78l-3.943 4.238 4.038 4.284h-1.827zm3.282-11.022c0-.258.091-.468.273-.628.181-.16.422-.241.721-.241.3 0 .54.08.721.24a.8.8 0 0 1 .273.63.797.797 0 0 1-.273.628c-.181.16-.422.24-.721.24-.3 0-.54-.08-.721-.24a.799.799 0 0 1-.273-.629zm1.715 2.5v8.522h-1.458v-8.522h1.458zm4.228-2.965v11.487h-1.459v-11.487h1.459zm4.227 0v11.487h-1.458v-11.487h1.458zm5.526 2.856c.994 0 1.792.251 2.396.753.604.502.97 1.177 1.098 2.026h-1.394a1.935 1.935 0 0 0-.65-1.25c-.368-.326-.862-.489-1.482-.489-.524 0-.932.122-1.226.365-.294.243-.44.572-.44.986 0 .31.098.561.296.753.197.191.443.336.737.434.294.099.697.205 1.21.319a12.07 12.07 0 0 1 1.579.442c.4.15.742.39 1.025.722.283.331.425.776.425 1.335 0 .693-.27 1.257-.81 1.692-.539.435-1.257.652-2.155.652-1.047 0-1.902-.243-2.564-.73-.663-.486-1.053-1.164-1.17-2.033h1.41c.054.517.286.936.697 1.257.412.321.954.481 1.627.481.502 0 .895-.124 1.178-.372.283-.249.425-.575.425-.978 0-.331-.102-.595-.305-.792a2.008 2.008 0 0 0-.753-.45c-.3-.104-.71-.212-1.234-.326a12.343 12.343 0 0 1-1.563-.435 2.394 2.394 0 0 1-.993-.69c-.273-.316-.409-.743-.409-1.281 0-.714.272-1.291.817-1.731.545-.44 1.288-.66 2.228-.66z" fill="#7F7E7D"/><path d="M139.42 123.153L135.871 138h-4.452l-2.373-9.933-2.394 9.933H122.2l-3.549-14.847h3.906l1.911 10.752 2.604-10.752h3.927l2.604 10.752 1.932-10.752h3.885zm9.886 3.003c1.345 0 2.412.448 3.203 1.344.791.896 1.186 2.128 1.186 3.696V138h-3.59v-6.384c0-.784-.207-1.396-.62-1.838-.413-.44-.962-.661-1.649-.661-.728 0-1.305.231-1.732.693-.427.462-.64 1.12-.64 1.974V138h-3.592v-15.54h3.591v5.964c.337-.7.837-1.253 1.502-1.659.665-.406 1.445-.609 2.341-.609zm11.777-.021c.896 0 1.666.203 2.31.609.644.406 1.12.959 1.428 1.659v-2.121h3.57V138h-3.57v-2.121a3.661 3.661 0 0 1-1.428 1.659c-.644.406-1.414.609-2.31.609-.966 0-1.83-.241-2.594-.724-.763-.484-1.364-1.18-1.806-2.09-.44-.91-.661-1.974-.661-3.192 0-1.232.22-2.3.661-3.203.442-.903 1.043-1.595 1.806-2.079.764-.483 1.628-.724 2.594-.724zm1.155 3.15c-.77 0-1.39.252-1.859.756-.469.504-.703 1.204-.703 2.1 0 .896.234 1.596.703 2.1.47.504 1.089.756 1.859.756.756 0 1.375-.259 1.858-.777.484-.518.725-1.211.725-2.079 0-.882-.241-1.578-.725-2.09-.483-.51-1.102-.766-1.858-.766zm15.83 5.628V138h-1.618c-1.372 0-2.439-.34-3.202-1.019-.763-.679-1.145-1.802-1.145-3.37v-4.305h-1.575v-3.024h1.575v-2.877h3.591v2.877h2.352v3.024h-2.352v4.368c0 .462.095.784.284.966.189.182.507.273.955.273h1.134zm11.792-8.778c.897 0 1.666.203 2.31.609.645.406 1.12.959 1.428 1.659v-2.121h3.57V138h-3.57v-2.121a3.661 3.661 0 0 1-1.428 1.659c-.644.406-1.413.609-2.31.609-.966 0-1.83-.241-2.593-.724-.763-.484-1.365-1.18-1.806-2.09-.441-.91-.662-1.974-.662-3.192 0-1.232.221-2.3.662-3.203.441-.903 1.043-1.595 1.806-2.079.763-.483 1.627-.724 2.593-.724zm1.155 3.15c-.77 0-1.389.252-1.858.756-.469.504-.704 1.204-.704 2.1 0 .896.235 1.596.704 2.1s1.088.756 1.858.756c.757 0 1.376-.259 1.859-.777.483-.518.724-1.211.724-2.079 0-.882-.241-1.578-.724-2.09-.483-.51-1.102-.766-1.859-.766zm12.785-.798a5.096 5.096 0 0 1 1.732-1.701 4.423 4.423 0 0 1 2.3-.63v3.843h-1.029c-.952 0-1.69.203-2.216.609-.525.406-.787 1.092-.787 2.058V138h-3.591v-11.718h3.591v2.205zm17.236 3.339c0 .294-.035.616-.105.966h-8.127c.042.882.266 1.515.672 1.9.407.386.924.578 1.554.578.533 0 .973-.133 1.323-.399s.581-.609.693-1.029h3.801a4.966 4.966 0 0 1-1.008 2.216 5.372 5.372 0 0 1-1.974 1.533c-.798.37-1.686.556-2.667.556-1.148 0-2.166-.241-3.055-.724a5.177 5.177 0 0 1-2.09-2.09c-.504-.91-.756-1.974-.756-3.192 0-1.232.249-2.3.746-3.202a5.109 5.109 0 0 1 2.09-2.08c.896-.483 1.917-.724 3.065-.724 1.163 0 2.184.238 3.066.714a5.044 5.044 0 0 1 2.048 2.006c.483.86.724 1.851.724 2.971zm-3.633-.546c.014-.77-.192-1.347-.619-1.732-.427-.386-.955-.578-1.586-.578-.658 0-1.203.196-1.638.588-.434.392-.679.966-.735 1.722h4.578zm13.536-4.998l2.814 7.182 2.625-7.182h3.97l-7.309 17.304h-3.948l2.751-6.027-4.914-11.277h4.011zm16.649-.147c1.162 0 2.201.241 3.118.725a5.311 5.311 0 0 1 2.163 2.089c.526.91.788 1.974.788 3.192 0 1.218-.262 2.282-.788 3.192a5.311 5.311 0 0 1-2.163 2.09c-.917.483-1.956.724-3.118.724s-2.205-.241-3.129-.724a5.295 5.295 0 0 1-2.174-2.09c-.525-.91-.787-1.974-.787-3.192 0-1.218.262-2.282.787-3.192a5.295 5.295 0 0 1 2.174-2.09c.924-.483 1.967-.724 3.129-.724zm0 3.108c-.686 0-1.263.248-1.733.746-.469.497-.703 1.214-.703 2.152 0 .938.234 1.652.703 2.142.47.49 1.047.735 1.733.735a2.27 2.27 0 0 0 1.722-.735c.462-.49.693-1.204.693-2.142s-.231-1.655-.693-2.152a2.255 2.255 0 0 0-1.722-.746zm20.155-2.961V138h-3.612v-2.121a3.893 3.893 0 0 1-1.501 1.638c-.665.406-1.438.609-2.32.609-1.345 0-2.412-.448-3.203-1.344-.791-.896-1.187-2.128-1.187-3.696v-6.804h3.57v6.363c0 .798.207 1.417.62 1.858.413.442.97.662 1.67.662.728 0 1.301-.231 1.721-.693.42-.462.63-1.12.63-1.974v-6.216h3.612zm6.632 2.205a5.096 5.096 0 0 1 1.732-1.701 4.423 4.423 0 0 1 2.3-.63v3.843h-1.029c-.952 0-1.69.203-2.216.609-.525.406-.787 1.092-.787 2.058V138h-3.591v-11.718h3.591v2.205zm15.132-2.352c1.484 0 2.67.371 3.56 1.113.889.742 1.445 1.722 1.669 2.94h-3.36c-.098-.476-.319-.85-.662-1.123-.343-.274-.773-.41-1.291-.41-.406 0-.714.087-.924.262-.21.176-.315.424-.315.746 0 .364.192.637.577.819.385.182.991.364 1.817.546.896.21 1.631.423 2.205.64a3.648 3.648 0 0 1 1.491 1.061c.42.49.63 1.148.63 1.974 0 .672-.182 1.267-.546 1.785-.364.518-.889.924-1.575 1.218-.686.294-1.498.441-2.436.441-1.582 0-2.849-.35-3.801-1.05-.952-.7-1.533-1.701-1.743-3.003h3.465c.056.504.27.889.64 1.155.371.266.851.399 1.439.399.406 0 .714-.094.924-.284a.955.955 0 0 0 .315-.745c0-.406-.193-.696-.578-.871-.385-.176-1.011-.361-1.879-.557-.868-.182-1.582-.378-2.142-.588a3.536 3.536 0 0 1-1.449-1.019c-.406-.469-.609-1.109-.609-1.921 0-1.05.399-1.9 1.197-2.552.798-.65 1.925-.976 3.381-.976zm13.435 0c1.163 0 2.202.241 3.119.725a5.311 5.311 0 0 1 2.163 2.089c.525.91.787 1.974.787 3.192 0 1.218-.262 2.282-.787 3.192a5.311 5.311 0 0 1-2.163 2.09c-.917.483-1.956.724-3.119.724-1.162 0-2.204-.241-3.129-.724a5.295 5.295 0 0 1-2.173-2.09c-.525-.91-.788-1.974-.788-3.192 0-1.218.263-2.282.788-3.192a5.295 5.295 0 0 1 2.173-2.09c.925-.483 1.967-.724 3.13-.724zm0 3.108c-.686 0-1.263.248-1.732.746-.469.497-.704 1.214-.704 2.152 0 .938.235 1.652.704 2.142s1.046.735 1.732.735a2.27 2.27 0 0 0 1.722-.735c.462-.49.693-1.204.693-2.142s-.23-1.655-.693-2.152a2.255 2.255 0 0 0-1.722-.746zm14.255-4.557c-.588 0-1.015.126-1.281.378s-.413.658-.441 1.218h2.121v3.024h-2.121V138h-3.591v-8.694h-1.407v-3.024h1.407v-.126c0-1.456.423-2.58 1.27-3.37.848-.792 2.076-1.187 3.686-1.187.336 0 .588.007.756.021v3.087l-.399-.021zm9.172 10.227V138h-1.617c-1.372 0-2.439-.34-3.202-1.019-.763-.679-1.145-1.802-1.145-3.37v-4.305h-1.575v-3.024h1.575v-2.877h3.591v2.877h2.352v3.024h-2.352v4.368c0 .462.095.784.284.966.189.182.507.273.955.273h1.134zm11.604-8.778c1.485 0 2.671.371 3.56 1.113.889.742 1.445 1.722 1.67 2.94h-3.36c-.099-.476-.319-.85-.662-1.123-.343-.274-.774-.41-1.292-.41-.406 0-.714.087-.924.262-.21.176-.315.424-.315.746 0 .364.193.637.578.819.385.182.99.364 1.816.546.897.21 1.631.423 2.205.64a3.648 3.648 0 0 1 1.491 1.061c.42.49.63 1.148.63 1.974 0 .672-.182 1.267-.546 1.785-.364.518-.889.924-1.575 1.218-.686.294-1.497.441-2.436.441-1.582 0-2.848-.35-3.8-1.05-.953-.7-1.534-1.701-1.744-3.003h3.465c.056.504.27.889.641 1.155s.85.399 1.438.399c.406 0 .714-.094.924-.284a.955.955 0 0 0 .315-.745c0-.406-.192-.696-.577-.871-.385-.176-1.011-.361-1.88-.557-.868-.182-1.582-.378-2.142-.588a3.536 3.536 0 0 1-1.449-1.019c-.406-.469-.609-1.109-.609-1.921 0-1.05.4-1.9 1.197-2.552.798-.65 1.925-.976 3.381-.976zM353.026 138l-3.507-4.977V138h-3.591v-15.54h3.591v8.526l3.507-4.704h4.221l-4.725 5.859 4.83 5.859h-4.326zm5.854-15.015c0-.546.196-.997.588-1.354.392-.358.91-.536 1.554-.536s1.162.178 1.554.536c.392.357.588.808.588 1.354 0 .532-.196.976-.588 1.334-.392.357-.91.535-1.554.535s-1.162-.178-1.554-.535a1.73 1.73 0 0 1-.588-1.334zm3.927 3.297V138h-3.59v-11.718h3.59zm6.632-3.822V138h-3.591v-15.54h3.591zm6.631 0V138h-3.59v-15.54h3.59zm7.304 3.675c1.484 0 2.67.371 3.56 1.113.889.742 1.445 1.722 1.669 2.94h-3.36c-.098-.476-.319-.85-.662-1.123-.343-.274-.773-.41-1.291-.41-.406 0-.714.087-.924.263-.21.175-.315.423-.315.745 0 .364.192.637.577.819.385.182.991.364 1.817.546.896.21 1.631.423 2.205.64a3.648 3.648 0 0 1 1.491 1.061c.42.49.63 1.148.63 1.974 0 .672-.182 1.267-.546 1.785-.364.518-.889.924-1.575 1.218-.686.294-1.498.441-2.436.441-1.582 0-2.849-.35-3.801-1.05-.952-.7-1.533-1.701-1.743-3.003h3.465c.056.504.27.889.64 1.155.371.266.851.399 1.439.399.406 0 .714-.094.924-.283a.955.955 0 0 0 .315-.746c0-.406-.193-.696-.578-.871-.385-.176-1.011-.361-1.879-.557-.868-.182-1.582-.378-2.142-.588a3.536 3.536 0 0 1-1.449-1.018c-.406-.47-.609-1.11-.609-1.922 0-1.05.399-1.9 1.197-2.551.798-.652 1.925-.977 3.381-.977zm12.322-4.053c1.485 0 2.667.381 3.55 1.145.881.763 1.322 1.858 1.322 3.286 0 1.33-.43 2.373-1.291 3.129-.861.756-2.012 1.148-3.455 1.176v1.869h-3.38v-4.179h1.406c1.009 0 1.792-.143 2.352-.43.56-.288.84-.802.84-1.544 0-.476-.133-.847-.399-1.113s-.623-.399-1.07-.399c-.505 0-.9.15-1.187.452-.287.3-.43.682-.43 1.144h-3.382a4.35 4.35 0 0 1 .536-2.3c.385-.693.97-1.238 1.753-1.637.784-.4 1.73-.599 2.835-.599zm.315 12.327V138h-3.738v-3.591h3.738z" fill="#4A4A4A"/><path d="M123.808 275.44V280h-1.544v-4.56l-4.2-6.904h1.36c.139 0 .248.035.328.104.08.07.15.155.208.256l2.624 4.456c.107.187.196.363.268.528.072.165.137.328.196.488a9.48 9.48 0 0 1 .192-.496 4.35 4.35 0 0 1 .264-.52l2.616-4.456c.048-.085.113-.167.196-.244a.455.455 0 0 1 .324-.116h1.376l-4.208 6.904zm7.853-3.672c.592 0 1.126.099 1.604.296.477.197.882.477 1.216.84.333.363.589.801.768 1.316.178.515.268 1.09.268 1.724 0 .64-.09 1.216-.268 1.728-.18.512-.435.95-.768 1.312a3.34 3.34 0 0 1-1.216.836 4.213 4.213 0 0 1-1.604.292 4.213 4.213 0 0 1-1.604-.292 3.378 3.378 0 0 1-1.22-.836 3.74 3.74 0 0 1-.776-1.312 5.153 5.153 0 0 1-.272-1.728c0-.635.09-1.21.272-1.724.18-.515.44-.953.776-1.316a3.42 3.42 0 0 1 1.22-.84 4.162 4.162 0 0 1 1.604-.296zm0 7.232c.8 0 1.397-.268 1.792-.804.394-.536.592-1.284.592-2.244 0-.965-.198-1.717-.592-2.256-.395-.539-.992-.808-1.792-.808-.406 0-.758.07-1.056.208a1.976 1.976 0 0 0-.748.6c-.2.261-.35.583-.448.964a5.167 5.167 0 0 0-.148 1.292c0 .48.049.91.148 1.288.098.379.248.697.448.956s.449.457.748.596c.298.139.65.208 1.056.208zm7.276-7.104v5.168c0 .613.141 1.088.424 1.424.283.336.71.504 1.28.504.416 0 .808-.099 1.176-.296a3.658 3.658 0 0 0 1.016-.824v-5.976h1.424V280h-.848c-.203 0-.33-.099-.384-.296l-.112-.872c-.352.39-.747.703-1.184.94-.437.237-.939.356-1.504.356a2.92 2.92 0 0 1-1.172-.22 2.324 2.324 0 0 1-.852-.62 2.633 2.633 0 0 1-.516-.968 4.322 4.322 0 0 1-.172-1.256v-5.168h1.424zm17.137 1.44a.636.636 0 0 1-.128.136.303.303 0 0 1-.184.048.457.457 0 0 1-.26-.1 3.79 3.79 0 0 0-.356-.22 2.473 2.473 0 0 0-1.28-.32c-.394 0-.744.07-1.048.212a2.032 2.032 0 0 0-.764.612 2.77 2.77 0 0 0-.464.968 4.803 4.803 0 0 0-.156 1.272c0 .49.056.927.168 1.308.112.381.27.701.472.96.203.259.45.456.74.592.291.136.618.204.98.204.347 0 .632-.041.856-.124.224-.083.411-.175.56-.276.15-.101.272-.193.368-.276a.443.443 0 0 1 .288-.124c.123 0 .214.045.272.136l.4.52a3.079 3.079 0 0 1-1.32.948c-.528.2-1.085.3-1.672.3a3.54 3.54 0 0 1-1.412-.28 3.22 3.22 0 0 1-1.132-.812 3.853 3.853 0 0 1-.756-1.308c-.184-.517-.276-1.107-.276-1.768 0-.603.084-1.16.252-1.672.168-.512.414-.953.736-1.324.323-.37.722-.66 1.196-.868.475-.208 1.019-.312 1.632-.312.566 0 1.067.092 1.504.276a3.6 3.6 0 0 1 1.16.78l-.376.512zM164.4 280h-.632a.754.754 0 0 1-.336-.064c-.085-.043-.141-.133-.168-.272l-.16-.752a9.09 9.09 0 0 1-.624.516c-.203.152-.416.28-.64.384a3.316 3.316 0 0 1-.716.236 4.13 4.13 0 0 1-.844.08c-.315 0-.61-.044-.884-.132a2.015 2.015 0 0 1-.716-.396 1.885 1.885 0 0 1-.484-.668c-.12-.27-.18-.588-.18-.956 0-.32.088-.628.264-.924.176-.296.46-.559.852-.788.392-.23.905-.417 1.54-.564.635-.147 1.41-.23 2.328-.252v-.632c0-.63-.135-1.105-.404-1.428-.27-.323-.668-.484-1.196-.484-.347 0-.639.044-.876.132a3.316 3.316 0 0 0-.616.296c-.173.11-.323.208-.448.296a.646.646 0 0 1-.372.132.427.427 0 0 1-.252-.076.579.579 0 0 1-.172-.188l-.256-.456c.448-.432.93-.755 1.448-.968a4.47 4.47 0 0 1 1.72-.32c.453 0 .856.075 1.208.224.352.15.648.357.888.624s.421.59.544.968c.123.379.184.795.184 1.248V280zm-3.696-.872a2.715 2.715 0 0 0 1.276-.292c.184-.093.36-.207.528-.34.168-.133.332-.285.492-.456v-1.688c-.656.021-1.213.073-1.672.156-.459.083-.832.19-1.12.324-.288.133-.497.29-.628.472a1.02 1.02 0 0 0-.196.608c0 .213.035.397.104.552.07.155.163.281.28.38.117.099.256.17.416.216.16.045.333.068.52.068zm6.284.872v-8.104h.848c.203 0 .331.099.384.296l.112.88c.352-.39.746-.704 1.18-.944.435-.24.938-.36 1.508-.36.443 0 .834.073 1.172.22.34.147.622.355.848.624.227.27.4.593.516.972.118.379.176.797.176 1.256V280h-1.424v-5.16c0-.613-.14-1.09-.42-1.428-.28-.339-.708-.508-1.284-.508-.42 0-.814.101-1.18.304a3.886 3.886 0 0 0-1.012.824V280h-1.424zm18.37-6.664a.636.636 0 0 1-.128.136.303.303 0 0 1-.184.048.457.457 0 0 1-.26-.1 3.79 3.79 0 0 0-.356-.22 2.473 2.473 0 0 0-1.28-.32c-.395 0-.744.07-1.048.212a2.032 2.032 0 0 0-.764.612 2.77 2.77 0 0 0-.464.968 4.803 4.803 0 0 0-.156 1.272c0 .49.056.927.168 1.308.112.381.269.701.472.96.202.259.449.456.74.592.29.136.617.204.98.204.346 0 .632-.041.856-.124.224-.083.41-.175.56-.276.149-.101.272-.193.368-.276a.443.443 0 0 1 .288-.124c.122 0 .213.045.272.136l.4.52a3.079 3.079 0 0 1-1.32.948c-.528.2-1.086.3-1.672.3a3.54 3.54 0 0 1-1.412-.28 3.22 3.22 0 0 1-1.132-.812 3.853 3.853 0 0 1-.756-1.308c-.184-.517-.276-1.107-.276-1.768 0-.603.084-1.16.252-1.672.168-.512.413-.953.736-1.324.322-.37.72-.66 1.196-.868.474-.208 1.018-.312 1.632-.312.565 0 1.066.092 1.504.276a3.6 3.6 0 0 1 1.16.78l-.376.512zM187.73 280v-11.784h1.424v4.768a4.36 4.36 0 0 1 1.152-.884c.421-.221.907-.332 1.456-.332.443 0 .833.073 1.172.22.339.147.621.355.848.624.227.27.399.593.516.972.117.379.176.797.176 1.256V280h-1.424v-5.16c0-.613-.14-1.09-.42-1.428-.28-.339-.708-.508-1.284-.508a2.39 2.39 0 0 0-1.18.304 3.886 3.886 0 0 0-1.012.824V280h-1.424zm12.605-8.232c.592 0 1.126.099 1.604.296.477.197.882.477 1.216.84.333.363.589.801.768 1.316.178.515.268 1.09.268 1.724 0 .64-.09 1.216-.268 1.728-.179.512-.435.95-.768 1.312a3.34 3.34 0 0 1-1.216.836 4.213 4.213 0 0 1-1.604.292 4.213 4.213 0 0 1-1.604-.292 3.378 3.378 0 0 1-1.22-.836 3.74 3.74 0 0 1-.776-1.312 5.153 5.153 0 0 1-.272-1.728c0-.635.09-1.21.272-1.724a3.73 3.73 0 0 1 .776-1.316 3.42 3.42 0 0 1 1.22-.84 4.162 4.162 0 0 1 1.604-.296zm0 7.232c.8 0 1.397-.268 1.792-.804.394-.536.592-1.284.592-2.244 0-.965-.198-1.717-.592-2.256-.395-.539-.992-.808-1.792-.808-.406 0-.758.07-1.056.208a1.976 1.976 0 0 0-.748.6c-.2.261-.35.583-.448.964a5.167 5.167 0 0 0-.148 1.292c0 .48.049.91.148 1.288.098.379.248.697.448.956s.449.457.748.596c.298.139.65.208 1.056.208zm9.324-7.232c.592 0 1.127.099 1.604.296.478.197.883.477 1.216.84.334.363.59.801.768 1.316.179.515.268 1.09.268 1.724 0 .64-.089 1.216-.268 1.728-.178.512-.434.95-.768 1.312a3.34 3.34 0 0 1-1.216.836 4.213 4.213 0 0 1-1.604.292 4.213 4.213 0 0 1-1.604-.292 3.378 3.378 0 0 1-1.22-.836 3.74 3.74 0 0 1-.776-1.312 5.153 5.153 0 0 1-.272-1.728c0-.635.091-1.21.272-1.724.182-.515.44-.953.776-1.316a3.42 3.42 0 0 1 1.22-.84 4.162 4.162 0 0 1 1.604-.296zm0 7.232c.8 0 1.398-.268 1.792-.804.395-.536.592-1.284.592-2.244 0-.965-.197-1.717-.592-2.256-.394-.539-.992-.808-1.792-.808a2.5 2.5 0 0 0-1.056.208 1.976 1.976 0 0 0-.748.6 2.67 2.67 0 0 0-.448.964 5.167 5.167 0 0 0-.148 1.292c0 .48.05.91.148 1.288.099.379.248.697.448.956s.45.457.748.596c.299.139.65.208 1.056.208zm10.685-5.768a.316.316 0 0 1-.296.176c-.08 0-.17-.03-.272-.088a6.271 6.271 0 0 0-.372-.196 3.494 3.494 0 0 0-.524-.2 2.5 2.5 0 0 0-.72-.092c-.24 0-.456.03-.648.092a1.556 1.556 0 0 0-.492.252c-.136.107-.24.23-.312.372a.999.999 0 0 0-.108.46c0 .208.06.381.18.52s.279.259.476.36c.197.101.421.19.672.268.25.077.508.16.772.248s.521.185.772.292c.25.107.475.24.672.4.197.16.356.356.476.588.12.232.18.51.18.836 0 .373-.067.719-.2 1.036a2.26 2.26 0 0 1-.592.824 2.855 2.855 0 0 1-.96.548c-.379.133-.816.2-1.312.2a4.092 4.092 0 0 1-1.536-.276 3.892 3.892 0 0 1-1.168-.708l.336-.544a.488.488 0 0 1 .152-.16.427.427 0 0 1 .232-.056c.096 0 .197.037.304.112.107.075.236.157.388.248.152.09.336.173.552.248.216.075.487.112.812.112.277 0 .52-.036.728-.108a1.53 1.53 0 0 0 .52-.292c.139-.123.241-.264.308-.424.067-.16.1-.33.1-.512a.85.85 0 0 0-.18-.556 1.52 1.52 0 0 0-.476-.376 3.879 3.879 0 0 0-.676-.272 49.758 49.758 0 0 1-.776-.244 8.744 8.744 0 0 1-.776-.292 2.728 2.728 0 0 1-.676-.412 1.866 1.866 0 0 1-.476-.612c-.12-.243-.18-.537-.18-.884a2.187 2.187 0 0 1 .752-1.644c.245-.216.547-.388.904-.516a3.618 3.618 0 0 1 1.224-.192c.533 0 1.012.084 1.436.252.424.168.79.399 1.1.692l-.32.52zm5.94-1.464c.486 0 .934.081 1.344.244.411.163.766.397 1.064.704.3.307.532.685.7 1.136.168.45.252.964.252 1.54 0 .224-.024.373-.072.448-.048.075-.138.112-.272.112h-5.392c.011.512.08.957.208 1.336.128.379.304.695.528.948.224.253.491.443.8.568.31.125.656.188 1.04.188.358 0 .666-.041.924-.124.26-.083.482-.172.668-.268.187-.096.343-.185.468-.268.126-.083.234-.124.324-.124.118 0 .208.045.272.136l.4.52a2.705 2.705 0 0 1-.632.556 3.935 3.935 0 0 1-.788.388 5.302 5.302 0 0 1-1.756.304 4.12 4.12 0 0 1-1.548-.284 3.397 3.397 0 0 1-1.224-.832 3.817 3.817 0 0 1-.804-1.356c-.192-.539-.288-1.157-.288-1.856 0-.565.087-1.093.26-1.584.174-.49.423-.916.748-1.276.326-.36.723-.643 1.192-.848.47-.205.998-.308 1.584-.308zm.032 1.048c-.688 0-1.229.199-1.624.596-.394.397-.64.948-.736 1.652h4.408c0-.33-.045-.633-.136-.908a2.023 2.023 0 0 0-.4-.712 1.79 1.79 0 0 0-.644-.464 2.172 2.172 0 0 0-.868-.164zm10.322-.92v5.168c0 .613.14 1.088.424 1.424.282.336.709.504 1.28.504.416 0 .808-.099 1.176-.296a3.658 3.658 0 0 0 1.016-.824v-5.976h1.424V280h-.848c-.203 0-.331-.099-.384-.296l-.112-.872c-.352.39-.747.703-1.184.94-.438.237-.94.356-1.504.356-.443 0-.834-.073-1.172-.22a2.324 2.324 0 0 1-.852-.62 2.633 2.633 0 0 1-.516-.968 4.321 4.321 0 0 1-.172-1.256v-5.168h1.424zm8.092 10.848v-10.848h.848c.203 0 .33.099.384.296l.12.96c.347-.421.743-.76 1.188-1.016.445-.256.959-.384 1.54-.384.464 0 .885.09 1.264.268.379.179.701.443.968.792.267.35.472.783.616 1.3.144.517.216 1.112.216 1.784 0 .597-.08 1.153-.24 1.668-.16.515-.39.96-.688 1.336a3.213 3.213 0 0 1-1.1.888 3.254 3.254 0 0 1-1.468.324c-.501 0-.93-.083-1.284-.248a2.893 2.893 0 0 1-.94-.704v3.584h-1.424zm3.608-9.84c-.464 0-.87.107-1.22.32-.35.213-.67.515-.964.904v3.92c.261.352.548.6.86.744.312.144.66.216 1.044.216.752 0 1.33-.27 1.736-.808.405-.539.608-1.307.608-2.304 0-.528-.047-.981-.14-1.36-.093-.379-.228-.69-.404-.932a1.572 1.572 0 0 0-.648-.532 2.155 2.155 0 0 0-.872-.168zm11.625 7.224c-.64 0-1.132-.179-1.476-.536-.344-.357-.516-.872-.516-1.544v-4.96h-.976a.319.319 0 0 1-.216-.076c-.058-.05-.088-.13-.088-.236v-.568l1.328-.168.328-2.504a.303.303 0 0 1 .104-.196.33.33 0 0 1 .224-.076h.72v2.792h2.32v1.032h-2.32v4.864c0 .341.083.595.248.76a.866.866 0 0 0 .64.248c.15 0 .279-.02.388-.06.11-.04.204-.084.284-.132.08-.048.148-.092.204-.132a.267.267 0 0 1 .148-.06c.075 0 .142.045.2.136l.416.68c-.245.23-.541.41-.888.54-.346.13-.704.196-1.072.196zm7.22-8.36a4.17 4.17 0 0 1 1.605.296c.477.197.883.477 1.216.84.333.363.59.801.768 1.316.179.515.268 1.09.268 1.724 0 .64-.09 1.216-.268 1.728-.179.512-.435.95-.768 1.312a3.34 3.34 0 0 1-1.216.836 4.213 4.213 0 0 1-1.604.292 4.213 4.213 0 0 1-1.604-.292 3.378 3.378 0 0 1-1.22-.836 3.74 3.74 0 0 1-.776-1.312 5.153 5.153 0 0 1-.272-1.728c0-.635.09-1.21.272-1.724a3.73 3.73 0 0 1 .776-1.316 3.42 3.42 0 0 1 1.22-.84 4.162 4.162 0 0 1 1.604-.296zm0 7.232c.8 0 1.398-.268 1.793-.804s.592-1.284.592-2.244c0-.965-.197-1.717-.592-2.256-.395-.539-.992-.808-1.792-.808a2.5 2.5 0 0 0-1.056.208 1.976 1.976 0 0 0-.748.6c-.2.261-.35.583-.448.964a5.167 5.167 0 0 0-.148 1.292c0 .48.05.91.148 1.288.099.379.248.697.448.956s.45.457.748.596c.299.139.65.208 1.056.208zm13.354-10.592c.485 0 .933.07 1.344.208.41.139.764.336 1.06.592.296.256.527.565.692.928.165.363.248.765.248 1.208 0 .363-.047.687-.14.972a2.362 2.362 0 0 1-.4.752 2.391 2.391 0 0 1-.628.548c-.245.15-.52.27-.824.36.747.197 1.308.528 1.684.992.376.464.564 1.045.564 1.744 0 .528-.1 1.003-.3 1.424-.2.421-.473.78-.82 1.076a3.66 3.66 0 0 1-1.212.68 4.567 4.567 0 0 1-1.484.236c-.608 0-1.128-.076-1.56-.228a3.236 3.236 0 0 1-1.096-.628 3.344 3.344 0 0 1-.736-.948 7.1 7.1 0 0 1-.488-1.188l.608-.256a.847.847 0 0 1 .336-.072c.107 0 .201.023.284.068a.433.433 0 0 1 .188.212 1.656 1.656 0 0 1 .064.144c.075.155.165.33.272.524.107.195.25.377.432.548.181.17.407.315.676.432.27.117.604.176 1.004.176s.75-.065 1.052-.196c.301-.13.552-.3.752-.508a2.128 2.128 0 0 0 .604-1.456c0-.31-.041-.592-.124-.848a1.46 1.46 0 0 0-.448-.664c-.216-.187-.515-.333-.896-.44-.381-.107-.87-.16-1.468-.16v-1.032c.485-.005.9-.059 1.244-.16s.625-.24.844-.416c.219-.176.377-.387.476-.632a2.16 2.16 0 0 0 .148-.816c0-.33-.052-.619-.156-.864a1.66 1.66 0 0 0-1.072-.968 2.605 2.605 0 0 0-.804-.12 2.42 2.42 0 0 0-.8.128 2.17 2.17 0 0 0-.652.356 2.07 2.07 0 0 0-.476.544c-.128.21-.224.439-.288.684a.637.637 0 0 1-.192.336.503.503 0 0 1-.328.104 1.99 1.99 0 0 1-.184-.016l-.744-.128c.075-.523.219-.985.432-1.388a3.309 3.309 0 0 1 1.94-1.632 4.313 4.313 0 0 1 1.372-.212zm11.89 11.72c-.64 0-1.133-.179-1.477-.536-.344-.357-.516-.872-.516-1.544v-4.96h-.976a.319.319 0 0 1-.216-.076c-.059-.05-.088-.13-.088-.236v-.568l1.328-.168.328-2.504a.303.303 0 0 1 .104-.196.33.33 0 0 1 .224-.076h.72v2.792h2.32v1.032h-2.32v4.864c0 .341.083.595.248.76a.866.866 0 0 0 .64.248c.15 0 .279-.02.388-.06.11-.04.204-.084.284-.132.08-.048.148-.092.204-.132a.267.267 0 0 1 .148-.06c.075 0 .141.045.2.136l.416.68c-.245.23-.541.41-.888.54-.347.13-.704.196-1.072.196zm7.22-8.36c.592 0 1.126.099 1.604.296.477.197.882.477 1.216.84.333.363.589.801.768 1.316.178.515.268 1.09.268 1.724 0 .64-.09 1.216-.268 1.728-.179.512-.435.95-.768 1.312a3.34 3.34 0 0 1-1.216.836 4.213 4.213 0 0 1-1.604.292 4.213 4.213 0 0 1-1.604-.292 3.378 3.378 0 0 1-1.22-.836 3.74 3.74 0 0 1-.776-1.312 5.153 5.153 0 0 1-.272-1.728c0-.635.09-1.21.272-1.724a3.73 3.73 0 0 1 .776-1.316 3.42 3.42 0 0 1 1.22-.84 4.162 4.162 0 0 1 1.604-.296zm0 7.232c.8 0 1.397-.268 1.792-.804.394-.536.592-1.284.592-2.244 0-.965-.198-1.717-.592-2.256-.395-.539-.992-.808-1.792-.808-.406 0-.758.07-1.056.208a1.976 1.976 0 0 0-.748.6c-.2.261-.35.583-.448.964a5.167 5.167 0 0 0-.148 1.292c0 .48.049.91.148 1.288.098.379.248.697.448.956s.449.457.748.596c.298.139.65.208 1.056.208zm6.044 3.744v-10.848h.848c.203 0 .33.099.384.296l.12.96c.347-.421.743-.76 1.188-1.016.446-.256.959-.384 1.54-.384.464 0 .886.09 1.264.268.379.179.702.443.968.792.267.35.472.783.616 1.3.144.517.216 1.112.216 1.784 0 .597-.08 1.153-.24 1.668-.16.515-.389.96-.688 1.336a3.213 3.213 0 0 1-1.1.888 3.254 3.254 0 0 1-1.468.324c-.501 0-.929-.083-1.284-.248a2.893 2.893 0 0 1-.94-.704v3.584h-1.424zm3.608-9.84c-.464 0-.87.107-1.22.32-.35.213-.67.515-.964.904v3.92c.262.352.548.6.86.744.312.144.66.216 1.044.216.752 0 1.33-.27 1.736-.808.406-.539.608-1.307.608-2.304 0-.528-.046-.981-.14-1.36-.093-.379-.228-.69-.404-.932a1.572 1.572 0 0 0-.648-.532 2.155 2.155 0 0 0-.872-.168zm13.81.328a.316.316 0 0 1-.297.176c-.08 0-.17-.03-.272-.088a6.271 6.271 0 0 0-.372-.196 3.494 3.494 0 0 0-.524-.2 2.5 2.5 0 0 0-.72-.092c-.24 0-.456.03-.648.092a1.556 1.556 0 0 0-.492.252c-.136.107-.24.23-.312.372a.999.999 0 0 0-.108.46c0 .208.06.381.18.52s.28.259.476.36c.198.101.422.19.672.268.251.077.508.16.772.248s.522.185.772.292a2.8 2.8 0 0 1 .672.4c.198.16.356.356.476.588.12.232.18.51.18.836 0 .373-.066.719-.2 1.036a2.26 2.26 0 0 1-.592.824 2.855 2.855 0 0 1-.96.548 3.95 3.95 0 0 1-1.312.2 4.092 4.092 0 0 1-1.536-.276 3.892 3.892 0 0 1-1.168-.708l.336-.544a.488.488 0 0 1 .152-.16.427.427 0 0 1 .232-.056c.096 0 .198.037.304.112.107.075.236.157.388.248.152.09.336.173.552.248.216.075.487.112.812.112.278 0 .52-.036.728-.108a1.53 1.53 0 0 0 .52-.292c.14-.123.242-.264.308-.424.067-.16.1-.33.1-.512a.85.85 0 0 0-.18-.556 1.52 1.52 0 0 0-.476-.376 3.879 3.879 0 0 0-.676-.272 49.762 49.762 0 0 1-.776-.244 8.745 8.745 0 0 1-.776-.292 2.728 2.728 0 0 1-.676-.412 1.866 1.866 0 0 1-.476-.612c-.12-.243-.18-.537-.18-.884a2.187 2.187 0 0 1 .752-1.644c.246-.216.547-.388.904-.516a3.618 3.618 0 0 1 1.224-.192c.534 0 1.012.084 1.436.252a3.4 3.4 0 0 1 1.1.692l-.32.52zm4.212-5.016v6.936h.368a.682.682 0 0 0 .264-.044c.07-.03.147-.09.232-.18l2.56-2.744c.08-.085.16-.155.24-.208a.569.569 0 0 1 .32-.08h1.296l-2.984 3.176c-.075.09-.148.17-.22.24a1.3 1.3 0 0 1-.244.184c.096.064.183.137.26.22.077.083.15.177.22.284l3.168 4h-1.28a.616.616 0 0 1-.3-.068.784.784 0 0 1-.236-.212l-2.664-3.32a.622.622 0 0 0-.24-.22.95.95 0 0 0-.36-.052h-.4V280h-1.432v-11.784h1.432zm8.917 3.68V280h-1.424v-8.104h1.424zm.32-2.544a.906.906 0 0 1-.084.388 1.12 1.12 0 0 1-.224.32 1.04 1.04 0 0 1-.324.22.972.972 0 0 1-.392.08.944.944 0 0 1-.388-.08 1.055 1.055 0 0 1-.54-.54 1 1 0 0 1 0-.784 1.028 1.028 0 0 1 .54-.548.982.982 0 0 1 .78 0 1.04 1.04 0 0 1 .548.548.96.96 0 0 1 .084.396zm4.204-1.136V280h-1.424v-11.784h1.424zm4.525 0V280h-1.424v-11.784h1.424zm7.58 5.016a.316.316 0 0 1-.296.176c-.08 0-.17-.03-.272-.088a6.271 6.271 0 0 0-.372-.196 3.494 3.494 0 0 0-.524-.2 2.5 2.5 0 0 0-.72-.092c-.24 0-.456.03-.648.092a1.556 1.556 0 0 0-.492.252c-.136.107-.24.23-.312.372a.999.999 0 0 0-.108.46c0 .208.06.381.18.52s.279.259.476.36c.198.101.422.19.672.268.25.077.508.16.772.248s.522.185.772.292c.25.107.475.24.672.4.198.16.356.356.476.588.12.232.18.51.18.836 0 .373-.066.719-.2 1.036a2.26 2.26 0 0 1-.592.824 2.855 2.855 0 0 1-.96.548 3.95 3.95 0 0 1-1.312.2 4.092 4.092 0 0 1-1.536-.276 3.892 3.892 0 0 1-1.168-.708l.336-.544a.488.488 0 0 1 .152-.16.427.427 0 0 1 .232-.056c.096 0 .198.037.304.112.107.075.236.157.388.248.152.09.336.173.552.248.216.075.487.112.812.112.278 0 .52-.036.728-.108a1.53 1.53 0 0 0 .52-.292c.139-.123.242-.264.308-.424.067-.16.1-.33.1-.512a.85.85 0 0 0-.18-.556 1.52 1.52 0 0 0-.476-.376 3.879 3.879 0 0 0-.676-.272 49.758 49.758 0 0 1-.776-.244 8.744 8.744 0 0 1-.776-.292 2.728 2.728 0 0 1-.676-.412 1.866 1.866 0 0 1-.476-.612c-.12-.243-.18-.537-.18-.884a2.187 2.187 0 0 1 .752-1.644c.246-.216.547-.388.904-.516a3.618 3.618 0 0 1 1.224-.192c.534 0 1.012.084 1.436.252.424.168.79.399 1.1.692l-.32.52z" fill="#9B9B9B"/><g transform="translate(65 160)"><use fill="#000" filter="url(#d)" xlink:href="#e"/><use fill="url(#f)" xlink:href="#e"/></g><path d="M164.08 184.72v1.184h-3.184V196h-1.456v-10.096h-3.184v-1.184h7.824zm3.325 4.272a3.23 3.23 0 0 1 1.264-1.416c.554-.336 1.216-.504 1.984-.504v1.584h-.448c-.822 0-1.494.21-2.016.632-.523.421-.784 1.117-.784 2.088V196h-1.456v-8.784h1.456v1.776zm5.724-1.776l2.848 6.912 2.64-6.912h1.616l-5.216 12.944h-1.648l1.824-4.304-3.696-8.64h1.632zm17.433 7.504V196h-1.088c-.896 0-1.565-.213-2.008-.64-.442-.427-.664-1.141-.664-2.144v-4.736h-1.312v-1.264h1.312v-2.192h1.472v2.192h2.272v1.264h-2.272v4.768c0 .565.104.952.312 1.16.208.208.568.312 1.08.312h.896zm6.189-7.616c.843 0 1.597.181 2.264.544.667.363 1.19.885 1.568 1.568.379.683.568 1.483.568 2.4 0 .917-.19 1.715-.568 2.392a3.906 3.906 0 0 1-1.568 1.56c-.667.363-1.421.544-2.264.544-.843 0-1.597-.181-2.264-.544a3.959 3.959 0 0 1-1.576-1.56c-.384-.677-.576-1.475-.576-2.392 0-.917.192-1.717.576-2.4a3.945 3.945 0 0 1 1.576-1.568c.667-.363 1.421-.544 2.264-.544zm0 1.28a3.04 3.04 0 0 0-1.448.352c-.443.235-.8.595-1.072 1.08-.272.485-.408 1.085-.408 1.8 0 .704.136 1.299.408 1.784.272.485.63.845 1.072 1.08a3.04 3.04 0 0 0 1.448.352 3.04 3.04 0 0 0 1.448-.352c.443-.235.8-.595 1.072-1.08.272-.485.408-1.08.408-1.784 0-.715-.136-1.315-.408-1.8-.272-.485-.63-.845-1.072-1.08a3.044 3.044 0 0 0-1.448-.352zm15.961-1.28c.779 0 1.472.181 2.08.544.608.363 1.085.885 1.432 1.568s.52 1.483.52 2.4c0 .917-.173 1.715-.52 2.392-.347.677-.824 1.197-1.432 1.56s-1.301.544-2.08.544c-.853 0-1.576-.216-2.168-.648-.592-.432-1-1-1.224-1.704v6.4h-1.456v-12.944h1.456v2.24a3.292 3.292 0 0 1 1.224-1.704c.592-.432 1.315-.648 2.168-.648zm-.416 1.296c-.565 0-1.077.13-1.536.392a2.704 2.704 0 0 0-1.072 1.128c-.256.49-.384 1.056-.384 1.696 0 .64.128 1.203.384 1.688a2.77 2.77 0 0 0 1.072 1.128 3 3 0 0 0 1.536.4c.907 0 1.63-.285 2.168-.856.539-.57.808-1.357.808-2.36s-.27-1.79-.808-2.36c-.539-.57-1.261-.856-2.168-.856zm6.525-3.76c0-.267.09-.483.272-.648.18-.165.42-.248.72-.248.298 0 .538.083.72.248a.836.836 0 0 1 .272.648.836.836 0 0 1-.272.648c-.182.165-.422.248-.72.248-.3 0-.54-.083-.72-.248a.836.836 0 0 1-.272-.648zm1.712 2.576V196h-1.456v-8.784h1.456zm6.652-.112c1.12 0 2.048.299 2.784.896.736.597 1.19 1.397 1.36 2.4h-1.536c-.107-.63-.397-1.123-.872-1.48s-1.064-.536-1.768-.536c-.512 0-.979.117-1.4.352-.421.235-.76.595-1.016 1.08-.256.485-.384 1.085-.384 1.8 0 .715.128 1.315.384 1.8.256.485.595.845 1.016 1.08.421.235.888.352 1.4.352.704 0 1.293-.181 1.768-.544.475-.363.765-.859.872-1.488h1.536c-.17 1.013-.624 1.816-1.36 2.408-.736.592-1.664.888-2.784.888-.843 0-1.59-.181-2.24-.544a3.844 3.844 0 0 1-1.528-1.56c-.368-.677-.552-1.475-.552-2.392 0-.917.184-1.717.552-2.4a3.832 3.832 0 0 1 1.528-1.568c.65-.363 1.397-.544 2.24-.544zM238.478 196l-3.36-3.952V196h-1.456v-11.84h1.456v6.88l3.312-3.824h1.776l-3.936 4.368 4.032 4.416h-1.824zm10.665-8.896c.992 0 1.79.259 2.392.776.603.517.968 1.213 1.096 2.088h-1.392a2.016 2.016 0 0 0-.648-1.288c-.368-.336-.861-.504-1.48-.504-.523 0-.93.125-1.224.376-.293.25-.44.59-.44 1.016 0 .32.099.579.296.776a1.9 1.9 0 0 0 .736.448c.293.101.696.21 1.208.328.65.15 1.176.301 1.576.456.4.155.741.403 1.024.744.283.341.424.8.424 1.376 0 .715-.27 1.296-.808 1.744-.539.448-1.256.672-2.152.672-1.045 0-1.899-.25-2.56-.752-.661-.501-1.05-1.2-1.168-2.096h1.408c.053.533.285.965.696 1.296.41.33.952.496 1.624.496.501 0 .893-.128 1.176-.384.283-.256.424-.592.424-1.008 0-.341-.101-.613-.304-.816a1.993 1.993 0 0 0-.752-.464c-.299-.107-.71-.219-1.232-.336a12.25 12.25 0 0 1-1.56-.448 2.39 2.39 0 0 1-.992-.712c-.272-.325-.408-.765-.408-1.32 0-.736.272-1.33.816-1.784.544-.453 1.285-.68 2.224-.68zm9.932 0c.843 0 1.598.181 2.264.544.667.363 1.19.885 1.568 1.568.38.683.568 1.483.568 2.4 0 .917-.189 1.715-.568 2.392a3.906 3.906 0 0 1-1.568 1.56c-.666.363-1.42.544-2.264.544-.842 0-1.597-.181-2.264-.544a3.959 3.959 0 0 1-1.576-1.56c-.384-.677-.576-1.475-.576-2.392 0-.917.192-1.717.576-2.4a3.945 3.945 0 0 1 1.576-1.568c.667-.363 1.422-.544 2.264-.544zm0 1.28c-.522 0-1.005.117-1.448.352-.442.235-.8.595-1.072 1.08-.272.485-.408 1.085-.408 1.8 0 .704.136 1.299.408 1.784.272.485.63.845 1.072 1.08.443.235.926.352 1.448.352.523 0 1.006-.117 1.448-.352.443-.235.8-.595 1.072-1.08.272-.485.408-1.08.408-1.784 0-.715-.136-1.315-.408-1.8-.272-.485-.629-.845-1.072-1.08a3.044 3.044 0 0 0-1.448-.352zm10.621-3.248c-.779-.01-1.32.123-1.624.4-.304.277-.456.757-.456 1.44v.24h2.08v1.28h-2.08V196h-1.456v-7.504h-1.264v-1.28h1.264v-.352c0-2.101 1.179-3.104 3.536-3.008v1.28zm6.205 9.584V196h-1.088c-.896 0-1.566-.213-2.008-.64-.443-.427-.664-1.141-.664-2.144v-4.736h-1.312v-1.264h1.312v-2.192h1.472v2.192h2.272v1.264h-2.272v4.768c0 .565.104.952.312 1.16.208.208.568.312 1.08.312h.896zm9.337-7.616c.992 0 1.789.259 2.392.776.602.517.968 1.213 1.096 2.088h-1.392a2.016 2.016 0 0 0-.648-1.288c-.368-.336-.862-.504-1.48-.504-.523 0-.931.125-1.224.376-.294.25-.44.59-.44 1.016 0 .32.098.579.296.776a1.9 1.9 0 0 0 .736.448c.293.101.696.21 1.208.328.65.15 1.176.301 1.576.456.4.155.741.403 1.024.744.282.341.424.8.424 1.376 0 .715-.27 1.296-.808 1.744-.539.448-1.256.672-2.152.672-1.046 0-1.899-.25-2.56-.752-.662-.501-1.051-1.2-1.168-2.096h1.408c.053.533.285.965.696 1.296.41.33.952.496 1.624.496.501 0 .893-.128 1.176-.384.282-.256.424-.592.424-1.008 0-.341-.102-.613-.304-.816a1.993 1.993 0 0 0-.752-.464c-.299-.107-.71-.219-1.232-.336a12.153 12.153 0 0 1-1.56-.448 2.39 2.39 0 0 1-.992-.712c-.272-.325-.408-.765-.408-1.32 0-.736.272-1.33.816-1.784.544-.453 1.285-.68 2.224-.68zM296.002 196l-3.36-3.952V196h-1.456v-11.84h1.456v6.88l3.312-3.824h1.776l-3.936 4.368 4.032 4.416h-1.824zm3.277-11.36c0-.267.09-.483.272-.648.181-.165.421-.248.72-.248s.539.083.72.248a.836.836 0 0 1 .272.648c0 .267-.09.483-.272.648-.181.165-.421.248-.72.248s-.539-.083-.72-.248a.836.836 0 0 1-.272-.648zm1.712 2.576V196h-1.456v-8.784h1.456zm4.22-3.056V196h-1.456v-11.84h1.456zm4.221 0V196h-1.456v-11.84h1.456zm5.517 2.944c.992 0 1.789.259 2.392.776.602.517.968 1.213 1.096 2.088h-1.392a2.016 2.016 0 0 0-.648-1.288c-.368-.336-.862-.504-1.48-.504-.523 0-.931.125-1.224.376-.294.25-.44.59-.44 1.016 0 .32.098.579.296.776a1.9 1.9 0 0 0 .736.448c.293.101.696.21 1.208.328.65.15 1.176.301 1.576.456.4.155.74.403 1.024.744.282.341.424.8.424 1.376 0 .715-.27 1.296-.808 1.744-.54.448-1.256.672-2.152.672-1.046 0-1.9-.25-2.56-.752-.662-.501-1.051-1.2-1.168-2.096h1.408c.053.533.285.965.696 1.296.41.33.952.496 1.624.496.5 0 .893-.128 1.176-.384.282-.256.424-.592.424-1.008 0-.341-.102-.613-.304-.816a1.993 1.993 0 0 0-.752-.464c-.3-.107-.71-.219-1.232-.336a12.153 12.153 0 0 1-1.56-.448 2.39 2.39 0 0 1-.992-.712c-.272-.325-.408-.765-.408-1.32 0-.736.272-1.33.816-1.784.544-.453 1.285-.68 2.224-.68zm14.52 7.616V196h-1.087c-.896 0-1.566-.213-2.008-.64-.443-.427-.664-1.141-.664-2.144v-4.736h-1.312v-1.264h1.312v-2.192h1.472v2.192h2.272v1.264h-2.272v4.768c0 .565.104.952.312 1.16.208.208.568.312 1.08.312h.896zm6.83-7.648c1.023 0 1.85.328 2.48.984.629.656.943 1.603.943 2.84V196h-1.456v-4.976c0-.875-.224-1.547-.672-2.016-.448-.47-1.056-.704-1.824-.704-.8 0-1.44.259-1.92.776s-.72 1.272-.72 2.264V196h-1.456v-11.84h1.456v5.136c.224-.715.622-1.264 1.192-1.648.571-.384 1.23-.576 1.976-.576zm9.692.032c.853 0 1.576.213 2.168.64a3.336 3.336 0 0 1 1.24 1.712v-2.24h1.456V196h-1.456v-2.24a3.336 3.336 0 0 1-1.24 1.712c-.592.427-1.315.64-2.168.64-.779 0-1.472-.181-2.08-.544-.608-.363-1.085-.883-1.432-1.56s-.52-1.475-.52-2.392c0-.917.173-1.717.52-2.4.347-.683.824-1.205 1.432-1.568s1.301-.544 2.08-.544zm.416 1.296c-.896 0-1.613.285-2.152.856-.539.57-.808 1.357-.808 2.36s.27 1.79.808 2.36c.539.57 1.256.856 2.152.856.576 0 1.09-.133 1.544-.4a2.785 2.785 0 0 0 1.064-1.128c.256-.485.384-1.048.384-1.688 0-.64-.128-1.205-.384-1.696a2.72 2.72 0 0 0-1.064-1.128 3.035 3.035 0 0 0-1.544-.392zm11.388 6.32V196h-1.088c-.896 0-1.565-.213-2.008-.64-.442-.427-.664-1.141-.664-2.144v-4.736h-1.312v-1.264h1.312v-2.192h1.472v2.192h2.272v1.264h-2.272v4.768c0 .565.104.952.312 1.16.208.208.568.312 1.08.312h.896zm10.186-7.616c.853 0 1.576.213 2.168.64a3.336 3.336 0 0 1 1.24 1.712v-2.24h1.456V196h-1.456v-2.24a3.336 3.336 0 0 1-1.24 1.712c-.592.427-1.315.64-2.168.64-.78 0-1.472-.181-2.08-.544-.608-.363-1.086-.883-1.432-1.56-.347-.677-.52-1.475-.52-2.392 0-.917.173-1.717.52-2.4.346-.683.824-1.205 1.432-1.568s1.3-.544 2.08-.544zm.416 1.296c-.896 0-1.614.285-2.152.856-.54.57-.808 1.357-.808 2.36s.269 1.79.808 2.36c.538.57 1.256.856 2.152.856.576 0 1.09-.133 1.544-.4a2.785 2.785 0 0 0 1.064-1.128c.256-.485.384-1.048.384-1.688 0-.64-.128-1.205-.384-1.696a2.72 2.72 0 0 0-1.064-1.128 3.035 3.035 0 0 0-1.544-.392zm8.652.592a3.23 3.23 0 0 1 1.264-1.416c.555-.336 1.216-.504 1.984-.504v1.584h-.448c-.821 0-1.493.21-2.016.632-.523.421-.784 1.117-.784 2.088V196h-1.456v-8.784h1.456v1.776zm13.197 2.128c0 .31-.022.576-.064.8h-7.024c.032 1.003.317 1.755.856 2.256.538.501 1.197.752 1.976.752.704 0 1.293-.179 1.768-.536a2.22 2.22 0 0 0 .872-1.432h1.552a3.69 3.69 0 0 1-.712 1.632c-.368.48-.846.853-1.432 1.12-.587.267-1.248.4-1.984.4-.843 0-1.59-.181-2.24-.544a3.844 3.844 0 0 1-1.528-1.56c-.368-.677-.552-1.475-.552-2.392 0-.917.184-1.717.552-2.4a3.832 3.832 0 0 1 1.528-1.568c.65-.363 1.397-.544 2.24-.544.853 0 1.597.181 2.232.544.634.363 1.12.848 1.456 1.456.336.608.504 1.28.504 2.016zm-1.472.096c.032-.65-.075-1.195-.32-1.632a2.34 2.34 0 0 0-1.008-.976 3.069 3.069 0 0 0-1.392-.32c-.8 0-1.472.248-2.016.744s-.838 1.224-.88 2.184h5.616zm-230.15 20.776a3.23 3.23 0 0 1 1.264-1.416c.555-.336 1.216-.504 1.984-.504v1.584h-.448c-.821 0-1.493.21-2.016.632-.523.421-.784 1.117-.784 2.088V219h-1.456v-8.784h1.456v1.776zm13.197 2.128c0 .31-.022.576-.064.8h-7.024c.032 1.003.317 1.755.856 2.256.538.501 1.197.752 1.976.752.704 0 1.293-.179 1.768-.536a2.22 2.22 0 0 0 .872-1.432h1.552a3.69 3.69 0 0 1-.712 1.632c-.368.48-.846.853-1.432 1.12-.587.267-1.248.4-1.984.4-.843 0-1.59-.181-2.24-.544a3.844 3.844 0 0 1-1.528-1.56c-.368-.677-.552-1.475-.552-2.392 0-.917.184-1.717.552-2.4a3.832 3.832 0 0 1 1.528-1.568c.65-.363 1.397-.544 2.24-.544.853 0 1.597.181 2.232.544.634.363 1.12.848 1.456 1.456.336.608.504 1.28.504 2.016zm-1.472.096c.032-.65-.075-1.195-.32-1.632a2.34 2.34 0 0 0-1.008-.976 3.069 3.069 0 0 0-1.392-.32c-.8 0-1.472.248-2.016.744s-.838 1.224-.88 2.184h5.616zm5.26-7.056V219h-1.456v-11.84h1.456zm10.845 6.96c0 .31-.022.576-.064.8h-7.024c.032 1.003.317 1.755.856 2.256.538.501 1.197.752 1.976.752.704 0 1.293-.179 1.768-.536a2.22 2.22 0 0 0 .872-1.432h1.552a3.69 3.69 0 0 1-.712 1.632c-.368.48-.846.853-1.432 1.12-.587.267-1.248.4-1.984.4-.843 0-1.59-.181-2.24-.544a3.844 3.844 0 0 1-1.528-1.56c-.368-.677-.552-1.475-.552-2.392 0-.917.184-1.717.552-2.4a3.832 3.832 0 0 1 1.528-1.568c.65-.363 1.397-.544 2.24-.544.853 0 1.597.181 2.232.544.634.363 1.12.848 1.456 1.456.336.608.504 1.28.504 2.016zm-1.472.096c.032-.65-.075-1.195-.32-1.632a2.34 2.34 0 0 0-1.008-.976 3.069 3.069 0 0 0-1.392-.32c-.8 0-1.472.248-2.016.744s-.838 1.224-.88 2.184h5.616zm7.212 3.232l2.72-7.232h1.568l-3.44 8.784h-1.728l-3.44-8.784h1.568l2.752 7.232zm9.74-7.344c.854 0 1.577.213 2.169.64a3.336 3.336 0 0 1 1.24 1.712v-2.24h1.456V219h-1.456v-2.24a3.336 3.336 0 0 1-1.24 1.712c-.592.427-1.315.64-2.168.64-.779 0-1.472-.181-2.08-.544-.608-.363-1.085-.883-1.432-1.56s-.52-1.475-.52-2.392c0-.917.173-1.717.52-2.4.347-.683.824-1.205 1.432-1.568s1.301-.544 2.08-.544zm.417 1.296c-.896 0-1.613.285-2.152.856-.539.57-.808 1.357-.808 2.36s.27 1.79.808 2.36c.539.57 1.256.856 2.152.856.576 0 1.09-.133 1.544-.4a2.785 2.785 0 0 0 1.064-1.128c.256-.485.384-1.048.384-1.688 0-.64-.128-1.205-.384-1.696a2.72 2.72 0 0 0-1.064-1.128 3.035 3.035 0 0 0-1.544-.392zm11.82-1.328c1.024 0 1.851.328 2.48.984.63.656.944 1.603.944 2.84V219h-1.456v-4.976c0-.875-.224-1.547-.672-2.016-.448-.47-1.056-.704-1.824-.704-.8 0-1.44.259-1.92.776s-.72 1.272-.72 2.264V219h-1.456v-8.784h1.456v2.08c.224-.715.622-1.264 1.192-1.648.571-.384 1.23-.576 1.976-.576zm10.285 7.648V219h-1.088c-.896 0-1.565-.213-2.008-.64-.443-.427-.664-1.141-.664-2.144v-4.736h-1.312v-1.264h1.312v-2.192h1.472v2.192h2.272v1.264h-2.272v4.768c0 .565.104.952.312 1.16.208.208.568.312 1.08.312h.896zm10.777 0V219h-1.088c-.896 0-1.565-.213-2.008-.64-.443-.427-.664-1.141-.664-2.144v-4.736h-1.312v-1.264h1.312v-2.192h1.472v2.192h2.272v1.264h-2.272v4.768c0 .565.104.952.312 1.16.208.208.568.312 1.08.312h.896zm6.189-7.616c.842 0 1.597.181 2.264.544a3.9 3.9 0 0 1 1.568 1.568c.378.683.568 1.483.568 2.4 0 .917-.19 1.715-.568 2.392a3.906 3.906 0 0 1-1.568 1.56c-.667.363-1.422.544-2.264.544-.843 0-1.598-.181-2.264-.544a3.959 3.959 0 0 1-1.576-1.56c-.384-.677-.576-1.475-.576-2.392 0-.917.192-1.717.576-2.4a3.945 3.945 0 0 1 1.576-1.568c.666-.363 1.421-.544 2.264-.544zm0 1.28c-.523 0-1.006.117-1.448.352-.443.235-.8.595-1.072 1.08-.272.485-.408 1.085-.408 1.8 0 .704.136 1.299.408 1.784.272.485.629.845 1.072 1.08.442.235.925.352 1.448.352.522 0 1.005-.117 1.448-.352.442-.235.8-.595 1.072-1.08.272-.485.408-1.08.408-1.784 0-.715-.136-1.315-.408-1.8-.272-.485-.63-.845-1.072-1.08a3.044 3.044 0 0 0-1.448-.352zm11.72-1.168l2.849 6.912 2.64-6.912h1.616l-5.216 12.944h-1.648l1.824-4.304-3.696-8.64h1.632zm12.845-.112c.843 0 1.598.181 2.264.544.667.363 1.19.885 1.568 1.568.38.683.568 1.483.568 2.4 0 .917-.189 1.715-.568 2.392a3.906 3.906 0 0 1-1.568 1.56c-.666.363-1.42.544-2.264.544-.842 0-1.597-.181-2.264-.544a3.959 3.959 0 0 1-1.576-1.56c-.384-.677-.576-1.475-.576-2.392 0-.917.192-1.717.576-2.4a3.945 3.945 0 0 1 1.576-1.568c.667-.363 1.422-.544 2.264-.544zm0 1.28c-.522 0-1.005.117-1.448.352-.442.235-.8.595-1.072 1.08-.272.485-.408 1.085-.408 1.8 0 .704.136 1.299.408 1.784.272.485.63.845 1.072 1.08.443.235.926.352 1.448.352.523 0 1.006-.117 1.448-.352.443-.235.8-.595 1.072-1.08.272-.485.408-1.08.408-1.784 0-.715-.136-1.315-.408-1.8-.272-.485-.629-.845-1.072-1.08a3.044 3.044 0 0 0-1.448-.352zm14.541-1.168V219h-1.456v-2.064c-.224.715-.621 1.261-1.192 1.64-.57.379-1.235.568-1.992.568-1.013 0-1.835-.328-2.464-.984-.63-.656-.944-1.597-.944-2.824v-5.12h1.456v4.976c0 .875.224 1.55.672 2.024.448.475 1.056.712 1.824.712.8 0 1.44-.259 1.92-.776s.72-1.272.72-2.264v-4.672h1.456zm4.22 1.776a3.23 3.23 0 0 1 1.265-1.416c.554-.336 1.216-.504 1.984-.504v1.584h-.448c-.822 0-1.494.21-2.016.632-.523.421-.784 1.117-.784 2.088V219h-1.456v-8.784h1.456v1.776zm13.69 5.728V219h-1.088c-.896 0-1.566-.213-2.008-.64-.443-.427-.664-1.141-.664-2.144v-4.736h-1.312v-1.264h1.312v-2.192h1.472v2.192h2.272v1.264h-2.272v4.768c0 .565.104.952.312 1.16.208.208.568.312 1.08.312h.896zm5.804-7.616c.854 0 1.576.213 2.168.64a3.336 3.336 0 0 1 1.24 1.712v-2.24h1.456V219h-1.456v-2.24a3.336 3.336 0 0 1-1.24 1.712c-.592.427-1.314.64-2.168.64-.778 0-1.472-.181-2.08-.544-.608-.363-1.085-.883-1.432-1.56-.346-.677-.52-1.475-.52-2.392 0-.917.174-1.717.52-2.4.347-.683.824-1.205 1.432-1.568s1.302-.544 2.08-.544zm.416 1.296c-.896 0-1.613.285-2.152.856-.538.57-.808 1.357-.808 2.36s.27 1.79.808 2.36c.539.57 1.256.856 2.152.856.576 0 1.09-.133 1.544-.4a2.785 2.785 0 0 0 1.064-1.128c.256-.485.384-1.048.384-1.688 0-.64-.128-1.205-.384-1.696a2.72 2.72 0 0 0-1.064-1.128 3.035 3.035 0 0 0-1.544-.392zm8.653.592a3.23 3.23 0 0 1 1.264-1.416c.555-.336 1.216-.504 1.984-.504v1.584h-.448c-.821 0-1.493.21-2.016.632-.523.421-.784 1.117-.784 2.088V219h-1.456v-8.784h1.456v1.776zm8.716-1.888c.854 0 1.576.213 2.168.64a3.336 3.336 0 0 1 1.24 1.712v-2.24h1.456v8.928c0 .81-.17 1.53-.512 2.16a3.678 3.678 0 0 1-1.44 1.472c-.618.352-1.338.528-2.16.528-1.184 0-2.149-.285-2.896-.856-.746-.57-1.22-1.341-1.424-2.312h1.44c.171.587.494 1.048.968 1.384.475.336 1.086.504 1.832.504.79 0 1.443-.253 1.96-.76.518-.507.776-1.213.776-2.12v-2.384a3.336 3.336 0 0 1-1.24 1.712c-.592.427-1.314.64-2.168.64-.778 0-1.472-.181-2.08-.544-.608-.363-1.085-.883-1.432-1.56-.346-.677-.52-1.475-.52-2.392 0-.917.174-1.717.52-2.4.347-.683.824-1.205 1.432-1.568s1.302-.544 2.08-.544zm.416 1.296c-.896 0-1.613.285-2.152.856-.538.57-.808 1.357-.808 2.36s.27 1.79.808 2.36c.54.57 1.256.856 2.152.856.576 0 1.091-.133 1.544-.4a2.785 2.785 0 0 0 1.064-1.128c.256-.485.384-1.048.384-1.688 0-.64-.128-1.205-.384-1.696a2.72 2.72 0 0 0-1.064-1.128 3.035 3.035 0 0 0-1.544-.392zm15.277 2.72c0 .31-.021.576-.064.8h-7.024c.032 1.003.317 1.755.856 2.256.539.501 1.197.752 1.976.752.704 0 1.293-.179 1.768-.536.475-.357.765-.835.872-1.432h1.552a3.69 3.69 0 0 1-.712 1.632c-.368.48-.845.853-1.432 1.12-.587.267-1.248.4-1.984.4-.843 0-1.59-.181-2.24-.544a3.844 3.844 0 0 1-1.528-1.56c-.368-.677-.552-1.475-.552-2.392 0-.917.184-1.717.552-2.4a3.832 3.832 0 0 1 1.528-1.568c.65-.363 1.397-.544 2.24-.544.853 0 1.597.181 2.232.544.635.363 1.12.848 1.456 1.456.336.608.504 1.28.504 2.016zm-1.472.096c.032-.65-.075-1.195-.32-1.632a2.34 2.34 0 0 0-1.008-.976 3.069 3.069 0 0 0-1.392-.32c-.8 0-1.472.248-2.016.744s-.837 1.224-.88 2.184h5.616zm7.997 3.504V219h-1.088c-.896 0-1.566-.213-2.008-.64-.443-.427-.664-1.141-.664-2.144v-4.736h-1.312v-1.264h1.312v-2.192h1.472v2.192h2.272v1.264h-2.272v4.768c0 .565.104.952.312 1.16.208.208.568.312 1.08.312h.896zm7.417-9.184c-.299 0-.542-.083-.728-.248a.825.825 0 0 1-.28-.648c0-.267.093-.483.28-.648.186-.165.429-.248.728-.248.288 0 .522.083.704.248a.836.836 0 0 1 .272.648.836.836 0 0 1-.272.648c-.182.165-.416.248-.704.248zm-2.448 13.344h.608c.384 0 .664-.085.84-.256.176-.17.264-.464.264-.88v-10.528h1.472v10.576c0 1.579-.8 2.368-2.4 2.368h-.784v-1.28zm9.916-11.776c.843 0 1.598.181 2.264.544.667.363 1.19.885 1.568 1.568.379.683.568 1.483.568 2.4 0 .917-.19 1.715-.568 2.392a3.906 3.906 0 0 1-1.568 1.56c-.666.363-1.421.544-2.264.544-.842 0-1.597-.181-2.264-.544a3.959 3.959 0 0 1-1.576-1.56c-.384-.677-.576-1.475-.576-2.392 0-.917.192-1.717.576-2.4a3.945 3.945 0 0 1 1.576-1.568c.667-.363 1.422-.544 2.264-.544zm0 1.28c-.522 0-1.005.117-1.448.352-.442.235-.8.595-1.072 1.08-.272.485-.408 1.085-.408 1.8 0 .704.136 1.299.408 1.784.272.485.63.845 1.072 1.08.443.235.926.352 1.448.352.523 0 1.006-.117 1.448-.352.443-.235.8-.595 1.072-1.08.272-.485.408-1.08.408-1.784 0-.715-.136-1.315-.408-1.8-.272-.485-.63-.845-1.072-1.08a3.044 3.044 0 0 0-1.448-.352zm11.58-1.28c.78 0 1.473.181 2.08.544.609.363 1.086.885 1.433 1.568s.52 1.483.52 2.4c0 .917-.173 1.715-.52 2.392-.347.677-.824 1.197-1.432 1.56s-1.301.544-2.08.544c-.853 0-1.576-.216-2.168-.648-.592-.432-1-1-1.224-1.704V219h-1.456v-11.84h1.456v5.296a3.292 3.292 0 0 1 1.224-1.704c.592-.432 1.315-.648 2.168-.648zm-.415 1.296c-.565 0-1.077.13-1.536.392a2.704 2.704 0 0 0-1.072 1.128c-.256.49-.384 1.056-.384 1.696 0 .64.128 1.203.384 1.688a2.77 2.77 0 0 0 1.072 1.128 3 3 0 0 0 1.536.4c.907 0 1.63-.285 2.168-.856.539-.57.808-1.357.808-2.36s-.27-1.79-.808-2.36c-.539-.57-1.261-.856-2.168-.856zm7.852 5.888V219h-1.76v-1.712h1.76z" fill="#FFF"/><g transform="translate(80 172)" fill-rule="nonzero"><circle fill="#F7F7F7" cx="30.5" cy="30.5" r="30.5"/><path d="M35.095 40.243c.502-1.648 1.507-3.132 2.845-4.285a11.19 11.19 0 0 0 4.1-8.653c0-6.428-5.438-11.701-12.132-11.372-5.941.247-10.795 5.192-10.962 11.042a11.217 11.217 0 0 0 4.1 8.983c1.423 1.153 2.427 2.637 2.929 4.285h9.12z" fill="#FFD15C"/><path d="M29.405 40.407h.754L26.812 28.13h.25c.419 0 .837-.165 1.172-.494a.765.765 0 0 1 .586-.248c.25 0 .418.083.585.248.586.659 1.59.659 2.176 0a.765.765 0 0 1 .586-.248.91.91 0 0 1 .585.248c.335.33.67.494 1.172.494h.25l-3.262 12.278h.753l3.43-12.855c0-.165 0-.33-.167-.412-.167-.082-.335 0-.418.083-.168.164-.335.247-.502.247-.251 0-.419-.083-.67-.247-.334-.33-.67-.495-1.088-.495-.418 0-.753.165-1.087.495a.817.817 0 0 1-1.172 0c-.25-.33-.67-.495-1.088-.495-.418 0-.836.165-1.087.495-.168.164-.419.247-.67.247-.167 0-.418-.083-.502-.247-.083-.083-.25-.165-.418-.083-.167.083-.251.247-.167.412l3.346 12.855z" fill="#FFF"/><g fill="#344A5E"><path d="M27.9 47.824c.418.989 1.422 1.73 2.593 1.73 1.172 0 2.176-.741 2.594-1.73H27.9z"/><path d="M33.59 47.906h-6.11a1.488 1.488 0 0 1-1.506-1.483V40.16h9.12v6.263c0 .824-.669 1.483-1.506 1.483z"/></g><path d="M35.012 43.292h-9.037a.922.922 0 0 1-.92-.907c0-.494.418-.906.92-.906h9.037c.502 0 .92.412.92.906a.922.922 0 0 1-.92.907zm0 2.884h-9.037a.922.922 0 0 1-.92-.907c0-.494.418-.906.92-.906h9.037c.502 0 .92.412.92.906a.922.922 0 0 1-.92.907z" fill="#415A6B"/><path d="M30.493 10c-.418 0-.836.33-.836.824v2.802c0 .412.334.824.836.824s.837-.33.837-.824v-2.802c0-.494-.418-.824-.837-.824zM19.28 15.027a.817.817 0 0 0-1.17 0 .788.788 0 0 0 0 1.153l2.008 1.978c.334.33.836.33 1.171 0a.788.788 0 0 0 0-1.154l-2.008-1.977zm-2.593 11.372h-2.845c-.418 0-.837.33-.837.824 0 .412.335.824.837.824h2.845c.418 0 .837-.33.837-.824 0-.412-.419-.824-.837-.824zm3.431 9.888l-2.009 1.978a.788.788 0 0 0 0 1.154c.335.33.837.33 1.172 0l2.008-1.978a.788.788 0 0 0 0-1.154.817.817 0 0 0-1.171 0zm20.751 0a.817.817 0 0 0-1.172 0 .788.788 0 0 0 0 1.154l2.009 1.978c.334.33.836.33 1.171 0a.788.788 0 0 0 0-1.154l-2.008-1.978zm6.276-9.888H44.3c-.419 0-.837.33-.837.824 0 .412.335.824.837.824h2.845c.418 0 .836-.33.836-.824a.832.832 0 0 0-.836-.824zm-5.439-11.372l-2.009 1.977a.788.788 0 0 0 0 1.154c.335.33.837.33 1.172 0l2.008-1.978a.788.788 0 0 0 0-1.153.817.817 0 0 0-1.171 0z" fill="#FFD15C"/></g></g></svg>