<?xml version="1.0" encoding="UTF-8"?>
<svg width="150px" height="27px" viewBox="0 0 150 27" version="1.1" xmlns="http://www.w3.org/2000/svg" xmlns:xlink="http://www.w3.org/1999/xlink">
    <!-- Generator: Sketch 52.4 (67378) - http://www.bohemiancoding.com/sketch -->
    <title>The-Muse-Logo</title>
    <desc>Created with Sketch.</desc>
    <g id="Homepage" stroke="none" stroke-width="1" fill="none" fill-rule="evenodd" opacity="0.703264509">
        <g transform="translate(-830.000000, -6642.000000)" fill="#FFFFFF" id="Banner">
            <g transform="translate(-24.000000, 5637.000000)">
                <g id="Logos" transform="translate(284.000000, 991.000000)">
                    <g id="The-Muse-Logo" transform="translate(570.000000, 14.000000)">
                        <path d="M2.5016129,11.209469 L0.0450372208,11.209469 L0.0450372208,7.44827586 L2.61327543,7.44827586 L2.61327543,2.27172414 L7.22866005,2.27172414 L7.22866005,7.44827586 L11.5462779,7.44827586 L11.5462779,11.2096552 L7.22866005,11.2096552 L7.22866005,18.8811931 C7.22866005,22.009469 9.68523573,22.4561793 10.9879653,22.4561793 C11.5090571,22.4561793 11.8440447,22.3818828 11.8440447,22.3818828 L11.8440447,26.5156759 C11.8440447,26.5156759 11.2485112,26.6274 10.3924318,26.6274 C7.74975186,26.6274 2.50179901,25.845331 2.50179901,19.4772414 L2.50179901,11.209469 L2.5016129,11.209469 Z" id="Path"></path>
                        <path d="M15.8266749,4.84137931 C15.8266749,4.28275862 15.5289082,4.02206897 15.0078164,4.02206897 L13.5189826,4.02206897 L13.5189826,0 L18.0227047,0 C19.7720844,0 20.5537221,0.782068966 20.5537221,2.49517241 L20.5537221,9.1611931 C20.5537221,10.0922276 20.4792804,10.7625724 20.4792804,10.7625724 L20.5537221,10.7625724 C21.4470223,8.93774483 23.7919355,7.0011931 27.0673697,7.0011931 C31.3105459,7.0011931 33.6926799,9.19843448 33.6926799,14.2258345 L33.6926799,21.6366828 C33.6926799,22.1580621 33.9904467,22.4558069 34.5115385,22.4558069 L36.0003722,22.4558069 L36.0003722,26.4406345 L31.4966501,26.4406345 C29.7472705,26.4406345 29.0028536,25.6958069 29.0028536,23.9082207 L29.0028536,15.1939241 C29.0028536,12.8849586 28.3700993,11.3208207 25.9879653,11.3208207 C23.4941687,11.3208207 21.5586849,12.9594414 20.8514888,15.2684069 C20.6281638,16.0132345 20.5537221,16.8325448 20.5537221,17.7263379 L20.5537221,26.4406345 L15.826861,26.4406345 L15.826861,4.84137931 L15.8266749,4.84137931 Z" id="Path"></path>
                        <path d="M47.5388337,7.00137931 C52.9728908,7.00137931 55.9505583,10.9862069 55.9505583,16.0136069 C55.9505583,16.5722276 55.8388958,17.7637655 55.8388958,17.7637655 L42.7373449,17.7637655 C43.1095533,21.1154897 45.566129,22.8658345 48.432134,22.8658345 C51.4842432,22.8658345 53.7547146,20.7430759 53.7547146,20.7430759 L55.7274194,24.0203172 C55.7274194,24.0203172 52.8241935,26.8879034 48.0973325,26.8879034 C41.8070099,26.8879034 37.8990074,22.3444552 37.8990074,16.9446414 C37.8988213,11.0977448 41.8440447,7.00137931 47.5388337,7.00137931 Z M51.1120347,14.4867103 C51.0375931,12.2149862 49.4743176,10.6508483 47.5388337,10.6508483 C45.1194789,10.6508483 43.4073201,12.1032621 42.8862283,14.4867103 L51.1120347,14.4867103 Z" id="Shape" fill-rule="nonzero"></path>
                        <path d="M60.6937965,10.6461931 C60.6937965,10.1222069 60.3945409,9.82278621 59.8708437,9.82278621 L58.2997519,9.82278621 L58.2997519,7.61455862 L60.9182382,7.61455862 C62.48933,7.61455862 63.200062,8.28825517 63.200062,9.71050345 L63.200062,10.5713379 C63.200062,11.3198897 63.1252481,11.918731 63.1252481,11.918731 L63.200062,11.918731 C64.1352357,9.37365517 67.0903846,7.16542759 70.0083127,7.16542759 C73.4871588,7.16542759 75.2826923,8.77481379 75.8437965,11.8814897 L75.9186104,11.8814897 C76.928598,9.33641379 79.6593052,7.16542759 82.8390819,7.16542759 C87.4027295,7.16542759 89.0860422,9.82278621 89.0860422,14.4639931 L89.0860422,23.4093724 C89.0860422,23.9709724 89.3852978,24.2327793 89.908995,24.2327793 L91.4800868,24.2327793 L91.4800868,26.4410069 L88.8241935,26.4410069 C87.2156948,26.4410069 86.5423697,25.7673103 86.5423697,24.1577379 L86.5423697,15.1000759 C86.5423697,12.0310138 85.9064516,9.48593793 82.4650124,9.48593793 C79.6220844,9.48593793 77.2652605,12.0310138 76.5171216,14.8006552 C76.255273,15.6240621 76.180273,16.5223241 76.180273,17.532869 L76.180273,26.4408207 L73.6366005,26.4408207 L73.6366005,15.1000759 C73.6366005,12.2555793 73.2251241,9.48593793 69.671464,9.48593793 C66.6040943,9.48593793 64.3220844,12.1432966 63.5365385,15.0254069 C63.3120968,15.8113862 63.2372829,16.6722207 63.2372829,17.5330552 L63.2372829,26.4410069 L60.6936104,26.4410069 L60.6936104,10.6461931 L60.6937965,10.6461931 Z" id="Path"></path>
                        <path d="M95.4448511,10.6461931 C95.4448511,10.1222069 95.1457816,9.82278621 94.6218983,9.82278621 L93.0508065,9.82278621 L93.0508065,7.61437241 L95.7066998,7.61455862 C97.3153846,7.61455862 97.9887097,8.28825517 97.9887097,9.82278621 L97.9887097,18.9176897 C97.9887097,21.8746552 98.4748139,24.4945862 102.103474,24.4945862 C106.367866,24.4945862 109.023945,20.7142138 109.023945,16.6346069 L109.023945,7.61437241 L111.567618,7.61437241 L111.567618,23.4091862 C111.567618,23.9707862 111.866873,24.2325931 112.390757,24.2325931 L113.961663,24.2325931 L113.961663,26.4408207 L111.380583,26.4408207 C109.809491,26.4408207 109.098759,25.7671241 109.098759,24.3448759 L109.098759,23.4840414 C109.098759,22.7353034 109.173387,22.1366483 109.173387,22.1366483 L109.098759,22.1366483 C108.350434,23.9707862 105.881576,26.8899517 101.766811,26.8899517 C97.3153846,26.8899517 95.4448511,24.4945862 95.4448511,19.5915724 L95.4448511,10.6461931 Z" id="Path"></path>
                        <path d="M117.365323,21.8372276 C117.365323,21.8372276 119.460298,24.6817241 123.163586,24.6817241 C125.258375,24.6817241 127.128722,23.6709931 127.128722,21.6875172 C127.128722,17.5702966 116.579777,18.3190345 116.579777,12.2555793 C116.579777,8.84966897 119.497705,7.16542759 123.27562,7.16542759 C125.183375,7.16542759 128.999069,7.91397931 128.999069,10.5715241 L128.999069,12.1809103 L126.605025,12.1809103 L126.605025,11.2826483 C126.605025,9.89782759 124.58505,9.37384138 123.35062,9.37384138 C120.732134,9.37384138 119.160856,10.2721034 119.160856,12.1060552 C119.160856,16.3353724 129.709988,15.3622552 129.709988,21.6128483 C129.709988,24.7569517 126.86706,26.8903241 123.126179,26.8903241 C118.225682,26.8903241 115.906452,23.5966966 115.906452,23.5966966 L117.365323,21.8372276 Z" id="Path"></path>
                        <path d="M142.053536,7.16542759 C147.253288,7.16542759 149.946588,11.1701793 149.946588,15.8488138 C149.946588,16.2979448 149.87196,17.1213517 149.87196,17.1213517 L135.432506,17.1213517 C135.50732,21.8746552 138.836538,24.606869 142.726861,24.606869 C146.168486,24.606869 148.375496,22.2863586 148.375496,22.2863586 L149.610112,24.1951655 C149.610112,24.1951655 146.879218,26.8901379 142.614826,26.8901379 C137.041191,26.8901379 132.776613,22.8477724 132.776613,17.0464966 C132.776427,10.8707586 137.003598,7.16542759 142.053536,7.16542759 Z M147.328102,15.1002621 C147.178474,11.2077931 144.784429,9.2988 142.016315,9.2988 C138.911352,9.2988 136.180645,11.3198897 135.544727,15.1002621 L147.328102,15.1002621 Z" id="Shape" fill-rule="nonzero"></path>
                    </g>
                </g>
            </g>
        </g>
    </g>
</svg>