<?xml version="1.0" encoding="UTF-8"?>
<svg width="90px" height="29px" viewBox="0 0 90 29" version="1.1" xmlns="http://www.w3.org/2000/svg" xmlns:xlink="http://www.w3.org/1999/xlink">
    <!-- Generator: Sketch 52.4 (67378) - http://www.bohemiancoding.com/sketch -->
    <title>University_of_California,_Los_Angeles_logo</title>
    <desc>Created with Sketch.</desc>
    <g id="Homepage" stroke="none" stroke-width="1" fill="none" fill-rule="evenodd">
        <g transform="translate(-833.000000, -1184.000000)" fill="#FFFFFF" fill-rule="nonzero" id="Logos-Section">
            <g transform="translate(252.000000, 1037.000000)">
                <g id="Logos" transform="translate(11.000000, 135.000000)">
                    <g id="University_of_California,_Los_Angeles_logo" transform="translate(570.000000, 12.000000)">
                        <path d="M0.0703839373,20.5088596 C-0.0405654076,19.5630329 0.0128568996,18.1854317 0.0128568996,17.4945924 L1.45516798,1.23077963 L6.75604734,1.23077963 L5.31355383,17.638213 C5.00536459,21.1994555 6.39428376,23.72024 9.94460199,23.72024 C13.5483729,23.72024 15.4632449,21.1706705 15.767299,18.0124176 L17.2959007,1.23011021 L22.6214084,1.23011021 L21.1503338,17.7860326 C20.5422256,24.1807995 16.3262113,28.9427952 9.50080461,28.9427952 C4.17505362,28.9427952 0.73553271,25.5050299 0.0702623157,20.5087379 L0.0703839373,20.5088596 Z M24.7825642,15.0024712 C25.4770238,7.2013181 30.7493221,0.716484091 39.81804,0.716484091 C42.2301621,0.716484091 44.5313044,1.26341679 46.8118926,2.75613965 L46.1995277,9.20811133 C44.120284,6.42412389 41.6218714,5.99642669 39.3206075,5.99642669 C33.6622821,5.99642669 30.5559437,9.9277356 30.1120247,14.8911652 C29.6928861,19.7641626 32.1912683,23.6952281 37.6854045,23.6952281 C40.0728373,23.6952281 42.5958783,23.0043888 45.2587842,20.3396186 L44.6752801,26.9644218 C42.094712,28.370808 39.68259,29 37.2703463,29 C28.2508851,29 24.1212222,22.313732 24.7822358,15.0018626 L24.7825642,15.0024712 Z M51.0817002,1.23011021 L56.3784444,1.23011021 L54.4348089,23.3172504 L62.0367698,23.3172504 C62.5915104,23.3172504 64.3954392,23.2925793 64.8926892,23.2925793 C64.8680609,23.5516501 64.3954756,28.3671323 64.3954756,28.3671323 L48.6655403,28.3671323 L51.0817367,1.23014672 L51.0817002,1.23011021 Z M80.0970123,0.00060856175 L79.7107481,0.00060856175 L65.1763535,28.3711488 L70.8346789,28.3711488 L72.8563955,24.0656353 L83.1212622,24.0656353 L84.3992017,28.3711488 L90,28.3711488 L80.1060792,0 L80.0970123,0.00060856175 Z M78.7500587,11.3581965 C78.9185351,10.9839797 79.0541432,10.4987247 79.136323,10.23966 L79.2226196,10.23966 C79.247248,10.5850918 79.3047994,10.9880693 79.4157487,11.3869815 C79.6910636,12.6206579 81.7744181,19.4796356 81.7744181,19.4796356 L75.0560384,19.4796356 C75.0560384,19.4796356 78.6638837,11.5592045 78.7501743,11.3577705 L78.7500587,11.3581965 Z" id="Shape"></path>
                    </g>
                </g>
            </g>
        </g>
    </g>
</svg>