<?xml version="1.0" encoding="UTF-8"?>
<svg width="100px" height="22px" viewBox="0 0 100 22" version="1.1" xmlns="http://www.w3.org/2000/svg" xmlns:xlink="http://www.w3.org/1999/xlink">
    <!-- Generator: Sketch 52.4 (67378) - http://www.bohemiancoding.com/sketch -->
    <title>Verizon</title>
    <desc>Created with Sketch.</desc>
    <g id="Homepage" stroke="none" stroke-width="1" fill="none" fill-rule="evenodd">
        <g transform="translate(-263.000000, -1188.000000)" fill="#FFFFFF" id="Logos-Section">
            <g transform="translate(252.000000, 1037.000000)">
                <g id="Logos" transform="translate(11.000000, 135.000000)">
                    <g id="Verizon" transform="translate(0.000000, 15.000000)">
                        <g id="g3346" transform="translate(94.236890, 7.994454) scale(-1, 1) rotate(-180.000000) translate(-94.236890, -7.994454) translate(87.736890, 0.494454)">
                            <polygon id="path3348" points="9.85837675 14.2980259 4.41901738 2.86673281 2.36354583 7.20395673 0.141960625 7.20395673 3.51697591 0.109887566 5.31218631 0.109887566 12.0627098 14.2960933 12.0627098 14.2980259"></polygon>
                        </g>
                        <path d="M39.7943226,3.2657525 L44.2153126,3.2657525 L44.2153126,7.10243464 L39.7943226,7.10243464 L39.7943226,3.2657525 Z M5.01298397,22.4235568 L9.63163327,22.4235568 L14.6446192,8.29001429 L10.2231363,8.29001429 L7.40709218,17.3717557 L7.34991182,17.3717557 L4.53386774,8.29001429 L0,8.29001429 L5.01298397,22.4235568 Z M21.2344509,10.9685889 C22.7832004,10.9685889 23.8538216,12.1001236 24.0223988,13.7563562 L18.1364549,13.7563562 C18.4745972,12.0720991 19.4037495,10.9685889 21.2344509,10.9685889 Z M21.4597134,19.7184073 C19.5166273,19.7184073 18.3341162,18.4762323 18.1083587,16.5716609 L28.5005671,16.5716609 C28.5286834,13.5350736 27.7123888,11.1062854 25.9935812,9.58823429 C24.7829719,8.48375571 23.1775371,7.87643786 21.1501603,7.87643786 C16.8129679,7.87643786 13.7992625,11.1062854 13.7992625,15.3294879 C13.7992625,19.5807109 16.672487,22.8380977 21.4316172,22.8380977 C23.2342224,22.8380977 24.6700942,22.3684762 25.8531002,21.567417 C27.1203948,20.7127268 28.0214489,19.4700686 28.2753026,18.2278955 L24.050495,18.2278955 C23.6285571,19.1671345 22.7551042,19.7184073 21.4597134,19.7184073 Z M29.5425972,22.4235568 L33.935982,22.4235568 L33.935982,15.9368037 C33.935982,12.9838007 35.7380942,11.6855807 38.4974529,12.0445598 L38.5822345,12.0445598 L38.5822345,8.31852 C38.3569719,8.23541893 38.1036112,8.20787768 37.6811804,8.20787768 C35.9638497,8.20787768 34.8089419,8.98091643 33.8231042,10.6366659 L33.7383226,10.6366659 L33.7383226,8.29001429 L29.5425972,8.29001429 L29.5425972,22.4235568 Z M39.7943226,22.4235568 L44.2153126,22.4235568 L44.2153126,8.29001429 L39.7943226,8.29001429 L39.7943226,22.4235568 Z M45.4269058,22.4235568 L57.7622004,22.4235568 L57.7622004,19.0279884 L50.7770481,19.0279884 L50.7770481,18.9458537 L57.4526473,11.6034461 L57.4526473,8.29001429 L45.4269058,8.29001429 L45.4269058,11.6855807 L52.1853166,11.6855807 L52.1853166,11.7686837 L45.4269058,19.1671345 L45.4269058,22.4235568 Z M65.5626413,19.6913512 C63.4785792,19.6913512 62.3808497,17.9795568 62.3808497,15.3850496 C62.3808497,12.76252 63.4785792,11.0777796 65.5626413,11.0777796 C67.6471944,11.0777796 68.8021022,12.76252 68.8021022,15.3850496 C68.8021022,17.9795568 67.6471944,19.6913512 65.5626413,19.6913512 Z M65.5912305,7.90349589 C61.0006774,7.90349589 57.9307776,11.1338266 57.9307776,15.3850496 C57.9307776,19.6082502 61.0006774,22.865637 65.5912305,22.865637 C70.1812906,22.865637 73.2511884,19.6082502 73.2511884,15.3850496 C73.2511884,11.1338266 70.1812906,7.90349589 65.5912305,7.90349589 Z M74.2089299,22.4235568 L78.6023146,22.4235568 L78.6023146,14.5564491 C78.6023146,12.76252 79.6719499,11.4928057 81.2487956,11.4928057 C82.7699439,11.4928057 83.5586132,12.5412373 83.5586132,14.0322343 L83.5586132,22.4235568 L87.952493,22.4235568 L87.952493,13.2036337 C87.952493,10.0849098 86.037503,7.87643786 82.939507,7.87643786 C80.9673387,7.87643786 79.5881523,8.70503839 78.5466152,10.2230914 L78.4618337,10.2230914 L78.4618337,8.29001429 L74.2089299,8.29001429 L74.2089299,22.4235568 Z" id="path3358" fill-rule="nonzero"></path>
                    </g>
                </g>
            </g>
        </g>
    </g>
</svg>