<?xml version="1.0" encoding="UTF-8"?>
<svg width="151px" height="29px" viewBox="0 0 151 29" version="1.1" xmlns="http://www.w3.org/2000/svg" xmlns:xlink="http://www.w3.org/1999/xlink">
    <!-- Generator: Sketch 52.4 (67378) - http://www.bohemiancoding.com/sketch -->
    <title>Yahoo_Logo</title>
    <desc>Created with Sketch.</desc>
    <g id="Homepage" stroke="none" stroke-width="1" fill="none" fill-rule="evenodd" opacity="0.703264509">
        <g transform="translate(-260.000000, -6638.000000)" id="Banner">
            <g transform="translate(-24.000000, 5637.000000)">
                <g id="Logos" transform="translate(284.000000, 991.000000)">
                    <g id="Yahoo_Logo" transform="translate(0.000000, 10.000000)">
                        <path d="M41.2106376,7.42991729 C40.4727806,7.50321693 37.401138,8.19512103 36.3687273,8.41761132 C35.2632305,8.71340126 25.1631688,16.5590533 24.4996867,18.485575 C24.3525939,19.1523055 24.2788635,20.1781301 24.2788635,21.1421313 L24.2048569,22.6991932 C24.2048569,23.8101639 24.511837,25.6019327 24.6588377,26.5651935 C25.3228722,26.714014 30.1286076,26.5840738 31.013005,26.7317836 L30.9042042,28.7245711 C30.0400574,28.6612669 23.9375494,28.6760749 20.4511384,28.6760749 C18.681331,28.6760749 12.9921186,28.872281 11.2441266,28.8193424 L11.574579,26.9242877 C12.5330751,26.8495073 16.5016337,27.0964308 17.3740649,26.1705602 C17.807427,25.7111418 17.669355,25.2187756 17.669355,22.550743 L17.669355,21.2909518 C17.669355,20.6978911 17.669355,19.5854397 17.5214338,18.5473984 C17.1530576,17.4353171 8.25707614,6.26711858 5.9717998,4.488677 C5.30776535,4.2665569 1.14958783,3.84841581 0.117637408,3.62555532 L0.0662746164,1.91837728 C0.581099219,1.65886697 5.20494772,1.9814964 9.69210487,1.81453612 C12.6411395,1.70495687 19.3698502,1.81453612 20.2000314,1.91393487 L19.9873084,3.41842834 C19.1029109,3.64110374 14.842284,3.72347327 13.7362349,4.0196334 C16.6116311,8.3187679 21.1577911,13.8536305 22.6324925,16.0033829 C23.4438958,14.8176318 30.5708063,9.8876762 30.7917216,8.18290445 C29.6854884,7.95967375 26.02391,7.42991731 25.4338821,7.42991731 L25.0836394,5.48895785 C26.0874231,5.33106748 31.3654569,5.48895785 33.98947,5.48895785 C36.2540355,5.48895785 41.0930002,5.48895785 42.4680136,5.60223911 L41.2106376,7.42991729" id="path2217" fill="#FFFFFF"></path>
                        <path d="M44.2918532,13.033267 L44.2458292,12.7387727 C43.4094808,14.7013889 41.9891798,17.7851563 41.7106425,18.5322202 L46.2869021,18.5301841 C45.7290911,17.0817759 44.7101194,14.2477086 44.2918532,13.033267 Z M56.4449541,27.8947674 C56.1203927,27.8475669 52.4261373,27.8481222 51.0791064,27.8481222 C50.288598,27.8481222 46.2651788,27.8246145 45.5676388,27.8246145 L45.776772,26.0887459 C46.7068252,26.0422858 48.4354871,25.6637561 49.2259956,25.5704657 C48.7149449,24.4032246 47.028441,20.6951146 46.6567511,19.9945108 C45.6808579,19.9945108 42.1712508,20.1050156 41.1953576,20.2917816 C41.0097888,20.6190385 39.6774857,21.9326938 39.4458928,23.7078036 C40.0966724,23.8477392 41.3444754,24.1176151 42.0876712,24.2107205 L41.8128158,25.9847197 C41.0232278,25.9380744 37.8727921,26.0311798 37.1294122,25.9847197 C36.4316882,25.9847197 33.1944512,25.9924939 32.5901559,26.0857843 L33.1656401,24.2107205 C33.9086518,24.1176151 35.6218497,23.5821206 36.2715246,23.4427402 C37.247786,22.0415326 41.7669759,13.1595052 42.139034,12.3182253 C41.5342785,12.1777344 40.5081271,11.6894403 39.8567952,11.5961499 L39.7675086,10.3126659 C40.5576489,10.3600515 44.4844177,10.4785156 44.9015793,10.4575993 C45.8358668,10.4116945 49.3038682,10.4289088 50.0941926,10.3830039 L49.8012958,11.6435355 C49.1044922,11.6894403 47.9708287,12.0311351 47.3198651,12.1710707 C47.6451628,13.1521012 48.939174,16.3149063 49.9150671,18.6506842 C50.6586311,20.3332439 51.8926269,23.6295062 53.0540889,25.545292 C53.8436769,25.6852277 55.6559184,26.2201669 56.4922668,26.2666271 L56.5392113,26.7347452 L56.4449541,27.8947674 Z" id="path2219" fill="#FFFFFF" fill-rule="nonzero"></path>
                        <path d="M83.6631871,23.0867928 C83.0223488,23.037186 79.9387399,23.0416284 78.3619572,23.0867928 C77.0974014,23.1227022 74.0933221,22.9712903 72.6632639,23.0336691 L72.554095,21.2720716 C73.046736,21.2220946 76.1231651,21.0118209 76.7142975,20.9118668 C76.9112803,19.9706329 76.8170231,18.6349507 76.8170231,17.4964001 L76.7409915,15.4221686 C75.1636565,15.4221686 64.7364561,15.9676586 64.2926006,16.0163399 L63.5308111,16.1162939 C63.5308111,18.9422169 63.6786402,19.8351397 63.8759912,20.8759574 C64.7145487,21.0236673 67.72231,21.2220946 68.3625961,21.3220486 L68.3237518,23.2419067 C67.5836857,23.1921147 62.9586406,23.2419067 61.5285824,23.2419067 C59.8036024,23.2419067 55.6078693,23.2045165 54.6216668,23.2541233 L54.7553205,21.2720716 C55.5441721,21.2220946 58.526344,20.9268599 59.1673665,20.8282016 C59.266042,19.5378689 59.3151956,17.5067657 59.3151956,15.374783 L59.3151956,12.7474724 C59.3151956,11.85529 59.266042,9.27758629 59.216336,8.3846635 C58.5753136,8.28693065 55.5931416,8.08591196 54.7057987,8.03649024 L54.5483966,6.53551368 C55.1398972,6.5858609 59.2566531,6.47239455 61.4254887,6.47239455 C63.4470474,6.47239455 68.0306709,6.51256127 68.5730179,6.46239914 L68.412302,8.03649024 C67.4756213,8.08591196 64.3693686,8.33376097 63.8272058,8.43278951 C63.6786403,9.17707693 63.5308111,9.82178052 63.5308111,12.2006868 L63.4580932,13.4408573 C64.3454362,13.4408573 75.3444389,13.3973588 76.7142976,13.2011527 L76.7142976,11.4928641 C76.7142976,9.31201492 77.0510093,6.95402498 76.8048729,6.30876611 C76.2621577,6.16087115 73.3236165,5.74476616 72.3861994,5.69460403 L72.517644,4.11218343 C73.1095128,4.16216046 75.8796061,4.14531635 77.9497662,4.19510827 C80.1191541,4.19510827 83.2708785,4.28469672 83.9115327,4.18566816 L83.7659128,5.48895785 C83.1252585,5.53893487 80.2667991,6.2656378 80.2667991,6.2656378 C80.2667991,6.2656378 80.0716573,7.62390219 80.2150681,9.57763356 C80.3334419,11.2000358 80.3695247,14.3911612 80.3695247,14.3911612 C80.4512634,17.9443424 80.6692331,20.8156148 80.4724344,20.9649906 C80.2353187,21.1428718 82.7358953,21.2959495 83.4255192,21.3957185 L83.695404,21.8666131 L83.6631871,23.0867928" id="path2221" fill="#FFFFFF"></path>
                        <path d="M105.129339,15.219484 C105.307912,10.2093801 101.407837,8.87573401 96.4810588,9.21576286 C93.9031618,9.39382913 88.6571607,10.764125 88.6571607,15.219484 C88.6571607,19.6226448 92.6813163,22.007104 98.0508459,21.5362094 C102.20663,21.1726728 104.387616,19.634121 104.922967,17.4964001 L105.129339,15.219484 Z M109.092927,14.8054151 C109.326913,20.8596686 103.8287,23.8627323 96.6872464,23.8627323 C93.7151998,23.8627323 90.0977123,23.2933645 87.009317,21.4301471 C84.5998678,19.976371 84.2009317,18.0907565 84.2009317,15.7322113 C84.2009317,10.8568602 89.4795178,6.81538502 97.5605981,6.86795343 C100.636107,6.86795343 103.600974,7.33958845 105.997352,9.21872448 C108.135812,10.8955461 108.497008,11.7283114 108.886739,13.5630234 L109.092927,14.8054151 Z" id="path2223" fill="#FFFFFF" fill-rule="nonzero"></path>
                        <path d="M142.929597,25.0029488 L141.218977,24.8554241 L141.200751,21.1300998 L143.366457,21.4014565 L145.307382,21.4919705 L144.768717,25.1397378 L142.929597,25.0029488 Z M145.133043,18.4224558 L141.940817,18.1109324 C142.275688,16.4879749 141.984264,4.02870328 141.958306,2.69949957 L141.793909,0.0821844078 C142.683277,0.258399686 142.548518,0.165849654 146.301132,0.562704229 C148.58466,0.803704541 148.882711,0.906620176 149.634191,0.936421297 L148.653328,4.04017947 C147.816427,6.52255668 145.390593,17.5932075 145.133043,18.4224558 Z" id="path2225" fill="#FFFFFF" fill-rule="nonzero"></path>
                        <path d="M134.778929,13.1495098 C135.118402,7.70571641 129.90204,5.72273922 124.278274,6.1103388 C121.33513,6.31302338 115.835997,8.06295956 115.835997,13.1495098 C115.835997,18.1755323 120.43803,20.7093673 126.569718,20.1725771 C131.3124,19.7570274 133.28683,17.9630374 134.367658,15.5306373 C134.367658,15.5306373 134.676755,14.8054151 134.778929,13.1495098 Z M139.033388,12.345435 C139.454416,18.0146804 132.947173,22.7236264 124.792638,22.7236264 C121.400669,22.7236264 118.512938,22.3101129 115.166808,20.0850248 C112.41494,18.2545701 111.10031,16.6686326 110.756971,13.545624 C110.14835,8.01427824 116.783171,3.36604499 126.008593,3.42583232 C129.520409,3.42583232 132.904095,3.96299276 135.641419,6.10922821 C138.081612,8.02279285 138.508531,9.83880976 138.954043,11.9348831 L139.033388,12.345435 Z" id="path2227" fill="#FFFFFF" fill-rule="nonzero"></path>
                        <path d="M148.699904,23.2261731 L149.030172,23.2261731 C149.316626,23.2261731 149.594058,23.2115502 149.594058,22.8702257 C149.594058,22.576657 149.340558,22.5422283 149.122588,22.5422283 L148.699904,22.5422283 L148.699904,23.2261731 Z M148.379209,22.2779054 L149.175792,22.2779054 C149.676349,22.2779054 149.91457,22.4779986 149.91457,22.8842933 C149.91457,23.2704121 149.671747,23.4321896 149.355838,23.4656927 L149.963907,24.4047054 L149.618543,24.4047054 L149.045268,23.490311 L148.699904,23.490311 L148.699904,24.4047054 L148.379209,24.4047054 L148.379209,22.2779054 Z M149.068648,24.8985524 C149.895424,24.8985524 150.556513,24.2236775 150.556513,23.3437117 C150.556513,22.4637459 149.895424,21.788871 149.068648,21.788871 C148.237639,21.788871 147.580968,22.4637459 147.580968,23.3437117 C147.580968,24.2236775 148.237639,24.8985524 149.068648,24.8985524 Z M149.068648,21.5247332 C150.050985,21.5247332 150.87776,22.3073363 150.87776,23.3437117 C150.87776,24.3802722 150.050985,25.1626902 149.068648,25.1626902 C148.082078,25.1626902 147.260641,24.3802722 147.260641,23.3437117 C147.260641,22.3073363 148.082078,21.5247332 149.068648,21.5247332 Z" id="path2229" fill="#7B0099" fill-rule="nonzero"></path>
                    </g>
                </g>
            </g>
        </g>
    </g>
</svg>